%TF.GenerationSoftware,KiCad,Pcbnew,8.0.0*%
%TF.CreationDate,2024-04-09T18:41:08+07:00*%
%TF.ProjectId,robotika,726f626f-7469-46b6-912e-6b696361645f,rev?*%
%TF.SameCoordinates,Original*%
%TF.FileFunction,Soldermask,Bot*%
%TF.FilePolarity,Negative*%
%FSLAX46Y46*%
G04 Gerber Fmt 4.6, Leading zero omitted, Abs format (unit mm)*
G04 Created by KiCad (PCBNEW 8.0.0) date 2024-04-09 18:41:08*
%MOMM*%
%LPD*%
G01*
G04 APERTURE LIST*
%ADD10R,1.600000X1.600000*%
%ADD11O,1.600000X1.600000*%
%ADD12R,1.700000X1.700000*%
%ADD13O,1.700000X1.700000*%
%ADD14C,3.200000*%
%ADD15C,2.000000*%
%ADD16C,0.650000*%
%ADD17O,1.000000X2.100000*%
%ADD18O,1.000000X1.600000*%
%ADD19C,1.600000*%
G04 APERTURE END LIST*
D10*
%TO.C,U6*%
X153900000Y-84290000D03*
D11*
X153900000Y-86830000D03*
X153900000Y-89370000D03*
X153900000Y-91910000D03*
X153900000Y-94450000D03*
X153900000Y-96990000D03*
X153900000Y-99530000D03*
X153900000Y-102070000D03*
X161520000Y-102070000D03*
X161520000Y-99530000D03*
X161520000Y-96990000D03*
X161520000Y-94450000D03*
X161520000Y-91910000D03*
X161520000Y-89370000D03*
X161520000Y-86830000D03*
X161520000Y-84290000D03*
%TD*%
D12*
%TO.C,SW2*%
X130450000Y-72420000D03*
D13*
X132990000Y-72420000D03*
X135530000Y-72420000D03*
%TD*%
D12*
%TO.C,J4*%
X166500000Y-80460000D03*
D13*
X166500000Y-83000000D03*
%TD*%
D12*
%TO.C,J3*%
X166500000Y-106960000D03*
D13*
X166500000Y-109500000D03*
%TD*%
D12*
%TO.C,J2*%
X140725000Y-72500000D03*
D13*
X143265000Y-72500000D03*
%TD*%
D14*
%TO.C,H4*%
X103500000Y-73500000D03*
%TD*%
%TO.C,H3*%
X103500000Y-116500000D03*
%TD*%
%TO.C,H2*%
X166500000Y-73500000D03*
%TD*%
%TO.C,H1*%
X166500000Y-116500000D03*
%TD*%
D15*
%TO.C,SW1*%
X148250000Y-112250000D03*
X154750000Y-112250000D03*
X148250000Y-116750000D03*
X154750000Y-116750000D03*
%TD*%
D16*
%TO.C,J1*%
X113010000Y-114895000D03*
X118790000Y-114895000D03*
D17*
X111580000Y-114395000D03*
D18*
X111580000Y-118575000D03*
D17*
X120220000Y-114395000D03*
D18*
X120220000Y-118575000D03*
%TD*%
D10*
%TO.C,C10*%
X123000000Y-75000000D03*
D19*
X125500000Y-75000000D03*
%TD*%
D10*
%TO.C,C9*%
X104205112Y-82205112D03*
D19*
X104205112Y-79705112D03*
%TD*%
D10*
%TO.C,C5*%
X144000000Y-90205112D03*
D19*
X144000000Y-87705112D03*
%TD*%
D10*
%TO.C,C1*%
X109000000Y-110500000D03*
D19*
X106500000Y-110500000D03*
%TD*%
M02*
