%TF.GenerationSoftware,KiCad,Pcbnew,8.0.0*%
%TF.CreationDate,2024-04-09T18:41:08+07:00*%
%TF.ProjectId,robotika,726f626f-7469-46b6-912e-6b696361645f,rev?*%
%TF.SameCoordinates,Original*%
%TF.FileFunction,Copper,L2,Bot*%
%TF.FilePolarity,Positive*%
%FSLAX46Y46*%
G04 Gerber Fmt 4.6, Leading zero omitted, Abs format (unit mm)*
G04 Created by KiCad (PCBNEW 8.0.0) date 2024-04-09 18:41:08*
%MOMM*%
%LPD*%
G01*
G04 APERTURE LIST*
%TA.AperFunction,ComponentPad*%
%ADD10R,1.600000X1.600000*%
%TD*%
%TA.AperFunction,ComponentPad*%
%ADD11O,1.600000X1.600000*%
%TD*%
%TA.AperFunction,ComponentPad*%
%ADD12R,1.700000X1.700000*%
%TD*%
%TA.AperFunction,ComponentPad*%
%ADD13O,1.700000X1.700000*%
%TD*%
%TA.AperFunction,ComponentPad*%
%ADD14C,2.000000*%
%TD*%
%TA.AperFunction,ComponentPad*%
%ADD15O,1.000000X2.100000*%
%TD*%
%TA.AperFunction,ComponentPad*%
%ADD16O,1.000000X1.600000*%
%TD*%
%TA.AperFunction,ComponentPad*%
%ADD17C,1.600000*%
%TD*%
%TA.AperFunction,ViaPad*%
%ADD18C,0.600000*%
%TD*%
%TA.AperFunction,Conductor*%
%ADD19C,0.250000*%
%TD*%
%TA.AperFunction,Conductor*%
%ADD20C,1.000000*%
%TD*%
%TA.AperFunction,Conductor*%
%ADD21C,0.500000*%
%TD*%
G04 APERTURE END LIST*
D10*
%TO.P,U6,1,EN1\u002C2*%
%TO.N,+5V*%
X153900000Y-84290000D03*
D11*
%TO.P,U6,2,1A*%
%TO.N,1A*%
X153900000Y-86830000D03*
%TO.P,U6,3,1Y*%
%TO.N,Net-(J3-Pin_1)*%
X153900000Y-89370000D03*
%TO.P,U6,4,GND*%
%TO.N,GND*%
X153900000Y-91910000D03*
%TO.P,U6,5,GND*%
X153900000Y-94450000D03*
%TO.P,U6,6,2Y*%
%TO.N,Net-(J3-Pin_2)*%
X153900000Y-96990000D03*
%TO.P,U6,7,2A*%
%TO.N,2A*%
X153900000Y-99530000D03*
%TO.P,U6,8,VCC2*%
%TO.N,+9V*%
X153900000Y-102070000D03*
%TO.P,U6,9,EN3\u002C4*%
%TO.N,+5V*%
X161520000Y-102070000D03*
%TO.P,U6,10,3A*%
%TO.N,3A*%
X161520000Y-99530000D03*
%TO.P,U6,11,3Y*%
%TO.N,Net-(J4-Pin_1)*%
X161520000Y-96990000D03*
%TO.P,U6,12,GND*%
%TO.N,GND*%
X161520000Y-94450000D03*
%TO.P,U6,13,GND*%
X161520000Y-91910000D03*
%TO.P,U6,14,4Y*%
%TO.N,Net-(J4-Pin_2)*%
X161520000Y-89370000D03*
%TO.P,U6,15,4A*%
%TO.N,4A*%
X161520000Y-86830000D03*
%TO.P,U6,16,VCC1*%
%TO.N,+5V*%
X161520000Y-84290000D03*
%TD*%
D12*
%TO.P,SW2,1,A*%
%TO.N,unconnected-(SW2-A-Pad1)*%
X130450000Y-72420000D03*
D13*
%TO.P,SW2,2,B*%
%TO.N,+9V*%
X132990000Y-72420000D03*
%TO.P,SW2,3,C*%
%TO.N,Net-(J2-Pin_1)*%
X135530000Y-72420000D03*
%TD*%
D12*
%TO.P,J4,1,Pin_1*%
%TO.N,Net-(J4-Pin_1)*%
X166500000Y-80460000D03*
D13*
%TO.P,J4,2,Pin_2*%
%TO.N,Net-(J4-Pin_2)*%
X166500000Y-83000000D03*
%TD*%
D12*
%TO.P,J3,1,Pin_1*%
%TO.N,Net-(J3-Pin_1)*%
X166500000Y-106960000D03*
D13*
%TO.P,J3,2,Pin_2*%
%TO.N,Net-(J3-Pin_2)*%
X166500000Y-109500000D03*
%TD*%
D12*
%TO.P,J2,1,Pin_1*%
%TO.N,Net-(J2-Pin_1)*%
X140725000Y-72500000D03*
D13*
%TO.P,J2,2,Pin_2*%
%TO.N,GND*%
X143265000Y-72500000D03*
%TD*%
D14*
%TO.P,SW1,1,1*%
%TO.N,GND*%
X148250000Y-112250000D03*
X154750000Y-112250000D03*
%TO.P,SW1,2,2*%
%TO.N,Net-(U3-~{RST})*%
X148250000Y-116750000D03*
X154750000Y-116750000D03*
%TD*%
D15*
%TO.P,J1,S1,SHIELD*%
%TO.N,GND*%
X111580000Y-114395000D03*
D16*
X111580000Y-118575000D03*
D15*
X120220000Y-114395000D03*
D16*
X120220000Y-118575000D03*
%TD*%
D10*
%TO.P,C10,1*%
%TO.N,+9V*%
X123000000Y-75000000D03*
D17*
%TO.P,C10,2*%
%TO.N,GND*%
X125500000Y-75000000D03*
%TD*%
D10*
%TO.P,C9,1*%
%TO.N,+5V*%
X104205112Y-82205112D03*
D17*
%TO.P,C9,2*%
%TO.N,GND*%
X104205112Y-79705112D03*
%TD*%
D10*
%TO.P,C5,1*%
%TO.N,+3.3V*%
X144000000Y-90205112D03*
D17*
%TO.P,C5,2*%
%TO.N,GND*%
X144000000Y-87705112D03*
%TD*%
D10*
%TO.P,C1,1*%
%TO.N,VBUS*%
X109000000Y-110500000D03*
D17*
%TO.P,C1,2*%
%TO.N,GND*%
X106500000Y-110500000D03*
%TD*%
D18*
%TO.N,D+*%
X117000000Y-112500000D03*
X115525000Y-112500000D03*
%TO.N,+9V*%
X121920000Y-78500000D03*
%TO.N,+5V*%
X134500000Y-82205112D03*
%TO.N,4A*%
X150876000Y-80137000D03*
%TO.N,3A*%
X156718000Y-105664000D03*
X145542000Y-99187000D03*
%TO.N,2A*%
X147828000Y-99568000D03*
%TO.N,+3.3V*%
X106807000Y-95250000D03*
X123425000Y-94380000D03*
%TO.N,RX*%
X124079000Y-110744000D03*
X124079000Y-107569000D03*
%TD*%
D19*
%TO.N,D+*%
X115525000Y-112500000D02*
X117000000Y-112500000D01*
D20*
%TO.N,Net-(J2-Pin_1)*%
X140645000Y-72420000D02*
X140725000Y-72500000D01*
X135530000Y-72420000D02*
X140645000Y-72420000D01*
%TO.N,+9V*%
X129112081Y-77500000D02*
X132990000Y-73622081D01*
X122920000Y-77500000D02*
X129112081Y-77500000D01*
X132990000Y-73622081D02*
X132990000Y-72420000D01*
X121920000Y-78500000D02*
X122920000Y-77500000D01*
%TO.N,+5V*%
X134500000Y-82205112D02*
X151815112Y-82205112D01*
X104205112Y-82205112D02*
X134500000Y-82205112D01*
%TO.N,4A*%
X163703000Y-81407000D02*
X163703000Y-84647000D01*
X162433000Y-80137000D02*
X163703000Y-81407000D01*
X150876000Y-80137000D02*
X162433000Y-80137000D01*
X163703000Y-84647000D02*
X161520000Y-86830000D01*
%TO.N,3A*%
X145542000Y-99187000D02*
X145542000Y-100203000D01*
X145542000Y-100203000D02*
X151003000Y-105664000D01*
X151003000Y-105664000D02*
X156718000Y-105664000D01*
%TO.N,Net-(J4-Pin_1)*%
X168783000Y-90932000D02*
X162725000Y-96990000D01*
X168783000Y-81407000D02*
X168783000Y-90932000D01*
X162725000Y-96990000D02*
X161520000Y-96990000D01*
X167836000Y-80460000D02*
X168783000Y-81407000D01*
X166500000Y-80460000D02*
X167836000Y-80460000D01*
%TO.N,Net-(J4-Pin_2)*%
X166500000Y-84390000D02*
X161520000Y-89370000D01*
X166500000Y-83000000D02*
X166500000Y-84390000D01*
%TO.N,Net-(J3-Pin_1)*%
X156210000Y-90678000D02*
X154902000Y-89370000D01*
X154902000Y-89370000D02*
X153900000Y-89370000D01*
X156210000Y-102362000D02*
X156210000Y-90678000D01*
X160808000Y-106960000D02*
X156210000Y-102362000D01*
X166500000Y-106960000D02*
X160808000Y-106960000D01*
%TO.N,2A*%
X153862000Y-99568000D02*
X153900000Y-99530000D01*
X147828000Y-99568000D02*
X153862000Y-99568000D01*
%TO.N,+5V*%
X157988000Y-100584000D02*
X157988000Y-86703000D01*
X157988000Y-86703000D02*
X155575000Y-84290000D01*
X159474000Y-102070000D02*
X157988000Y-100584000D01*
X155575000Y-84290000D02*
X153900000Y-84290000D01*
X161520000Y-102070000D02*
X159474000Y-102070000D01*
X161520000Y-84290000D02*
X155575000Y-84290000D01*
X151815112Y-82205112D02*
X153900000Y-84290000D01*
D21*
%TO.N,+3.3V*%
X123425000Y-94380000D02*
X107677000Y-94380000D01*
X107677000Y-94380000D02*
X106807000Y-95250000D01*
%TO.N,RX*%
X124079000Y-107569000D02*
X124079000Y-110744000D01*
%TD*%
%TA.AperFunction,Conductor*%
%TO.N,GND*%
G36*
X169458691Y-70519407D02*
G01*
X169494655Y-70568907D01*
X169499500Y-70599500D01*
X169499500Y-80893836D01*
X169480593Y-80952027D01*
X169431093Y-80987991D01*
X169369907Y-80987991D01*
X169330496Y-80963840D01*
X169327116Y-80960460D01*
X169327114Y-80960457D01*
X168282543Y-79915886D01*
X168167811Y-79839225D01*
X168167810Y-79839224D01*
X168167808Y-79839223D01*
X168040328Y-79786420D01*
X167904996Y-79759500D01*
X167904994Y-79759500D01*
X167904993Y-79759500D01*
X167649500Y-79759500D01*
X167591309Y-79740593D01*
X167555345Y-79691093D01*
X167550500Y-79660500D01*
X167550500Y-79590253D01*
X167550498Y-79590241D01*
X167547711Y-79576231D01*
X167538867Y-79531769D01*
X167494552Y-79465448D01*
X167451229Y-79436500D01*
X167428233Y-79421134D01*
X167428231Y-79421133D01*
X167428228Y-79421132D01*
X167428227Y-79421132D01*
X167369758Y-79409501D01*
X167369748Y-79409500D01*
X165630252Y-79409500D01*
X165630251Y-79409500D01*
X165630241Y-79409501D01*
X165571772Y-79421132D01*
X165571766Y-79421134D01*
X165505451Y-79465445D01*
X165505445Y-79465451D01*
X165461134Y-79531766D01*
X165461132Y-79531772D01*
X165449501Y-79590241D01*
X165449500Y-79590253D01*
X165449500Y-81329746D01*
X165449501Y-81329758D01*
X165461132Y-81388227D01*
X165461134Y-81388233D01*
X165505445Y-81454548D01*
X165505448Y-81454552D01*
X165571769Y-81498867D01*
X165616231Y-81507711D01*
X165630241Y-81510498D01*
X165630246Y-81510498D01*
X165630252Y-81510500D01*
X165630253Y-81510500D01*
X167369747Y-81510500D01*
X167369748Y-81510500D01*
X167428231Y-81498867D01*
X167494552Y-81454552D01*
X167538867Y-81388231D01*
X167541673Y-81374121D01*
X167571566Y-81320739D01*
X167627130Y-81295122D01*
X167687141Y-81307056D01*
X167708774Y-81323431D01*
X168053504Y-81668161D01*
X168081281Y-81722678D01*
X168082500Y-81738165D01*
X168082500Y-90600835D01*
X168063593Y-90659026D01*
X168053504Y-90670839D01*
X162463839Y-96260504D01*
X162409322Y-96288281D01*
X162393835Y-96289500D01*
X162278957Y-96289500D01*
X162220766Y-96270593D01*
X162216162Y-96267035D01*
X162078538Y-96154090D01*
X162037618Y-96132218D01*
X161904732Y-96061188D01*
X161904730Y-96061187D01*
X161716129Y-96003975D01*
X161716126Y-96003974D01*
X161520003Y-95984659D01*
X161519997Y-95984659D01*
X161323873Y-96003974D01*
X161323870Y-96003975D01*
X161135269Y-96061187D01*
X161135267Y-96061188D01*
X160961467Y-96154087D01*
X160961457Y-96154093D01*
X160809121Y-96279112D01*
X160809112Y-96279121D01*
X160684093Y-96431457D01*
X160684087Y-96431467D01*
X160591188Y-96605267D01*
X160591187Y-96605269D01*
X160533975Y-96793870D01*
X160533974Y-96793873D01*
X160514659Y-96989996D01*
X160514659Y-96990003D01*
X160533974Y-97186126D01*
X160533975Y-97186129D01*
X160591187Y-97374730D01*
X160591188Y-97374732D01*
X160662218Y-97507618D01*
X160684090Y-97548538D01*
X160684092Y-97548540D01*
X160684093Y-97548542D01*
X160809112Y-97700878D01*
X160809121Y-97700887D01*
X160823847Y-97712972D01*
X160961462Y-97825910D01*
X161135273Y-97918814D01*
X161323868Y-97976024D01*
X161323870Y-97976024D01*
X161323873Y-97976025D01*
X161519997Y-97995341D01*
X161520000Y-97995341D01*
X161520003Y-97995341D01*
X161716126Y-97976025D01*
X161716127Y-97976024D01*
X161716132Y-97976024D01*
X161904727Y-97918814D01*
X162078538Y-97825910D01*
X162216153Y-97712971D01*
X162273128Y-97690672D01*
X162278957Y-97690500D01*
X162793993Y-97690500D01*
X162793994Y-97690500D01*
X162929328Y-97663580D01*
X163056811Y-97610775D01*
X163171543Y-97534114D01*
X169327114Y-91378543D01*
X169327116Y-91378539D01*
X169330496Y-91375160D01*
X169385013Y-91347383D01*
X169445445Y-91356954D01*
X169488710Y-91400219D01*
X169499500Y-91445164D01*
X169499500Y-119400500D01*
X169480593Y-119458691D01*
X169431093Y-119494655D01*
X169400500Y-119499500D01*
X143219000Y-119499500D01*
X143160809Y-119480593D01*
X143124845Y-119431093D01*
X143120000Y-119400500D01*
X143120000Y-116750000D01*
X147044357Y-116750000D01*
X147064885Y-116971536D01*
X147125771Y-117185528D01*
X147224942Y-117384689D01*
X147359019Y-117562236D01*
X147523438Y-117712124D01*
X147712599Y-117829247D01*
X147920060Y-117909618D01*
X148138757Y-117950500D01*
X148361243Y-117950500D01*
X148579940Y-117909618D01*
X148787401Y-117829247D01*
X148976562Y-117712124D01*
X149140981Y-117562236D01*
X149275058Y-117384689D01*
X149374229Y-117185528D01*
X149435115Y-116971536D01*
X149455643Y-116750000D01*
X153544357Y-116750000D01*
X153564885Y-116971536D01*
X153625771Y-117185528D01*
X153724942Y-117384689D01*
X153859019Y-117562236D01*
X154023438Y-117712124D01*
X154212599Y-117829247D01*
X154420060Y-117909618D01*
X154638757Y-117950500D01*
X154861243Y-117950500D01*
X155079940Y-117909618D01*
X155287401Y-117829247D01*
X155476562Y-117712124D01*
X155640981Y-117562236D01*
X155775058Y-117384689D01*
X155874229Y-117185528D01*
X155935115Y-116971536D01*
X155955643Y-116750000D01*
X155943716Y-116621289D01*
X164649500Y-116621289D01*
X164681161Y-116861781D01*
X164681161Y-116861786D01*
X164743944Y-117096092D01*
X164743948Y-117096105D01*
X164836772Y-117320204D01*
X164836774Y-117320208D01*
X164836776Y-117320212D01*
X164958064Y-117530289D01*
X164958066Y-117530292D01*
X165105729Y-117722731D01*
X165105731Y-117722733D01*
X165105735Y-117722738D01*
X165277262Y-117894265D01*
X165277266Y-117894268D01*
X165277268Y-117894270D01*
X165297270Y-117909618D01*
X165469711Y-118041936D01*
X165679788Y-118163224D01*
X165903900Y-118256054D01*
X166138211Y-118318838D01*
X166378712Y-118350500D01*
X166378713Y-118350500D01*
X166621287Y-118350500D01*
X166621288Y-118350500D01*
X166861789Y-118318838D01*
X167096100Y-118256054D01*
X167320212Y-118163224D01*
X167530289Y-118041936D01*
X167722738Y-117894265D01*
X167894265Y-117722738D01*
X168041936Y-117530289D01*
X168163224Y-117320212D01*
X168256054Y-117096100D01*
X168318838Y-116861789D01*
X168350500Y-116621288D01*
X168350500Y-116378712D01*
X168318838Y-116138211D01*
X168256054Y-115903900D01*
X168163224Y-115679788D01*
X168041936Y-115469711D01*
X167894265Y-115277262D01*
X167722738Y-115105735D01*
X167722733Y-115105731D01*
X167722731Y-115105729D01*
X167530292Y-114958066D01*
X167530289Y-114958064D01*
X167320212Y-114836776D01*
X167320208Y-114836774D01*
X167320204Y-114836772D01*
X167096105Y-114743948D01*
X167096104Y-114743947D01*
X167096100Y-114743946D01*
X166861789Y-114681162D01*
X166861786Y-114681161D01*
X166861784Y-114681161D01*
X166621289Y-114649500D01*
X166621288Y-114649500D01*
X166378712Y-114649500D01*
X166378710Y-114649500D01*
X166138218Y-114681161D01*
X166138213Y-114681161D01*
X165903907Y-114743944D01*
X165903894Y-114743948D01*
X165679795Y-114836772D01*
X165469707Y-114958066D01*
X165277268Y-115105729D01*
X165105729Y-115277268D01*
X164958066Y-115469707D01*
X164836772Y-115679795D01*
X164743948Y-115903894D01*
X164743944Y-115903907D01*
X164681161Y-116138213D01*
X164681161Y-116138218D01*
X164649500Y-116378710D01*
X164649500Y-116621289D01*
X155943716Y-116621289D01*
X155935115Y-116528464D01*
X155874229Y-116314472D01*
X155775058Y-116115311D01*
X155640981Y-115937764D01*
X155476562Y-115787876D01*
X155287401Y-115670753D01*
X155079940Y-115590382D01*
X155079939Y-115590381D01*
X155079937Y-115590381D01*
X154861243Y-115549500D01*
X154638757Y-115549500D01*
X154420062Y-115590381D01*
X154343797Y-115619926D01*
X154212599Y-115670753D01*
X154023438Y-115787876D01*
X153859020Y-115937763D01*
X153724943Y-116115309D01*
X153724938Y-116115318D01*
X153625772Y-116314469D01*
X153625771Y-116314472D01*
X153564885Y-116528464D01*
X153544357Y-116750000D01*
X149455643Y-116750000D01*
X149435115Y-116528464D01*
X149374229Y-116314472D01*
X149275058Y-116115311D01*
X149140981Y-115937764D01*
X148976562Y-115787876D01*
X148787401Y-115670753D01*
X148579940Y-115590382D01*
X148579939Y-115590381D01*
X148579937Y-115590381D01*
X148361243Y-115549500D01*
X148138757Y-115549500D01*
X147920062Y-115590381D01*
X147843797Y-115619926D01*
X147712599Y-115670753D01*
X147523438Y-115787876D01*
X147359020Y-115937763D01*
X147224943Y-116115309D01*
X147224938Y-116115318D01*
X147125772Y-116314469D01*
X147125771Y-116314472D01*
X147064885Y-116528464D01*
X147044357Y-116750000D01*
X143120000Y-116750000D01*
X143120000Y-112250001D01*
X143120000Y-112250000D01*
X126880000Y-112250000D01*
X126880000Y-112250001D01*
X126880000Y-119400500D01*
X126861093Y-119458691D01*
X126811593Y-119494655D01*
X126781000Y-119499500D01*
X100599500Y-119499500D01*
X100541309Y-119480593D01*
X100505345Y-119431093D01*
X100500500Y-119400500D01*
X100500500Y-116621289D01*
X101649500Y-116621289D01*
X101681161Y-116861781D01*
X101681161Y-116861786D01*
X101743944Y-117096092D01*
X101743948Y-117096105D01*
X101836772Y-117320204D01*
X101836774Y-117320208D01*
X101836776Y-117320212D01*
X101958064Y-117530289D01*
X101958066Y-117530292D01*
X102105729Y-117722731D01*
X102105731Y-117722733D01*
X102105735Y-117722738D01*
X102277262Y-117894265D01*
X102277266Y-117894268D01*
X102277268Y-117894270D01*
X102297270Y-117909618D01*
X102469711Y-118041936D01*
X102679788Y-118163224D01*
X102903900Y-118256054D01*
X103138211Y-118318838D01*
X103378712Y-118350500D01*
X103378713Y-118350500D01*
X103621287Y-118350500D01*
X103621288Y-118350500D01*
X103861789Y-118318838D01*
X104096100Y-118256054D01*
X104320212Y-118163224D01*
X104530289Y-118041936D01*
X104722738Y-117894265D01*
X104894265Y-117722738D01*
X105041936Y-117530289D01*
X105163224Y-117320212D01*
X105256054Y-117096100D01*
X105318838Y-116861789D01*
X105350500Y-116621288D01*
X105350500Y-116378712D01*
X105318838Y-116138211D01*
X105256054Y-115903900D01*
X105163224Y-115679788D01*
X105041936Y-115469711D01*
X104894265Y-115277262D01*
X104722738Y-115105735D01*
X104722733Y-115105731D01*
X104722731Y-115105729D01*
X104546843Y-114970766D01*
X112434500Y-114970766D01*
X112469086Y-115099847D01*
X112473720Y-115117139D01*
X112549481Y-115248360D01*
X112549483Y-115248362D01*
X112549485Y-115248365D01*
X112656635Y-115355515D01*
X112656637Y-115355516D01*
X112656639Y-115355518D01*
X112787861Y-115431279D01*
X112787859Y-115431279D01*
X112787863Y-115431280D01*
X112787865Y-115431281D01*
X112934234Y-115470500D01*
X112934236Y-115470500D01*
X113085764Y-115470500D01*
X113085766Y-115470500D01*
X113232135Y-115431281D01*
X113232137Y-115431279D01*
X113232139Y-115431279D01*
X113363360Y-115355518D01*
X113363360Y-115355517D01*
X113363365Y-115355515D01*
X113470515Y-115248365D01*
X113546281Y-115117135D01*
X113585500Y-114970766D01*
X118214500Y-114970766D01*
X118249086Y-115099847D01*
X118253720Y-115117139D01*
X118329481Y-115248360D01*
X118329483Y-115248362D01*
X118329485Y-115248365D01*
X118436635Y-115355515D01*
X118436637Y-115355516D01*
X118436639Y-115355518D01*
X118567861Y-115431279D01*
X118567859Y-115431279D01*
X118567863Y-115431280D01*
X118567865Y-115431281D01*
X118714234Y-115470500D01*
X118714236Y-115470500D01*
X118865764Y-115470500D01*
X118865766Y-115470500D01*
X119012135Y-115431281D01*
X119012137Y-115431279D01*
X119012139Y-115431279D01*
X119143360Y-115355518D01*
X119143360Y-115355517D01*
X119143365Y-115355515D01*
X119250515Y-115248365D01*
X119326281Y-115117135D01*
X119365500Y-114970766D01*
X119365500Y-114819234D01*
X119326281Y-114672865D01*
X119326279Y-114672862D01*
X119326279Y-114672860D01*
X119250518Y-114541639D01*
X119250516Y-114541637D01*
X119250515Y-114541635D01*
X119143365Y-114434485D01*
X119143362Y-114434483D01*
X119143360Y-114434481D01*
X119012138Y-114358720D01*
X119012140Y-114358720D01*
X118955347Y-114343503D01*
X118865766Y-114319500D01*
X118714234Y-114319500D01*
X118624652Y-114343503D01*
X118567860Y-114358720D01*
X118436639Y-114434481D01*
X118329481Y-114541639D01*
X118253720Y-114672860D01*
X118253719Y-114672865D01*
X118214500Y-114819234D01*
X118214500Y-114970766D01*
X113585500Y-114970766D01*
X113585500Y-114819234D01*
X113546281Y-114672865D01*
X113546279Y-114672862D01*
X113546279Y-114672860D01*
X113470518Y-114541639D01*
X113470516Y-114541637D01*
X113470515Y-114541635D01*
X113363365Y-114434485D01*
X113363362Y-114434483D01*
X113363360Y-114434481D01*
X113232138Y-114358720D01*
X113232140Y-114358720D01*
X113175347Y-114343503D01*
X113085766Y-114319500D01*
X112934234Y-114319500D01*
X112844652Y-114343503D01*
X112787860Y-114358720D01*
X112656639Y-114434481D01*
X112549481Y-114541639D01*
X112473720Y-114672860D01*
X112473719Y-114672865D01*
X112434500Y-114819234D01*
X112434500Y-114970766D01*
X104546843Y-114970766D01*
X104530292Y-114958066D01*
X104530289Y-114958064D01*
X104320212Y-114836776D01*
X104320208Y-114836774D01*
X104320204Y-114836772D01*
X104096105Y-114743948D01*
X104096104Y-114743947D01*
X104096100Y-114743946D01*
X103861789Y-114681162D01*
X103861786Y-114681161D01*
X103861784Y-114681161D01*
X103621289Y-114649500D01*
X103621288Y-114649500D01*
X103378712Y-114649500D01*
X103378710Y-114649500D01*
X103138218Y-114681161D01*
X103138213Y-114681161D01*
X102903907Y-114743944D01*
X102903894Y-114743948D01*
X102679795Y-114836772D01*
X102469707Y-114958066D01*
X102277268Y-115105729D01*
X102105729Y-115277268D01*
X101958066Y-115469707D01*
X101836772Y-115679795D01*
X101743948Y-115903894D01*
X101743944Y-115903907D01*
X101681161Y-116138213D01*
X101681161Y-116138218D01*
X101649500Y-116378710D01*
X101649500Y-116621289D01*
X100500500Y-116621289D01*
X100500500Y-112500002D01*
X115019353Y-112500002D01*
X115039834Y-112642456D01*
X115099622Y-112773371D01*
X115099623Y-112773373D01*
X115161174Y-112844407D01*
X115193873Y-112882144D01*
X115314942Y-112959950D01*
X115314947Y-112959953D01*
X115421403Y-112991211D01*
X115453035Y-113000499D01*
X115453036Y-113000499D01*
X115453039Y-113000500D01*
X115453041Y-113000500D01*
X115596959Y-113000500D01*
X115596961Y-113000500D01*
X115735053Y-112959953D01*
X115856128Y-112882143D01*
X115875601Y-112859670D01*
X115927997Y-112828073D01*
X115950421Y-112825500D01*
X116574579Y-112825500D01*
X116632770Y-112844407D01*
X116649400Y-112859670D01*
X116668872Y-112882143D01*
X116789947Y-112959953D01*
X116896403Y-112991211D01*
X116928035Y-113000499D01*
X116928036Y-113000499D01*
X116928039Y-113000500D01*
X116928041Y-113000500D01*
X117071959Y-113000500D01*
X117071961Y-113000500D01*
X117210053Y-112959953D01*
X117331128Y-112882143D01*
X117425377Y-112773373D01*
X117485165Y-112642457D01*
X117505647Y-112500000D01*
X117485165Y-112357543D01*
X117425377Y-112226627D01*
X117331128Y-112117857D01*
X117331127Y-112117856D01*
X117331126Y-112117855D01*
X117210057Y-112040049D01*
X117210054Y-112040047D01*
X117210053Y-112040047D01*
X117210050Y-112040046D01*
X117071964Y-111999500D01*
X117071961Y-111999500D01*
X116928039Y-111999500D01*
X116928035Y-111999500D01*
X116789949Y-112040046D01*
X116789942Y-112040049D01*
X116668872Y-112117856D01*
X116668871Y-112117857D01*
X116649399Y-112140330D01*
X116597003Y-112171927D01*
X116574579Y-112174500D01*
X115950421Y-112174500D01*
X115892230Y-112155593D01*
X115875601Y-112140330D01*
X115856128Y-112117857D01*
X115856127Y-112117856D01*
X115735057Y-112040049D01*
X115735054Y-112040047D01*
X115735053Y-112040047D01*
X115735050Y-112040046D01*
X115596964Y-111999500D01*
X115596961Y-111999500D01*
X115453039Y-111999500D01*
X115453035Y-111999500D01*
X115314949Y-112040046D01*
X115314942Y-112040049D01*
X115193873Y-112117855D01*
X115099622Y-112226628D01*
X115039834Y-112357543D01*
X115019353Y-112499997D01*
X115019353Y-112500002D01*
X100500500Y-112500002D01*
X100500500Y-111319746D01*
X107999500Y-111319746D01*
X107999501Y-111319758D01*
X108011132Y-111378227D01*
X108011133Y-111378231D01*
X108055448Y-111444552D01*
X108121769Y-111488867D01*
X108166231Y-111497711D01*
X108180241Y-111500498D01*
X108180246Y-111500498D01*
X108180252Y-111500500D01*
X108180253Y-111500500D01*
X109819747Y-111500500D01*
X109819748Y-111500500D01*
X109878231Y-111488867D01*
X109944552Y-111444552D01*
X109988867Y-111378231D01*
X110000500Y-111319748D01*
X110000500Y-110744002D01*
X123573353Y-110744002D01*
X123593834Y-110886456D01*
X123653622Y-111017371D01*
X123653623Y-111017373D01*
X123747872Y-111126143D01*
X123747873Y-111126144D01*
X123868942Y-111203950D01*
X123868947Y-111203953D01*
X123975403Y-111235211D01*
X124007035Y-111244499D01*
X124007036Y-111244499D01*
X124007039Y-111244500D01*
X124007041Y-111244500D01*
X124150959Y-111244500D01*
X124150961Y-111244500D01*
X124289053Y-111203953D01*
X124410128Y-111126143D01*
X124504377Y-111017373D01*
X124564165Y-110886457D01*
X124584647Y-110744000D01*
X124564165Y-110601543D01*
X124538447Y-110545229D01*
X124529500Y-110504102D01*
X124529500Y-109500003D01*
X165444417Y-109500003D01*
X165464698Y-109705929D01*
X165464699Y-109705934D01*
X165524768Y-109903954D01*
X165622316Y-110086452D01*
X165753585Y-110246404D01*
X165753590Y-110246410D01*
X165753595Y-110246414D01*
X165913547Y-110377683D01*
X165913548Y-110377683D01*
X165913550Y-110377685D01*
X166096046Y-110475232D01*
X166191219Y-110504102D01*
X166294065Y-110535300D01*
X166294070Y-110535301D01*
X166499997Y-110555583D01*
X166500000Y-110555583D01*
X166500003Y-110555583D01*
X166705929Y-110535301D01*
X166705934Y-110535300D01*
X166903954Y-110475232D01*
X167086450Y-110377685D01*
X167246410Y-110246410D01*
X167377685Y-110086450D01*
X167475232Y-109903954D01*
X167535300Y-109705934D01*
X167535301Y-109705929D01*
X167555583Y-109500003D01*
X167555583Y-109499996D01*
X167535301Y-109294070D01*
X167535300Y-109294065D01*
X167517078Y-109233997D01*
X167475232Y-109096046D01*
X167377685Y-108913550D01*
X167246410Y-108753590D01*
X167246404Y-108753585D01*
X167086452Y-108622316D01*
X166903954Y-108524768D01*
X166705934Y-108464699D01*
X166705929Y-108464698D01*
X166500003Y-108444417D01*
X166499997Y-108444417D01*
X166294070Y-108464698D01*
X166294065Y-108464699D01*
X166096045Y-108524768D01*
X165913547Y-108622316D01*
X165753595Y-108753585D01*
X165753585Y-108753595D01*
X165622316Y-108913547D01*
X165524768Y-109096045D01*
X165464699Y-109294065D01*
X165464698Y-109294070D01*
X165444417Y-109499996D01*
X165444417Y-109500003D01*
X124529500Y-109500003D01*
X124529500Y-107808897D01*
X124538446Y-107767771D01*
X124564165Y-107711457D01*
X124564165Y-107711455D01*
X124564166Y-107711454D01*
X124584647Y-107569002D01*
X124584647Y-107568997D01*
X124564165Y-107426543D01*
X124504377Y-107295628D01*
X124504377Y-107295627D01*
X124410128Y-107186857D01*
X124410127Y-107186856D01*
X124410126Y-107186855D01*
X124289057Y-107109049D01*
X124289054Y-107109047D01*
X124289053Y-107109047D01*
X124289050Y-107109046D01*
X124150964Y-107068500D01*
X124150961Y-107068500D01*
X124007039Y-107068500D01*
X124007035Y-107068500D01*
X123868949Y-107109046D01*
X123868942Y-107109049D01*
X123747873Y-107186855D01*
X123653622Y-107295628D01*
X123593834Y-107426543D01*
X123573353Y-107568997D01*
X123573353Y-107569002D01*
X123593833Y-107711454D01*
X123601804Y-107728907D01*
X123619553Y-107767771D01*
X123628500Y-107808897D01*
X123628500Y-110504102D01*
X123619553Y-110545229D01*
X123593834Y-110601543D01*
X123573353Y-110743997D01*
X123573353Y-110744002D01*
X110000500Y-110744002D01*
X110000500Y-109680252D01*
X109988867Y-109621769D01*
X109944552Y-109555448D01*
X109944548Y-109555445D01*
X109878233Y-109511134D01*
X109878231Y-109511133D01*
X109878228Y-109511132D01*
X109878227Y-109511132D01*
X109819758Y-109499501D01*
X109819748Y-109499500D01*
X108180252Y-109499500D01*
X108180251Y-109499500D01*
X108180241Y-109499501D01*
X108121772Y-109511132D01*
X108121766Y-109511134D01*
X108055451Y-109555445D01*
X108055445Y-109555451D01*
X108011134Y-109621766D01*
X108011132Y-109621772D01*
X107999501Y-109680241D01*
X107999500Y-109680253D01*
X107999500Y-111319746D01*
X100500500Y-111319746D01*
X100500500Y-100271996D01*
X144841500Y-100271996D01*
X144868420Y-100407327D01*
X144868420Y-100407329D01*
X144921223Y-100534808D01*
X144921224Y-100534810D01*
X144921225Y-100534811D01*
X144997886Y-100649543D01*
X150556457Y-106208114D01*
X150671189Y-106284775D01*
X150671190Y-106284775D01*
X150671191Y-106284776D01*
X150720488Y-106305195D01*
X150798671Y-106337580D01*
X150825587Y-106342933D01*
X150825590Y-106342935D01*
X150825591Y-106342934D01*
X150934007Y-106364500D01*
X150934008Y-106364500D01*
X156786992Y-106364500D01*
X156786993Y-106364500D01*
X156922328Y-106337580D01*
X157049811Y-106284775D01*
X157164542Y-106208114D01*
X157262114Y-106110542D01*
X157338775Y-105995811D01*
X157391580Y-105868328D01*
X157418500Y-105732993D01*
X157418500Y-105595007D01*
X157391580Y-105459672D01*
X157338775Y-105332189D01*
X157338774Y-105332187D01*
X157338771Y-105332182D01*
X157262114Y-105217458D01*
X157164541Y-105119885D01*
X157049817Y-105043228D01*
X157049806Y-105043222D01*
X156922328Y-104990420D01*
X156786995Y-104963500D01*
X156786993Y-104963500D01*
X151334165Y-104963500D01*
X151275974Y-104944593D01*
X151264161Y-104934504D01*
X148399660Y-102070003D01*
X152894659Y-102070003D01*
X152913974Y-102266126D01*
X152913975Y-102266129D01*
X152971187Y-102454730D01*
X152971188Y-102454732D01*
X153042218Y-102587618D01*
X153064090Y-102628538D01*
X153064092Y-102628540D01*
X153064093Y-102628542D01*
X153189112Y-102780878D01*
X153189121Y-102780887D01*
X153341457Y-102905906D01*
X153341462Y-102905910D01*
X153515273Y-102998814D01*
X153703868Y-103056024D01*
X153703870Y-103056024D01*
X153703873Y-103056025D01*
X153899997Y-103075341D01*
X153900000Y-103075341D01*
X153900003Y-103075341D01*
X154096126Y-103056025D01*
X154096127Y-103056024D01*
X154096132Y-103056024D01*
X154284727Y-102998814D01*
X154458538Y-102905910D01*
X154610883Y-102780883D01*
X154735910Y-102628538D01*
X154828814Y-102454727D01*
X154886024Y-102266132D01*
X154905160Y-102071843D01*
X154905341Y-102070003D01*
X154905341Y-102069996D01*
X154886025Y-101873873D01*
X154886024Y-101873870D01*
X154886024Y-101873868D01*
X154828814Y-101685273D01*
X154735910Y-101511462D01*
X154735906Y-101511457D01*
X154610887Y-101359121D01*
X154610878Y-101359112D01*
X154458542Y-101234093D01*
X154458540Y-101234092D01*
X154458538Y-101234090D01*
X154417618Y-101212218D01*
X154284732Y-101141188D01*
X154284730Y-101141187D01*
X154096129Y-101083975D01*
X154096126Y-101083974D01*
X153900003Y-101064659D01*
X153899997Y-101064659D01*
X153703873Y-101083974D01*
X153703870Y-101083975D01*
X153515269Y-101141187D01*
X153515267Y-101141188D01*
X153341467Y-101234087D01*
X153341457Y-101234093D01*
X153189121Y-101359112D01*
X153189112Y-101359121D01*
X153064093Y-101511457D01*
X153064087Y-101511467D01*
X152971188Y-101685267D01*
X152971187Y-101685269D01*
X152913975Y-101873870D01*
X152913974Y-101873873D01*
X152894659Y-102069996D01*
X152894659Y-102070003D01*
X148399660Y-102070003D01*
X146271496Y-99941839D01*
X146243719Y-99887322D01*
X146242500Y-99871835D01*
X146242500Y-99636995D01*
X147127500Y-99636995D01*
X147154420Y-99772327D01*
X147154420Y-99772329D01*
X147207222Y-99899806D01*
X147207228Y-99899817D01*
X147283885Y-100014541D01*
X147381458Y-100112114D01*
X147496182Y-100188771D01*
X147496193Y-100188777D01*
X147543283Y-100208282D01*
X147623672Y-100241580D01*
X147759007Y-100268500D01*
X153187345Y-100268500D01*
X153245536Y-100287407D01*
X153250150Y-100290972D01*
X153341462Y-100365910D01*
X153341466Y-100365912D01*
X153341473Y-100365917D01*
X153515267Y-100458811D01*
X153515273Y-100458814D01*
X153703868Y-100516024D01*
X153703870Y-100516024D01*
X153703873Y-100516025D01*
X153899997Y-100535341D01*
X153900000Y-100535341D01*
X153900003Y-100535341D01*
X154096126Y-100516025D01*
X154096127Y-100516024D01*
X154096132Y-100516024D01*
X154284727Y-100458814D01*
X154458538Y-100365910D01*
X154610883Y-100240883D01*
X154735910Y-100088538D01*
X154828814Y-99914727D01*
X154886024Y-99726132D01*
X154894804Y-99636993D01*
X154905341Y-99530003D01*
X154905341Y-99529996D01*
X154886025Y-99333873D01*
X154886024Y-99333870D01*
X154886024Y-99333868D01*
X154828814Y-99145273D01*
X154735910Y-98971462D01*
X154672683Y-98894420D01*
X154610887Y-98819121D01*
X154610878Y-98819112D01*
X154458542Y-98694093D01*
X154458540Y-98694092D01*
X154458538Y-98694090D01*
X154417618Y-98672218D01*
X154284732Y-98601188D01*
X154284730Y-98601187D01*
X154096129Y-98543975D01*
X154096126Y-98543974D01*
X153900003Y-98524659D01*
X153899997Y-98524659D01*
X153703873Y-98543974D01*
X153703870Y-98543975D01*
X153515269Y-98601187D01*
X153515267Y-98601188D01*
X153341467Y-98694087D01*
X153341457Y-98694093D01*
X153189121Y-98819112D01*
X153189108Y-98819125D01*
X153179114Y-98831304D01*
X153127583Y-98864292D01*
X153102586Y-98867500D01*
X147759004Y-98867500D01*
X147623672Y-98894420D01*
X147623670Y-98894420D01*
X147496193Y-98947222D01*
X147496182Y-98947228D01*
X147381458Y-99023885D01*
X147283885Y-99121458D01*
X147207228Y-99236182D01*
X147207222Y-99236193D01*
X147154420Y-99363670D01*
X147154420Y-99363672D01*
X147127500Y-99499004D01*
X147127500Y-99636995D01*
X146242500Y-99636995D01*
X146242500Y-99118008D01*
X146242499Y-99118004D01*
X146215580Y-98982672D01*
X146179025Y-98894420D01*
X146162777Y-98855193D01*
X146162771Y-98855182D01*
X146086114Y-98740458D01*
X145988541Y-98642885D01*
X145873817Y-98566228D01*
X145873806Y-98566222D01*
X145746328Y-98513420D01*
X145610995Y-98486500D01*
X145610993Y-98486500D01*
X145473007Y-98486500D01*
X145473004Y-98486500D01*
X145337672Y-98513420D01*
X145337670Y-98513420D01*
X145210193Y-98566222D01*
X145210182Y-98566228D01*
X145095458Y-98642885D01*
X144997885Y-98740458D01*
X144921228Y-98855182D01*
X144921222Y-98855193D01*
X144868420Y-98982670D01*
X144868420Y-98982672D01*
X144841500Y-99118004D01*
X144841500Y-100271996D01*
X100500500Y-100271996D01*
X100500500Y-96990003D01*
X152894659Y-96990003D01*
X152913974Y-97186126D01*
X152913975Y-97186129D01*
X152971187Y-97374730D01*
X152971188Y-97374732D01*
X153042218Y-97507618D01*
X153064090Y-97548538D01*
X153064092Y-97548540D01*
X153064093Y-97548542D01*
X153189112Y-97700878D01*
X153189121Y-97700887D01*
X153203847Y-97712972D01*
X153341462Y-97825910D01*
X153515273Y-97918814D01*
X153703868Y-97976024D01*
X153703870Y-97976024D01*
X153703873Y-97976025D01*
X153899997Y-97995341D01*
X153900000Y-97995341D01*
X153900003Y-97995341D01*
X154096126Y-97976025D01*
X154096127Y-97976024D01*
X154096132Y-97976024D01*
X154284727Y-97918814D01*
X154458538Y-97825910D01*
X154610883Y-97700883D01*
X154735910Y-97548538D01*
X154828814Y-97374727D01*
X154886024Y-97186132D01*
X154905341Y-96990000D01*
X154905341Y-96989996D01*
X154886025Y-96793873D01*
X154886024Y-96793870D01*
X154886024Y-96793868D01*
X154828814Y-96605273D01*
X154735910Y-96431462D01*
X154735906Y-96431457D01*
X154610887Y-96279121D01*
X154610878Y-96279112D01*
X154458542Y-96154093D01*
X154458540Y-96154092D01*
X154458538Y-96154090D01*
X154417618Y-96132218D01*
X154284732Y-96061188D01*
X154284730Y-96061187D01*
X154096129Y-96003975D01*
X154096126Y-96003974D01*
X153900003Y-95984659D01*
X153899997Y-95984659D01*
X153703873Y-96003974D01*
X153703870Y-96003975D01*
X153515269Y-96061187D01*
X153515267Y-96061188D01*
X153341467Y-96154087D01*
X153341457Y-96154093D01*
X153189121Y-96279112D01*
X153189112Y-96279121D01*
X153064093Y-96431457D01*
X153064087Y-96431467D01*
X152971188Y-96605267D01*
X152971187Y-96605269D01*
X152913975Y-96793870D01*
X152913974Y-96793873D01*
X152894659Y-96989996D01*
X152894659Y-96990003D01*
X100500500Y-96990003D01*
X100500500Y-95250002D01*
X106301353Y-95250002D01*
X106321834Y-95392456D01*
X106381622Y-95523371D01*
X106381623Y-95523373D01*
X106475872Y-95632143D01*
X106475873Y-95632144D01*
X106596942Y-95709950D01*
X106596947Y-95709953D01*
X106703403Y-95741211D01*
X106735035Y-95750499D01*
X106735036Y-95750499D01*
X106735039Y-95750500D01*
X106735041Y-95750500D01*
X106878959Y-95750500D01*
X106878961Y-95750500D01*
X107017053Y-95709953D01*
X107138128Y-95632143D01*
X107232377Y-95523373D01*
X107276777Y-95426149D01*
X107296823Y-95397278D01*
X107834608Y-94859496D01*
X107889124Y-94831719D01*
X107904611Y-94830500D01*
X123172712Y-94830500D01*
X123208083Y-94838195D01*
X123208153Y-94837958D01*
X123211468Y-94838931D01*
X123213838Y-94839447D01*
X123214943Y-94839951D01*
X123214944Y-94839951D01*
X123214947Y-94839953D01*
X123328939Y-94873423D01*
X123353035Y-94880499D01*
X123353036Y-94880499D01*
X123353039Y-94880500D01*
X123353041Y-94880500D01*
X123496959Y-94880500D01*
X123496961Y-94880500D01*
X123635053Y-94839953D01*
X123756128Y-94762143D01*
X123850377Y-94653373D01*
X123910165Y-94522457D01*
X123930647Y-94380000D01*
X123910165Y-94237543D01*
X123850377Y-94106627D01*
X123756128Y-93997857D01*
X123756127Y-93997856D01*
X123756126Y-93997855D01*
X123635057Y-93920049D01*
X123635054Y-93920047D01*
X123635053Y-93920047D01*
X123635050Y-93920046D01*
X123496964Y-93879500D01*
X123496961Y-93879500D01*
X123353039Y-93879500D01*
X123353035Y-93879500D01*
X123214943Y-93920048D01*
X123213838Y-93920553D01*
X123211468Y-93921068D01*
X123208153Y-93922042D01*
X123208083Y-93921804D01*
X123172712Y-93929500D01*
X107617691Y-93929500D01*
X107572508Y-93941606D01*
X107527325Y-93953713D01*
X107527324Y-93953712D01*
X107503115Y-93960200D01*
X107503113Y-93960200D01*
X107503113Y-93960201D01*
X107437891Y-93997857D01*
X107400383Y-94019512D01*
X106661391Y-94758503D01*
X106619281Y-94783488D01*
X106596949Y-94790045D01*
X106596947Y-94790046D01*
X106475873Y-94867855D01*
X106381622Y-94976628D01*
X106321834Y-95107543D01*
X106301353Y-95249997D01*
X106301353Y-95250002D01*
X100500500Y-95250002D01*
X100500500Y-91024858D01*
X142999500Y-91024858D01*
X142999501Y-91024870D01*
X143011132Y-91083339D01*
X143011133Y-91083343D01*
X143055448Y-91149664D01*
X143121769Y-91193979D01*
X143166231Y-91202823D01*
X143180241Y-91205610D01*
X143180246Y-91205610D01*
X143180252Y-91205612D01*
X143180253Y-91205612D01*
X144819747Y-91205612D01*
X144819748Y-91205612D01*
X144878231Y-91193979D01*
X144944552Y-91149664D01*
X144988867Y-91083343D01*
X145000500Y-91024860D01*
X145000500Y-89385364D01*
X144997445Y-89370003D01*
X152894659Y-89370003D01*
X152913974Y-89566126D01*
X152913975Y-89566129D01*
X152971187Y-89754730D01*
X152971188Y-89754732D01*
X153042218Y-89887618D01*
X153064090Y-89928538D01*
X153064092Y-89928540D01*
X153064093Y-89928542D01*
X153189112Y-90080878D01*
X153189121Y-90080887D01*
X153341457Y-90205906D01*
X153341462Y-90205910D01*
X153515273Y-90298814D01*
X153703868Y-90356024D01*
X153703870Y-90356024D01*
X153703873Y-90356025D01*
X153899997Y-90375341D01*
X153900000Y-90375341D01*
X153900003Y-90375341D01*
X154096126Y-90356025D01*
X154096127Y-90356024D01*
X154096132Y-90356024D01*
X154284727Y-90298814D01*
X154458538Y-90205910D01*
X154547753Y-90132692D01*
X154604728Y-90110393D01*
X154663931Y-90125841D01*
X154680561Y-90139217D01*
X155480504Y-90939160D01*
X155508281Y-90993677D01*
X155509500Y-91009164D01*
X155509500Y-102430996D01*
X155536420Y-102566327D01*
X155536420Y-102566329D01*
X155589223Y-102693808D01*
X155640466Y-102770500D01*
X155665886Y-102808543D01*
X160361457Y-107504114D01*
X160476189Y-107580775D01*
X160603672Y-107633580D01*
X160739006Y-107660500D01*
X160739007Y-107660500D01*
X165350500Y-107660500D01*
X165408691Y-107679407D01*
X165444655Y-107728907D01*
X165449500Y-107759500D01*
X165449500Y-107829746D01*
X165449501Y-107829758D01*
X165461132Y-107888227D01*
X165461133Y-107888231D01*
X165505448Y-107954552D01*
X165571769Y-107998867D01*
X165616231Y-108007711D01*
X165630241Y-108010498D01*
X165630246Y-108010498D01*
X165630252Y-108010500D01*
X165630253Y-108010500D01*
X167369747Y-108010500D01*
X167369748Y-108010500D01*
X167428231Y-107998867D01*
X167494552Y-107954552D01*
X167538867Y-107888231D01*
X167550500Y-107829748D01*
X167550500Y-106090252D01*
X167538867Y-106031769D01*
X167494552Y-105965448D01*
X167494548Y-105965445D01*
X167428233Y-105921134D01*
X167428231Y-105921133D01*
X167428228Y-105921132D01*
X167428227Y-105921132D01*
X167369758Y-105909501D01*
X167369748Y-105909500D01*
X165630252Y-105909500D01*
X165630251Y-105909500D01*
X165630241Y-105909501D01*
X165571772Y-105921132D01*
X165571766Y-105921134D01*
X165505451Y-105965445D01*
X165505445Y-105965451D01*
X165461134Y-106031766D01*
X165461132Y-106031772D01*
X165449501Y-106090241D01*
X165449500Y-106090253D01*
X165449500Y-106160500D01*
X165430593Y-106218691D01*
X165381093Y-106254655D01*
X165350500Y-106259500D01*
X161139165Y-106259500D01*
X161080974Y-106240593D01*
X161069161Y-106230504D01*
X156939496Y-102100839D01*
X156911719Y-102046322D01*
X156910500Y-102030835D01*
X156910500Y-90609008D01*
X156910499Y-90609004D01*
X156908874Y-90600835D01*
X156883580Y-90473672D01*
X156830775Y-90346189D01*
X156830774Y-90346187D01*
X156830771Y-90346182D01*
X156754114Y-90231458D01*
X156088782Y-89566126D01*
X155348543Y-88825886D01*
X155326963Y-88811467D01*
X155233808Y-88749223D01*
X155106328Y-88696420D01*
X154970996Y-88669500D01*
X154970994Y-88669500D01*
X154970993Y-88669500D01*
X154658957Y-88669500D01*
X154600766Y-88650593D01*
X154596162Y-88647035D01*
X154458538Y-88534090D01*
X154417618Y-88512218D01*
X154284732Y-88441188D01*
X154284730Y-88441187D01*
X154096129Y-88383975D01*
X154096126Y-88383974D01*
X153900003Y-88364659D01*
X153899997Y-88364659D01*
X153703873Y-88383974D01*
X153703870Y-88383975D01*
X153515269Y-88441187D01*
X153515267Y-88441188D01*
X153341467Y-88534087D01*
X153341457Y-88534093D01*
X153189121Y-88659112D01*
X153189112Y-88659121D01*
X153064093Y-88811457D01*
X153064087Y-88811467D01*
X152971188Y-88985267D01*
X152971187Y-88985269D01*
X152913975Y-89173870D01*
X152913974Y-89173873D01*
X152894659Y-89369996D01*
X152894659Y-89370003D01*
X144997445Y-89370003D01*
X144988867Y-89326881D01*
X144944552Y-89260560D01*
X144944548Y-89260557D01*
X144878233Y-89216246D01*
X144878231Y-89216245D01*
X144878228Y-89216244D01*
X144878227Y-89216244D01*
X144819758Y-89204613D01*
X144819748Y-89204612D01*
X143180252Y-89204612D01*
X143180251Y-89204612D01*
X143180241Y-89204613D01*
X143121772Y-89216244D01*
X143121766Y-89216246D01*
X143055451Y-89260557D01*
X143055445Y-89260563D01*
X143011134Y-89326878D01*
X143011132Y-89326884D01*
X142999501Y-89385353D01*
X142999500Y-89385365D01*
X142999500Y-91024858D01*
X100500500Y-91024858D01*
X100500500Y-86830003D01*
X152894659Y-86830003D01*
X152913974Y-87026126D01*
X152913975Y-87026129D01*
X152971187Y-87214730D01*
X152971188Y-87214732D01*
X153042218Y-87347618D01*
X153064090Y-87388538D01*
X153064092Y-87388540D01*
X153064093Y-87388542D01*
X153189112Y-87540878D01*
X153189121Y-87540887D01*
X153341457Y-87665906D01*
X153341462Y-87665910D01*
X153515273Y-87758814D01*
X153703868Y-87816024D01*
X153703870Y-87816024D01*
X153703873Y-87816025D01*
X153899997Y-87835341D01*
X153900000Y-87835341D01*
X153900003Y-87835341D01*
X154096126Y-87816025D01*
X154096127Y-87816024D01*
X154096132Y-87816024D01*
X154284727Y-87758814D01*
X154458538Y-87665910D01*
X154610883Y-87540883D01*
X154735910Y-87388538D01*
X154828814Y-87214727D01*
X154886024Y-87026132D01*
X154886759Y-87018677D01*
X154905341Y-86830003D01*
X154905341Y-86829996D01*
X154886025Y-86633873D01*
X154886024Y-86633870D01*
X154886024Y-86633868D01*
X154828814Y-86445273D01*
X154735910Y-86271462D01*
X154735906Y-86271457D01*
X154610887Y-86119121D01*
X154610878Y-86119112D01*
X154458542Y-85994093D01*
X154458540Y-85994092D01*
X154458538Y-85994090D01*
X154417618Y-85972218D01*
X154284732Y-85901188D01*
X154284730Y-85901187D01*
X154096129Y-85843975D01*
X154096126Y-85843974D01*
X153900003Y-85824659D01*
X153899997Y-85824659D01*
X153703873Y-85843974D01*
X153703870Y-85843975D01*
X153515269Y-85901187D01*
X153515267Y-85901188D01*
X153341467Y-85994087D01*
X153341457Y-85994093D01*
X153189121Y-86119112D01*
X153189112Y-86119121D01*
X153064093Y-86271457D01*
X153064087Y-86271467D01*
X152971188Y-86445267D01*
X152971187Y-86445269D01*
X152913975Y-86633870D01*
X152913974Y-86633873D01*
X152894659Y-86829996D01*
X152894659Y-86830003D01*
X100500500Y-86830003D01*
X100500500Y-83024858D01*
X103204612Y-83024858D01*
X103204613Y-83024870D01*
X103216244Y-83083339D01*
X103216245Y-83083343D01*
X103260560Y-83149664D01*
X103326881Y-83193979D01*
X103371343Y-83202823D01*
X103385353Y-83205610D01*
X103385358Y-83205610D01*
X103385364Y-83205612D01*
X103385365Y-83205612D01*
X105024859Y-83205612D01*
X105024860Y-83205612D01*
X105083343Y-83193979D01*
X105149664Y-83149664D01*
X105193979Y-83083343D01*
X105205612Y-83024860D01*
X105205612Y-83004612D01*
X105224519Y-82946421D01*
X105274019Y-82910457D01*
X105304612Y-82905612D01*
X134431007Y-82905612D01*
X151483947Y-82905612D01*
X151542138Y-82924519D01*
X151553951Y-82934608D01*
X152870504Y-84251161D01*
X152898281Y-84305678D01*
X152899500Y-84321165D01*
X152899500Y-85109746D01*
X152899501Y-85109758D01*
X152911132Y-85168227D01*
X152911134Y-85168233D01*
X152953788Y-85232068D01*
X152955448Y-85234552D01*
X153021769Y-85278867D01*
X153066231Y-85287711D01*
X153080241Y-85290498D01*
X153080246Y-85290498D01*
X153080252Y-85290500D01*
X153080253Y-85290500D01*
X154719747Y-85290500D01*
X154719748Y-85290500D01*
X154778231Y-85278867D01*
X154844552Y-85234552D01*
X154888867Y-85168231D01*
X154900500Y-85109748D01*
X154900500Y-85089500D01*
X154919407Y-85031309D01*
X154968907Y-84995345D01*
X154999500Y-84990500D01*
X155243835Y-84990500D01*
X155302026Y-85009407D01*
X155313839Y-85019496D01*
X157258504Y-86964160D01*
X157286281Y-87018677D01*
X157287500Y-87034164D01*
X157287500Y-100652996D01*
X157314420Y-100788327D01*
X157314420Y-100788329D01*
X157367223Y-100915808D01*
X157367224Y-100915810D01*
X157367225Y-100915811D01*
X157443886Y-101030543D01*
X158287212Y-101873868D01*
X159027458Y-102614114D01*
X159142182Y-102690771D01*
X159142186Y-102690773D01*
X159142189Y-102690775D01*
X159213952Y-102720500D01*
X159269671Y-102743580D01*
X159296587Y-102748933D01*
X159296590Y-102748935D01*
X159296591Y-102748934D01*
X159405007Y-102770500D01*
X160761043Y-102770500D01*
X160819234Y-102789407D01*
X160823837Y-102792964D01*
X160961462Y-102905910D01*
X161135273Y-102998814D01*
X161323868Y-103056024D01*
X161323870Y-103056024D01*
X161323873Y-103056025D01*
X161519997Y-103075341D01*
X161520000Y-103075341D01*
X161520003Y-103075341D01*
X161716126Y-103056025D01*
X161716127Y-103056024D01*
X161716132Y-103056024D01*
X161904727Y-102998814D01*
X162078538Y-102905910D01*
X162230883Y-102780883D01*
X162355910Y-102628538D01*
X162448814Y-102454727D01*
X162506024Y-102266132D01*
X162525160Y-102071843D01*
X162525341Y-102070003D01*
X162525341Y-102069996D01*
X162506025Y-101873873D01*
X162506024Y-101873870D01*
X162506024Y-101873868D01*
X162448814Y-101685273D01*
X162355910Y-101511462D01*
X162355906Y-101511457D01*
X162230887Y-101359121D01*
X162230878Y-101359112D01*
X162078542Y-101234093D01*
X162078540Y-101234092D01*
X162078538Y-101234090D01*
X162037618Y-101212218D01*
X161904732Y-101141188D01*
X161904730Y-101141187D01*
X161716129Y-101083975D01*
X161716126Y-101083974D01*
X161520003Y-101064659D01*
X161519997Y-101064659D01*
X161323873Y-101083974D01*
X161323870Y-101083975D01*
X161135269Y-101141187D01*
X161135267Y-101141188D01*
X160961467Y-101234087D01*
X160961457Y-101234093D01*
X160865922Y-101312498D01*
X160823846Y-101347028D01*
X160766872Y-101369328D01*
X160761043Y-101369500D01*
X159805164Y-101369500D01*
X159746973Y-101350593D01*
X159735160Y-101340504D01*
X158717496Y-100322839D01*
X158689719Y-100268322D01*
X158688500Y-100252835D01*
X158688500Y-99530003D01*
X160514659Y-99530003D01*
X160533974Y-99726126D01*
X160533975Y-99726129D01*
X160533976Y-99726132D01*
X160590614Y-99912843D01*
X160591187Y-99914730D01*
X160591188Y-99914732D01*
X160644538Y-100014541D01*
X160684090Y-100088538D01*
X160684092Y-100088540D01*
X160684093Y-100088542D01*
X160809112Y-100240878D01*
X160809121Y-100240887D01*
X160908980Y-100322839D01*
X160961462Y-100365910D01*
X161135273Y-100458814D01*
X161323868Y-100516024D01*
X161323870Y-100516024D01*
X161323873Y-100516025D01*
X161519997Y-100535341D01*
X161520000Y-100535341D01*
X161520003Y-100535341D01*
X161716126Y-100516025D01*
X161716127Y-100516024D01*
X161716132Y-100516024D01*
X161904727Y-100458814D01*
X162078538Y-100365910D01*
X162230883Y-100240883D01*
X162355910Y-100088538D01*
X162448814Y-99914727D01*
X162506024Y-99726132D01*
X162514804Y-99636993D01*
X162525341Y-99530003D01*
X162525341Y-99529996D01*
X162506025Y-99333873D01*
X162506024Y-99333870D01*
X162506024Y-99333868D01*
X162448814Y-99145273D01*
X162355910Y-98971462D01*
X162292683Y-98894420D01*
X162230887Y-98819121D01*
X162230878Y-98819112D01*
X162078542Y-98694093D01*
X162078540Y-98694092D01*
X162078538Y-98694090D01*
X162037618Y-98672218D01*
X161904732Y-98601188D01*
X161904730Y-98601187D01*
X161716129Y-98543975D01*
X161716126Y-98543974D01*
X161520003Y-98524659D01*
X161519997Y-98524659D01*
X161323873Y-98543974D01*
X161323870Y-98543975D01*
X161135269Y-98601187D01*
X161135267Y-98601188D01*
X160961467Y-98694087D01*
X160961457Y-98694093D01*
X160809121Y-98819112D01*
X160809112Y-98819121D01*
X160684093Y-98971457D01*
X160684087Y-98971467D01*
X160591188Y-99145267D01*
X160591187Y-99145269D01*
X160533975Y-99333870D01*
X160533974Y-99333873D01*
X160514659Y-99529996D01*
X160514659Y-99530003D01*
X158688500Y-99530003D01*
X158688500Y-86634008D01*
X158688499Y-86634004D01*
X158688473Y-86633873D01*
X158661580Y-86498672D01*
X158643978Y-86456177D01*
X158608777Y-86371193D01*
X158608771Y-86371182D01*
X158532114Y-86256458D01*
X158434542Y-86158886D01*
X157435161Y-85159504D01*
X157407384Y-85104987D01*
X157416955Y-85044555D01*
X157460220Y-85001290D01*
X157505165Y-84990500D01*
X160761043Y-84990500D01*
X160819234Y-85009407D01*
X160823837Y-85012964D01*
X160961462Y-85125910D01*
X161135273Y-85218814D01*
X161323868Y-85276024D01*
X161323870Y-85276024D01*
X161323873Y-85276025D01*
X161519997Y-85295341D01*
X161520000Y-85295341D01*
X161520003Y-85295341D01*
X161716126Y-85276025D01*
X161716127Y-85276024D01*
X161716132Y-85276024D01*
X161864993Y-85230867D01*
X161926164Y-85232068D01*
X161974948Y-85268996D01*
X161992710Y-85327547D01*
X161972664Y-85385355D01*
X161963733Y-85395608D01*
X161561334Y-85798007D01*
X161506817Y-85825784D01*
X161501034Y-85826526D01*
X161323872Y-85843974D01*
X161323870Y-85843975D01*
X161135269Y-85901187D01*
X161135267Y-85901188D01*
X160961467Y-85994087D01*
X160961457Y-85994093D01*
X160809121Y-86119112D01*
X160809112Y-86119121D01*
X160684093Y-86271457D01*
X160684087Y-86271467D01*
X160591188Y-86445267D01*
X160591187Y-86445269D01*
X160533975Y-86633870D01*
X160533974Y-86633873D01*
X160514659Y-86829996D01*
X160514659Y-86830003D01*
X160533974Y-87026126D01*
X160533975Y-87026129D01*
X160591187Y-87214730D01*
X160591188Y-87214732D01*
X160662218Y-87347618D01*
X160684090Y-87388538D01*
X160684092Y-87388540D01*
X160684093Y-87388542D01*
X160809112Y-87540878D01*
X160809121Y-87540887D01*
X160961457Y-87665906D01*
X160961462Y-87665910D01*
X161135273Y-87758814D01*
X161323868Y-87816024D01*
X161323870Y-87816024D01*
X161323873Y-87816025D01*
X161519997Y-87835341D01*
X161520000Y-87835341D01*
X161520003Y-87835341D01*
X161716126Y-87816025D01*
X161716127Y-87816024D01*
X161716132Y-87816024D01*
X161864993Y-87770867D01*
X161926164Y-87772068D01*
X161974948Y-87808996D01*
X161992710Y-87867547D01*
X161972664Y-87925355D01*
X161963733Y-87935608D01*
X161561334Y-88338007D01*
X161506817Y-88365784D01*
X161501034Y-88366526D01*
X161323872Y-88383974D01*
X161323870Y-88383975D01*
X161135269Y-88441187D01*
X161135267Y-88441188D01*
X160961467Y-88534087D01*
X160961457Y-88534093D01*
X160809121Y-88659112D01*
X160809112Y-88659121D01*
X160684093Y-88811457D01*
X160684087Y-88811467D01*
X160591188Y-88985267D01*
X160591187Y-88985269D01*
X160533975Y-89173870D01*
X160533974Y-89173873D01*
X160514659Y-89369996D01*
X160514659Y-89370003D01*
X160533974Y-89566126D01*
X160533975Y-89566129D01*
X160591187Y-89754730D01*
X160591188Y-89754732D01*
X160662218Y-89887618D01*
X160684090Y-89928538D01*
X160684092Y-89928540D01*
X160684093Y-89928542D01*
X160809112Y-90080878D01*
X160809121Y-90080887D01*
X160961457Y-90205906D01*
X160961462Y-90205910D01*
X161135273Y-90298814D01*
X161323868Y-90356024D01*
X161323870Y-90356024D01*
X161323873Y-90356025D01*
X161519997Y-90375341D01*
X161520000Y-90375341D01*
X161520003Y-90375341D01*
X161716126Y-90356025D01*
X161716127Y-90356024D01*
X161716132Y-90356024D01*
X161904727Y-90298814D01*
X162078538Y-90205910D01*
X162230883Y-90080883D01*
X162355910Y-89928538D01*
X162448814Y-89754727D01*
X162506024Y-89566132D01*
X162523473Y-89388963D01*
X162547992Y-89332907D01*
X162551975Y-89328680D01*
X167044114Y-84836543D01*
X167120775Y-84721811D01*
X167173580Y-84594328D01*
X167200500Y-84458993D01*
X167200500Y-84321006D01*
X167200500Y-83830910D01*
X167219407Y-83772719D01*
X167236698Y-83754380D01*
X167246410Y-83746410D01*
X167377685Y-83586450D01*
X167475232Y-83403954D01*
X167535300Y-83205934D01*
X167535301Y-83205929D01*
X167555583Y-83000003D01*
X167555583Y-82999996D01*
X167535301Y-82794070D01*
X167535300Y-82794065D01*
X167517078Y-82733997D01*
X167475232Y-82596046D01*
X167377685Y-82413550D01*
X167246410Y-82253590D01*
X167246404Y-82253585D01*
X167086452Y-82122316D01*
X166903954Y-82024768D01*
X166705934Y-81964699D01*
X166705929Y-81964698D01*
X166500003Y-81944417D01*
X166499997Y-81944417D01*
X166294070Y-81964698D01*
X166294065Y-81964699D01*
X166096045Y-82024768D01*
X165913547Y-82122316D01*
X165753595Y-82253585D01*
X165753585Y-82253595D01*
X165622316Y-82413547D01*
X165524768Y-82596045D01*
X165464699Y-82794065D01*
X165464698Y-82794070D01*
X165444417Y-82999996D01*
X165444417Y-83000003D01*
X165464698Y-83205929D01*
X165464699Y-83205934D01*
X165524768Y-83403954D01*
X165622316Y-83586452D01*
X165741327Y-83731467D01*
X165753590Y-83746410D01*
X165753595Y-83746414D01*
X165753596Y-83746415D01*
X165763302Y-83754380D01*
X165796291Y-83805910D01*
X165799500Y-83830910D01*
X165799500Y-84058834D01*
X165780593Y-84117025D01*
X165770504Y-84128838D01*
X162625608Y-87273733D01*
X162571091Y-87301510D01*
X162510659Y-87291939D01*
X162467394Y-87248674D01*
X162457823Y-87188242D01*
X162460863Y-87175005D01*
X162506024Y-87026132D01*
X162506759Y-87018677D01*
X162523473Y-86848964D01*
X162547992Y-86792907D01*
X162551975Y-86788680D01*
X164247114Y-85093543D01*
X164323775Y-84978811D01*
X164376580Y-84851329D01*
X164381934Y-84824409D01*
X164403500Y-84715993D01*
X164403500Y-81338007D01*
X164376580Y-81202672D01*
X164323776Y-81075191D01*
X164323776Y-81075190D01*
X164276284Y-81004114D01*
X164276283Y-81004112D01*
X164247118Y-80960462D01*
X164247116Y-80960460D01*
X164247114Y-80960457D01*
X162879543Y-79592886D01*
X162875602Y-79590253D01*
X162764808Y-79516223D01*
X162637328Y-79463420D01*
X162501996Y-79436500D01*
X162501994Y-79436500D01*
X162501993Y-79436500D01*
X150807007Y-79436500D01*
X150807004Y-79436500D01*
X150671672Y-79463420D01*
X150671670Y-79463420D01*
X150544193Y-79516222D01*
X150544182Y-79516228D01*
X150429458Y-79592885D01*
X150331885Y-79690458D01*
X150255228Y-79805182D01*
X150255222Y-79805193D01*
X150202420Y-79932670D01*
X150202420Y-79932672D01*
X150175500Y-80068004D01*
X150175500Y-80205995D01*
X150202420Y-80341327D01*
X150202420Y-80341329D01*
X150255222Y-80468806D01*
X150255228Y-80468817D01*
X150331885Y-80583541D01*
X150429458Y-80681114D01*
X150544182Y-80757771D01*
X150544193Y-80757777D01*
X150591283Y-80777282D01*
X150671672Y-80810580D01*
X150807007Y-80837500D01*
X162101835Y-80837500D01*
X162160026Y-80856407D01*
X162171839Y-80866496D01*
X162973504Y-81668161D01*
X163001281Y-81722678D01*
X163002500Y-81738165D01*
X163002500Y-84315834D01*
X162983593Y-84374025D01*
X162973504Y-84385838D01*
X162625608Y-84733734D01*
X162571091Y-84761511D01*
X162510659Y-84751940D01*
X162467394Y-84708675D01*
X162457823Y-84648243D01*
X162460864Y-84635002D01*
X162506024Y-84486132D01*
X162508698Y-84458991D01*
X162525341Y-84290003D01*
X162525341Y-84289996D01*
X162506025Y-84093873D01*
X162506024Y-84093870D01*
X162506024Y-84093868D01*
X162448814Y-83905273D01*
X162355910Y-83731462D01*
X162355906Y-83731457D01*
X162230887Y-83579121D01*
X162230878Y-83579112D01*
X162078542Y-83454093D01*
X162078540Y-83454092D01*
X162078538Y-83454090D01*
X161999361Y-83411769D01*
X161904732Y-83361188D01*
X161904730Y-83361187D01*
X161716129Y-83303975D01*
X161716126Y-83303974D01*
X161520003Y-83284659D01*
X161519997Y-83284659D01*
X161323873Y-83303974D01*
X161323870Y-83303975D01*
X161135269Y-83361187D01*
X161135267Y-83361188D01*
X160961467Y-83454087D01*
X160961457Y-83454093D01*
X160879819Y-83521093D01*
X160823846Y-83567028D01*
X160766872Y-83589328D01*
X160761043Y-83589500D01*
X154999500Y-83589500D01*
X154941309Y-83570593D01*
X154905345Y-83521093D01*
X154900500Y-83490500D01*
X154900500Y-83470253D01*
X154900498Y-83470241D01*
X154897285Y-83454087D01*
X154888867Y-83411769D01*
X154844552Y-83345448D01*
X154782486Y-83303976D01*
X154778233Y-83301134D01*
X154778231Y-83301133D01*
X154778228Y-83301132D01*
X154778227Y-83301132D01*
X154719758Y-83289501D01*
X154719748Y-83289500D01*
X154719747Y-83289500D01*
X153931165Y-83289500D01*
X153872974Y-83270593D01*
X153861161Y-83260504D01*
X153196702Y-82596045D01*
X152261655Y-81660998D01*
X152146923Y-81584337D01*
X152146922Y-81584336D01*
X152146920Y-81584335D01*
X152019440Y-81531532D01*
X151884108Y-81504612D01*
X151884106Y-81504612D01*
X151884105Y-81504612D01*
X134568993Y-81504612D01*
X105304612Y-81504612D01*
X105246421Y-81485705D01*
X105210457Y-81436205D01*
X105205612Y-81405612D01*
X105205612Y-81385365D01*
X105205610Y-81385353D01*
X105196192Y-81338007D01*
X105193979Y-81326881D01*
X105149664Y-81260560D01*
X105149660Y-81260557D01*
X105083345Y-81216246D01*
X105083343Y-81216245D01*
X105083340Y-81216244D01*
X105083339Y-81216244D01*
X105024870Y-81204613D01*
X105024860Y-81204612D01*
X103385364Y-81204612D01*
X103385363Y-81204612D01*
X103385353Y-81204613D01*
X103326884Y-81216244D01*
X103326878Y-81216246D01*
X103260563Y-81260557D01*
X103260557Y-81260563D01*
X103216246Y-81326878D01*
X103216244Y-81326884D01*
X103204613Y-81385353D01*
X103204612Y-81385365D01*
X103204612Y-83024858D01*
X100500500Y-83024858D01*
X100500500Y-78568996D01*
X121219500Y-78568996D01*
X121246420Y-78704327D01*
X121246420Y-78704329D01*
X121299223Y-78831808D01*
X121299224Y-78831810D01*
X121299225Y-78831811D01*
X121375886Y-78946543D01*
X121473457Y-79044114D01*
X121588189Y-79120775D01*
X121715672Y-79173580D01*
X121851006Y-79200500D01*
X121851007Y-79200500D01*
X121988993Y-79200500D01*
X121988994Y-79200500D01*
X122124328Y-79173580D01*
X122251811Y-79120775D01*
X122366543Y-79044114D01*
X123181161Y-78229496D01*
X123235678Y-78201719D01*
X123251165Y-78200500D01*
X129181074Y-78200500D01*
X129181075Y-78200500D01*
X129316409Y-78173580D01*
X129443892Y-78120775D01*
X129558624Y-78044114D01*
X133534114Y-74068624D01*
X133610775Y-73953892D01*
X133663580Y-73826409D01*
X133690500Y-73691075D01*
X133690500Y-73621289D01*
X164649500Y-73621289D01*
X164681161Y-73861781D01*
X164681161Y-73861786D01*
X164681162Y-73861789D01*
X164733052Y-74055445D01*
X164743944Y-74096092D01*
X164743948Y-74096105D01*
X164836772Y-74320204D01*
X164836774Y-74320208D01*
X164836776Y-74320212D01*
X164958064Y-74530289D01*
X164958066Y-74530292D01*
X165105729Y-74722731D01*
X165105731Y-74722733D01*
X165105735Y-74722738D01*
X165277262Y-74894265D01*
X165277266Y-74894268D01*
X165277268Y-74894270D01*
X165469707Y-75041933D01*
X165469711Y-75041936D01*
X165679788Y-75163224D01*
X165903900Y-75256054D01*
X166138211Y-75318838D01*
X166378712Y-75350500D01*
X166378713Y-75350500D01*
X166621287Y-75350500D01*
X166621288Y-75350500D01*
X166861789Y-75318838D01*
X167096100Y-75256054D01*
X167320212Y-75163224D01*
X167530289Y-75041936D01*
X167722738Y-74894265D01*
X167894265Y-74722738D01*
X168041936Y-74530289D01*
X168163224Y-74320212D01*
X168256054Y-74096100D01*
X168318838Y-73861789D01*
X168350500Y-73621288D01*
X168350500Y-73378712D01*
X168318838Y-73138211D01*
X168256054Y-72903900D01*
X168163224Y-72679788D01*
X168041936Y-72469711D01*
X168003794Y-72420003D01*
X167894270Y-72277268D01*
X167894268Y-72277266D01*
X167894265Y-72277262D01*
X167722738Y-72105735D01*
X167722733Y-72105731D01*
X167722731Y-72105729D01*
X167530292Y-71958066D01*
X167530289Y-71958064D01*
X167320212Y-71836776D01*
X167320208Y-71836774D01*
X167320204Y-71836772D01*
X167096105Y-71743948D01*
X167096104Y-71743947D01*
X167096100Y-71743946D01*
X166861789Y-71681162D01*
X166861786Y-71681161D01*
X166861784Y-71681161D01*
X166621289Y-71649500D01*
X166621288Y-71649500D01*
X166378712Y-71649500D01*
X166378710Y-71649500D01*
X166138218Y-71681161D01*
X166138213Y-71681161D01*
X165903907Y-71743944D01*
X165903894Y-71743948D01*
X165679795Y-71836772D01*
X165469707Y-71958066D01*
X165277268Y-72105729D01*
X165105729Y-72277268D01*
X164958066Y-72469707D01*
X164836772Y-72679795D01*
X164743948Y-72903894D01*
X164743944Y-72903907D01*
X164681161Y-73138213D01*
X164681161Y-73138218D01*
X164649500Y-73378710D01*
X164649500Y-73621289D01*
X133690500Y-73621289D01*
X133690500Y-73553087D01*
X133690500Y-73250910D01*
X133709407Y-73192719D01*
X133726698Y-73174380D01*
X133736410Y-73166410D01*
X133867685Y-73006450D01*
X133965232Y-72823954D01*
X134025300Y-72625934D01*
X134025301Y-72625929D01*
X134045583Y-72420003D01*
X134474417Y-72420003D01*
X134494698Y-72625929D01*
X134494699Y-72625934D01*
X134554768Y-72823954D01*
X134652316Y-73006452D01*
X134761429Y-73139407D01*
X134783590Y-73166410D01*
X134783595Y-73166414D01*
X134943547Y-73297683D01*
X134943548Y-73297683D01*
X134943550Y-73297685D01*
X135126046Y-73395232D01*
X135234837Y-73428233D01*
X135324065Y-73455300D01*
X135324070Y-73455301D01*
X135529997Y-73475583D01*
X135530000Y-73475583D01*
X135530003Y-73475583D01*
X135735929Y-73455301D01*
X135735934Y-73455300D01*
X135933954Y-73395232D01*
X136116450Y-73297685D01*
X136276410Y-73166410D01*
X136284384Y-73156693D01*
X136335915Y-73123707D01*
X136360911Y-73120500D01*
X139575500Y-73120500D01*
X139633691Y-73139407D01*
X139669655Y-73188907D01*
X139674500Y-73219500D01*
X139674500Y-73369746D01*
X139674501Y-73369758D01*
X139686132Y-73428227D01*
X139686134Y-73428233D01*
X139717773Y-73475583D01*
X139730448Y-73494552D01*
X139796769Y-73538867D01*
X139841231Y-73547711D01*
X139855241Y-73550498D01*
X139855246Y-73550498D01*
X139855252Y-73550500D01*
X139855253Y-73550500D01*
X141594747Y-73550500D01*
X141594748Y-73550500D01*
X141653231Y-73538867D01*
X141719552Y-73494552D01*
X141763867Y-73428231D01*
X141775500Y-73369748D01*
X141775500Y-71630252D01*
X141763867Y-71571769D01*
X141719552Y-71505448D01*
X141699085Y-71491772D01*
X141653233Y-71461134D01*
X141653231Y-71461133D01*
X141653228Y-71461132D01*
X141653227Y-71461132D01*
X141594758Y-71449501D01*
X141594748Y-71449500D01*
X139855252Y-71449500D01*
X139855251Y-71449500D01*
X139855241Y-71449501D01*
X139796772Y-71461132D01*
X139796766Y-71461134D01*
X139730451Y-71505445D01*
X139730445Y-71505451D01*
X139686134Y-71571766D01*
X139686132Y-71571772D01*
X139673550Y-71635023D01*
X139672488Y-71634811D01*
X139649984Y-71686261D01*
X139597197Y-71717200D01*
X139575981Y-71719500D01*
X136360911Y-71719500D01*
X136302720Y-71700593D01*
X136284385Y-71683308D01*
X136276410Y-71673590D01*
X136229416Y-71635023D01*
X136116452Y-71542316D01*
X135933954Y-71444768D01*
X135735934Y-71384699D01*
X135735929Y-71384698D01*
X135530003Y-71364417D01*
X135529997Y-71364417D01*
X135324070Y-71384698D01*
X135324065Y-71384699D01*
X135126045Y-71444768D01*
X134943547Y-71542316D01*
X134783595Y-71673585D01*
X134783585Y-71673595D01*
X134652316Y-71833547D01*
X134554768Y-72016045D01*
X134494699Y-72214065D01*
X134494698Y-72214070D01*
X134474417Y-72419996D01*
X134474417Y-72420003D01*
X134045583Y-72420003D01*
X134045583Y-72419996D01*
X134025301Y-72214070D01*
X134025300Y-72214065D01*
X134007078Y-72153997D01*
X133965232Y-72016046D01*
X133867685Y-71833550D01*
X133736410Y-71673590D01*
X133689416Y-71635023D01*
X133576452Y-71542316D01*
X133393954Y-71444768D01*
X133195934Y-71384699D01*
X133195929Y-71384698D01*
X132990003Y-71364417D01*
X132989997Y-71364417D01*
X132784070Y-71384698D01*
X132784065Y-71384699D01*
X132586045Y-71444768D01*
X132403547Y-71542316D01*
X132243595Y-71673585D01*
X132243585Y-71673595D01*
X132112316Y-71833547D01*
X132014768Y-72016045D01*
X131954699Y-72214065D01*
X131954698Y-72214070D01*
X131934417Y-72419996D01*
X131934417Y-72420003D01*
X131954698Y-72625929D01*
X131954699Y-72625934D01*
X132014768Y-72823954D01*
X132112316Y-73006452D01*
X132221429Y-73139407D01*
X132243590Y-73166410D01*
X132243595Y-73166414D01*
X132243596Y-73166415D01*
X132253302Y-73174380D01*
X132286291Y-73225910D01*
X132289500Y-73250910D01*
X132289500Y-73290916D01*
X132270593Y-73349107D01*
X132260504Y-73360920D01*
X128850920Y-76770504D01*
X128796403Y-76798281D01*
X128780916Y-76799500D01*
X122851003Y-76799500D01*
X122715672Y-76826420D01*
X122715670Y-76826420D01*
X122588191Y-76879223D01*
X122473460Y-76955883D01*
X121375883Y-78053460D01*
X121299223Y-78168191D01*
X121246420Y-78295670D01*
X121246420Y-78295672D01*
X121219500Y-78431003D01*
X121219500Y-78568996D01*
X100500500Y-78568996D01*
X100500500Y-75819746D01*
X121999500Y-75819746D01*
X121999501Y-75819758D01*
X122011132Y-75878227D01*
X122011133Y-75878231D01*
X122055448Y-75944552D01*
X122121769Y-75988867D01*
X122166231Y-75997711D01*
X122180241Y-76000498D01*
X122180246Y-76000498D01*
X122180252Y-76000500D01*
X122180253Y-76000500D01*
X123819747Y-76000500D01*
X123819748Y-76000500D01*
X123878231Y-75988867D01*
X123944552Y-75944552D01*
X123988867Y-75878231D01*
X124000500Y-75819748D01*
X124000500Y-74180252D01*
X123988867Y-74121769D01*
X123944552Y-74055448D01*
X123944548Y-74055445D01*
X123878233Y-74011134D01*
X123878231Y-74011133D01*
X123878228Y-74011132D01*
X123878227Y-74011132D01*
X123819758Y-73999501D01*
X123819748Y-73999500D01*
X122180252Y-73999500D01*
X122180251Y-73999500D01*
X122180241Y-73999501D01*
X122121772Y-74011132D01*
X122121766Y-74011134D01*
X122055451Y-74055445D01*
X122055445Y-74055451D01*
X122011134Y-74121766D01*
X122011132Y-74121772D01*
X121999501Y-74180241D01*
X121999500Y-74180253D01*
X121999500Y-75819746D01*
X100500500Y-75819746D01*
X100500500Y-73621289D01*
X101649500Y-73621289D01*
X101681161Y-73861781D01*
X101681161Y-73861786D01*
X101681162Y-73861789D01*
X101733052Y-74055445D01*
X101743944Y-74096092D01*
X101743948Y-74096105D01*
X101836772Y-74320204D01*
X101836774Y-74320208D01*
X101836776Y-74320212D01*
X101958064Y-74530289D01*
X101958066Y-74530292D01*
X102105729Y-74722731D01*
X102105731Y-74722733D01*
X102105735Y-74722738D01*
X102277262Y-74894265D01*
X102277266Y-74894268D01*
X102277268Y-74894270D01*
X102469707Y-75041933D01*
X102469711Y-75041936D01*
X102679788Y-75163224D01*
X102903900Y-75256054D01*
X103138211Y-75318838D01*
X103378712Y-75350500D01*
X103378713Y-75350500D01*
X103621287Y-75350500D01*
X103621288Y-75350500D01*
X103861789Y-75318838D01*
X104096100Y-75256054D01*
X104320212Y-75163224D01*
X104530289Y-75041936D01*
X104722738Y-74894265D01*
X104894265Y-74722738D01*
X105041936Y-74530289D01*
X105163224Y-74320212D01*
X105256054Y-74096100D01*
X105318838Y-73861789D01*
X105350500Y-73621288D01*
X105350500Y-73378712D01*
X105338788Y-73289746D01*
X129399500Y-73289746D01*
X129399501Y-73289758D01*
X129411132Y-73348227D01*
X129411134Y-73348233D01*
X129455445Y-73414548D01*
X129455448Y-73414552D01*
X129521769Y-73458867D01*
X129566231Y-73467711D01*
X129580241Y-73470498D01*
X129580246Y-73470498D01*
X129580252Y-73470500D01*
X129580253Y-73470500D01*
X131319747Y-73470500D01*
X131319748Y-73470500D01*
X131378231Y-73458867D01*
X131444552Y-73414552D01*
X131488867Y-73348231D01*
X131500500Y-73289748D01*
X131500500Y-71550252D01*
X131498921Y-71542316D01*
X131497711Y-71536231D01*
X131488867Y-71491769D01*
X131444552Y-71425448D01*
X131444548Y-71425445D01*
X131378233Y-71381134D01*
X131378231Y-71381133D01*
X131378228Y-71381132D01*
X131378227Y-71381132D01*
X131319758Y-71369501D01*
X131319748Y-71369500D01*
X129580252Y-71369500D01*
X129580251Y-71369500D01*
X129580241Y-71369501D01*
X129521772Y-71381132D01*
X129521766Y-71381134D01*
X129455451Y-71425445D01*
X129455445Y-71425451D01*
X129411134Y-71491766D01*
X129411132Y-71491772D01*
X129399501Y-71550241D01*
X129399500Y-71550253D01*
X129399500Y-73289746D01*
X105338788Y-73289746D01*
X105318838Y-73138211D01*
X105256054Y-72903900D01*
X105163224Y-72679788D01*
X105041936Y-72469711D01*
X105003794Y-72420003D01*
X104894270Y-72277268D01*
X104894268Y-72277266D01*
X104894265Y-72277262D01*
X104722738Y-72105735D01*
X104722733Y-72105731D01*
X104722731Y-72105729D01*
X104530292Y-71958066D01*
X104530289Y-71958064D01*
X104320212Y-71836776D01*
X104320208Y-71836774D01*
X104320204Y-71836772D01*
X104096105Y-71743948D01*
X104096104Y-71743947D01*
X104096100Y-71743946D01*
X103861789Y-71681162D01*
X103861786Y-71681161D01*
X103861784Y-71681161D01*
X103621289Y-71649500D01*
X103621288Y-71649500D01*
X103378712Y-71649500D01*
X103378710Y-71649500D01*
X103138218Y-71681161D01*
X103138213Y-71681161D01*
X102903907Y-71743944D01*
X102903894Y-71743948D01*
X102679795Y-71836772D01*
X102469707Y-71958066D01*
X102277268Y-72105729D01*
X102105729Y-72277268D01*
X101958066Y-72469707D01*
X101836772Y-72679795D01*
X101743948Y-72903894D01*
X101743944Y-72903907D01*
X101681161Y-73138213D01*
X101681161Y-73138218D01*
X101649500Y-73378710D01*
X101649500Y-73621289D01*
X100500500Y-73621289D01*
X100500500Y-70599500D01*
X100519407Y-70541309D01*
X100568907Y-70505345D01*
X100599500Y-70500500D01*
X169400500Y-70500500D01*
X169458691Y-70519407D01*
G37*
%TD.AperFunction*%
%TD*%
M02*
