%TF.GenerationSoftware,KiCad,Pcbnew,8.0.0*%
%TF.CreationDate,2024-04-09T18:41:08+07:00*%
%TF.ProjectId,robotika,726f626f-7469-46b6-912e-6b696361645f,rev?*%
%TF.SameCoordinates,Original*%
%TF.FileFunction,Copper,L1,Top*%
%TF.FilePolarity,Positive*%
%FSLAX46Y46*%
G04 Gerber Fmt 4.6, Leading zero omitted, Abs format (unit mm)*
G04 Created by KiCad (PCBNEW 8.0.0) date 2024-04-09 18:41:08*
%MOMM*%
%LPD*%
G01*
G04 APERTURE LIST*
G04 Aperture macros list*
%AMRoundRect*
0 Rectangle with rounded corners*
0 $1 Rounding radius*
0 $2 $3 $4 $5 $6 $7 $8 $9 X,Y pos of 4 corners*
0 Add a 4 corners polygon primitive as box body*
4,1,4,$2,$3,$4,$5,$6,$7,$8,$9,$2,$3,0*
0 Add four circle primitives for the rounded corners*
1,1,$1+$1,$2,$3*
1,1,$1+$1,$4,$5*
1,1,$1+$1,$6,$7*
1,1,$1+$1,$8,$9*
0 Add four rect primitives between the rounded corners*
20,1,$1+$1,$2,$3,$4,$5,0*
20,1,$1+$1,$4,$5,$6,$7,0*
20,1,$1+$1,$6,$7,$8,$9,0*
20,1,$1+$1,$8,$9,$2,$3,0*%
G04 Aperture macros list end*
%TA.AperFunction,SMDPad,CuDef*%
%ADD10RoundRect,0.250000X0.475000X-0.337500X0.475000X0.337500X-0.475000X0.337500X-0.475000X-0.337500X0*%
%TD*%
%TA.AperFunction,ComponentPad*%
%ADD11R,1.600000X1.600000*%
%TD*%
%TA.AperFunction,ComponentPad*%
%ADD12O,1.600000X1.600000*%
%TD*%
%TA.AperFunction,SMDPad,CuDef*%
%ADD13RoundRect,0.250000X0.300000X-2.050000X0.300000X2.050000X-0.300000X2.050000X-0.300000X-2.050000X0*%
%TD*%
%TA.AperFunction,SMDPad,CuDef*%
%ADD14RoundRect,0.250000X2.375000X-2.025000X2.375000X2.025000X-2.375000X2.025000X-2.375000X-2.025000X0*%
%TD*%
%TA.AperFunction,SMDPad,CuDef*%
%ADD15RoundRect,0.250002X5.149998X-4.449998X5.149998X4.449998X-5.149998X4.449998X-5.149998X-4.449998X0*%
%TD*%
%TA.AperFunction,ComponentPad*%
%ADD16R,1.700000X1.700000*%
%TD*%
%TA.AperFunction,ComponentPad*%
%ADD17O,1.700000X1.700000*%
%TD*%
%TA.AperFunction,SMDPad,CuDef*%
%ADD18RoundRect,0.375000X0.375000X-0.625000X0.375000X0.625000X-0.375000X0.625000X-0.375000X-0.625000X0*%
%TD*%
%TA.AperFunction,SMDPad,CuDef*%
%ADD19RoundRect,0.500000X1.400000X-0.500000X1.400000X0.500000X-1.400000X0.500000X-1.400000X-0.500000X0*%
%TD*%
%TA.AperFunction,SMDPad,CuDef*%
%ADD20R,2.500000X1.000000*%
%TD*%
%TA.AperFunction,SMDPad,CuDef*%
%ADD21R,1.000000X1.800000*%
%TD*%
%TA.AperFunction,SMDPad,CuDef*%
%ADD22RoundRect,0.150000X-0.825000X-0.150000X0.825000X-0.150000X0.825000X0.150000X-0.825000X0.150000X0*%
%TD*%
%TA.AperFunction,ComponentPad*%
%ADD23C,2.000000*%
%TD*%
%TA.AperFunction,SMDPad,CuDef*%
%ADD24RoundRect,0.250000X-0.450000X0.350000X-0.450000X-0.350000X0.450000X-0.350000X0.450000X0.350000X0*%
%TD*%
%TA.AperFunction,SMDPad,CuDef*%
%ADD25RoundRect,0.250000X-0.350000X-0.450000X0.350000X-0.450000X0.350000X0.450000X-0.350000X0.450000X0*%
%TD*%
%TA.AperFunction,SMDPad,CuDef*%
%ADD26R,0.300000X1.150000*%
%TD*%
%TA.AperFunction,ComponentPad*%
%ADD27O,1.000000X2.100000*%
%TD*%
%TA.AperFunction,ComponentPad*%
%ADD28O,1.000000X1.600000*%
%TD*%
%TA.AperFunction,ComponentPad*%
%ADD29C,1.600000*%
%TD*%
%TA.AperFunction,SMDPad,CuDef*%
%ADD30RoundRect,0.250000X0.337500X0.475000X-0.337500X0.475000X-0.337500X-0.475000X0.337500X-0.475000X0*%
%TD*%
%TA.AperFunction,SMDPad,CuDef*%
%ADD31RoundRect,0.250000X-0.475000X0.337500X-0.475000X-0.337500X0.475000X-0.337500X0.475000X0.337500X0*%
%TD*%
%TA.AperFunction,ViaPad*%
%ADD32C,0.600000*%
%TD*%
%TA.AperFunction,Conductor*%
%ADD33C,0.200000*%
%TD*%
%TA.AperFunction,Conductor*%
%ADD34C,0.250000*%
%TD*%
%TA.AperFunction,Conductor*%
%ADD35C,1.000000*%
%TD*%
%TA.AperFunction,Conductor*%
%ADD36C,0.500000*%
%TD*%
G04 APERTURE END LIST*
D10*
%TO.P,C6,1*%
%TO.N,+3.3V*%
X135000000Y-90037500D03*
%TO.P,C6,2*%
%TO.N,GND*%
X135000000Y-87962500D03*
%TD*%
%TO.P,C3,1*%
%TO.N,+3.3V*%
X109000000Y-94537500D03*
%TO.P,C3,2*%
%TO.N,GND*%
X109000000Y-92462500D03*
%TD*%
D11*
%TO.P,U6,1,EN1\u002C2*%
%TO.N,+5V*%
X153900000Y-84290000D03*
D12*
%TO.P,U6,2,1A*%
%TO.N,1A*%
X153900000Y-86830000D03*
%TO.P,U6,3,1Y*%
%TO.N,Net-(J3-Pin_1)*%
X153900000Y-89370000D03*
%TO.P,U6,4,GND*%
%TO.N,GND*%
X153900000Y-91910000D03*
%TO.P,U6,5,GND*%
X153900000Y-94450000D03*
%TO.P,U6,6,2Y*%
%TO.N,Net-(J3-Pin_2)*%
X153900000Y-96990000D03*
%TO.P,U6,7,2A*%
%TO.N,2A*%
X153900000Y-99530000D03*
%TO.P,U6,8,VCC2*%
%TO.N,+9V*%
X153900000Y-102070000D03*
%TO.P,U6,9,EN3\u002C4*%
%TO.N,+5V*%
X161520000Y-102070000D03*
%TO.P,U6,10,3A*%
%TO.N,3A*%
X161520000Y-99530000D03*
%TO.P,U6,11,3Y*%
%TO.N,Net-(J4-Pin_1)*%
X161520000Y-96990000D03*
%TO.P,U6,12,GND*%
%TO.N,GND*%
X161520000Y-94450000D03*
%TO.P,U6,13,GND*%
X161520000Y-91910000D03*
%TO.P,U6,14,4Y*%
%TO.N,Net-(J4-Pin_2)*%
X161520000Y-89370000D03*
%TO.P,U6,15,4A*%
%TO.N,4A*%
X161520000Y-86830000D03*
%TO.P,U6,16,VCC1*%
%TO.N,+5V*%
X161520000Y-84290000D03*
%TD*%
D13*
%TO.P,U5,1,IN*%
%TO.N,+5V*%
X111920000Y-85500000D03*
D14*
%TO.P,U5,2,GND*%
%TO.N,GND*%
X111685000Y-78775000D03*
X117235000Y-78775000D03*
D15*
X114460000Y-76350000D03*
D14*
X111685000Y-73925000D03*
X117235000Y-73925000D03*
D13*
%TO.P,U5,3,OUT*%
%TO.N,+9V*%
X117000000Y-85500000D03*
%TD*%
D16*
%TO.P,SW2,1,A*%
%TO.N,unconnected-(SW2-A-Pad1)*%
X130450000Y-72420000D03*
D17*
%TO.P,SW2,2,B*%
%TO.N,+9V*%
X132990000Y-72420000D03*
%TO.P,SW2,3,C*%
%TO.N,Net-(J2-Pin_1)*%
X135530000Y-72420000D03*
%TD*%
D16*
%TO.P,J4,1,Pin_1*%
%TO.N,Net-(J4-Pin_1)*%
X166500000Y-80460000D03*
D17*
%TO.P,J4,2,Pin_2*%
%TO.N,Net-(J4-Pin_2)*%
X166500000Y-83000000D03*
%TD*%
D16*
%TO.P,J3,1,Pin_1*%
%TO.N,Net-(J3-Pin_1)*%
X166500000Y-106960000D03*
D17*
%TO.P,J3,2,Pin_2*%
%TO.N,Net-(J3-Pin_2)*%
X166500000Y-109500000D03*
%TD*%
D16*
%TO.P,J2,1,Pin_1*%
%TO.N,Net-(J2-Pin_1)*%
X140725000Y-72500000D03*
D17*
%TO.P,J2,2,Pin_2*%
%TO.N,GND*%
X143265000Y-72500000D03*
%TD*%
D18*
%TO.P,U4,1,GND*%
%TO.N,GND*%
X123775000Y-86650000D03*
%TO.P,U4,2,VO*%
%TO.N,+3.3V*%
X126075000Y-86650000D03*
D19*
X126075000Y-80350000D03*
D18*
%TO.P,U4,3,VI*%
%TO.N,+5V*%
X128375000Y-86650000D03*
%TD*%
D20*
%TO.P,U3,1,~{RST}*%
%TO.N,Net-(U3-~{RST})*%
X142600000Y-110950000D03*
%TO.P,U3,2,ADC*%
%TO.N,unconnected-(U3-ADC-Pad2)*%
X142600000Y-108950000D03*
%TO.P,U3,3,EN*%
%TO.N,+3.3V*%
X142600000Y-106950000D03*
%TO.P,U3,4,GPIO16*%
%TO.N,1A*%
X142600000Y-104950000D03*
%TO.P,U3,5,GPIO14*%
%TO.N,2A*%
X142600000Y-102950000D03*
%TO.P,U3,6,GPIO12*%
%TO.N,3A*%
X142600000Y-100950000D03*
%TO.P,U3,7,GPIO13*%
%TO.N,4A*%
X142600000Y-98950000D03*
%TO.P,U3,8,VCC*%
%TO.N,+3.3V*%
X142600000Y-96950000D03*
D21*
%TO.P,U3,9,CS0*%
%TO.N,unconnected-(U3-CS0-Pad9)*%
X140000000Y-95450000D03*
%TO.P,U3,10,MISO*%
%TO.N,unconnected-(U3-MISO-Pad10)*%
X138000000Y-95450000D03*
%TO.P,U3,11,GPIO9*%
%TO.N,unconnected-(U3-GPIO9-Pad11)*%
X136000000Y-95450000D03*
%TO.P,U3,12,GPIO10*%
%TO.N,unconnected-(U3-GPIO10-Pad12)*%
X134000000Y-95450000D03*
%TO.P,U3,13,MOSI*%
%TO.N,unconnected-(U3-MOSI-Pad13)*%
X132000000Y-95450000D03*
%TO.P,U3,14,SCLK*%
%TO.N,unconnected-(U3-SCLK-Pad14)*%
X130000000Y-95450000D03*
D20*
%TO.P,U3,15,GND*%
%TO.N,GND*%
X127400000Y-96950000D03*
%TO.P,U3,16,GPIO15*%
%TO.N,unconnected-(U3-GPIO15-Pad16)*%
X127400000Y-98950000D03*
%TO.P,U3,17,GPIO2*%
%TO.N,unconnected-(U3-GPIO2-Pad17)*%
X127400000Y-100950000D03*
%TO.P,U3,18,GPIO0*%
%TO.N,unconnected-(U3-GPIO0-Pad18)*%
X127400000Y-102950000D03*
%TO.P,U3,19,GPIO4*%
%TO.N,unconnected-(U3-GPIO4-Pad19)*%
X127400000Y-104950000D03*
%TO.P,U3,20,GPIO5*%
%TO.N,unconnected-(U3-GPIO5-Pad20)*%
X127400000Y-106950000D03*
%TO.P,U3,21,GPIO3/RXD*%
%TO.N,TX*%
X127400000Y-108950000D03*
%TO.P,U3,22,GPIO1/TXD*%
%TO.N,RX*%
X127400000Y-110950000D03*
%TD*%
D22*
%TO.P,U2,1,GND*%
%TO.N,GND*%
X116050000Y-94380000D03*
%TO.P,U2,2,TXD*%
%TO.N,RX*%
X116050000Y-95650000D03*
%TO.P,U2,3,RXD*%
%TO.N,TX*%
X116050000Y-96920000D03*
%TO.P,U2,4,V3*%
%TO.N,+3.3V*%
X116050000Y-98190000D03*
%TO.P,U2,5,UD+*%
%TO.N,D+*%
X116050000Y-99460000D03*
%TO.P,U2,6,UD-*%
%TO.N,D-*%
X116050000Y-100730000D03*
%TO.P,U2,7,NC*%
%TO.N,unconnected-(U2-NC-Pad7)*%
X116050000Y-102000000D03*
%TO.P,U2,8,~{OUT}/~{DTR}*%
%TO.N,unconnected-(U2-~{OUT}{slash}~{DTR}-Pad8)*%
X116050000Y-103270000D03*
%TO.P,U2,9,~{CTS}*%
%TO.N,unconnected-(U2-~{CTS}-Pad9)*%
X121000000Y-103270000D03*
%TO.P,U2,10,~{DSR}*%
%TO.N,unconnected-(U2-~{DSR}-Pad10)*%
X121000000Y-102000000D03*
%TO.P,U2,11,~{RI}*%
%TO.N,unconnected-(U2-~{RI}-Pad11)*%
X121000000Y-100730000D03*
%TO.P,U2,12,~{DCD}*%
%TO.N,unconnected-(U2-~{DCD}-Pad12)*%
X121000000Y-99460000D03*
%TO.P,U2,13,~{DTR}*%
%TO.N,unconnected-(U2-~{DTR}-Pad13)*%
X121000000Y-98190000D03*
%TO.P,U2,14,~{RTS}*%
%TO.N,unconnected-(U2-~{RTS}-Pad14)*%
X121000000Y-96920000D03*
%TO.P,U2,15,R232*%
%TO.N,unconnected-(U2-R232-Pad15)*%
X121000000Y-95650000D03*
%TO.P,U2,16,VCC*%
%TO.N,+3.3V*%
X121000000Y-94380000D03*
%TD*%
D18*
%TO.P,U1,1,GND*%
%TO.N,GND*%
X104200000Y-104650000D03*
%TO.P,U1,2,VO*%
%TO.N,+3.3V*%
X106500000Y-104650000D03*
D19*
X106500000Y-98350000D03*
D18*
%TO.P,U1,3,VI*%
%TO.N,VBUS*%
X108800000Y-104650000D03*
%TD*%
D23*
%TO.P,SW1,1,1*%
%TO.N,GND*%
X148250000Y-112250000D03*
X154750000Y-112250000D03*
%TO.P,SW1,2,2*%
%TO.N,Net-(U3-~{RST})*%
X148250000Y-116750000D03*
X154750000Y-116750000D03*
%TD*%
D24*
%TO.P,R3,1*%
%TO.N,+3.3V*%
X146558000Y-107000000D03*
%TO.P,R3,2*%
%TO.N,Net-(U3-~{RST})*%
X146558000Y-109000000D03*
%TD*%
D25*
%TO.P,R2,1*%
%TO.N,Net-(J1-CC1)*%
X112284000Y-110490000D03*
%TO.P,R2,2*%
%TO.N,GND*%
X114284000Y-110490000D03*
%TD*%
%TO.P,R1,1*%
%TO.N,Net-(J1-CC2)*%
X117618000Y-110490000D03*
%TO.P,R1,2*%
%TO.N,GND*%
X119618000Y-110490000D03*
%TD*%
D26*
%TO.P,J1,A1,GND*%
%TO.N,GND*%
X112550000Y-113830000D03*
%TO.P,J1,A4,VBUS*%
%TO.N,VBUS*%
X113350000Y-113830000D03*
%TO.P,J1,A5,CC1*%
%TO.N,Net-(J1-CC1)*%
X114650000Y-113830000D03*
%TO.P,J1,A6,D+*%
%TO.N,D+*%
X115650000Y-113830000D03*
%TO.P,J1,A7,D-*%
%TO.N,D-*%
X116150000Y-113830000D03*
%TO.P,J1,A8,SBU1*%
%TO.N,unconnected-(J1-SBU1-PadA8)*%
X117150000Y-113830000D03*
%TO.P,J1,A9,VBUS*%
%TO.N,VBUS*%
X118450000Y-113830000D03*
%TO.P,J1,A12,GND*%
%TO.N,GND*%
X119250000Y-113830000D03*
%TO.P,J1,B1,GND*%
X118950000Y-113830000D03*
%TO.P,J1,B4,VBUS*%
%TO.N,VBUS*%
X118150000Y-113830000D03*
%TO.P,J1,B5,CC2*%
%TO.N,Net-(J1-CC2)*%
X117650000Y-113830000D03*
%TO.P,J1,B6,D+*%
%TO.N,D+*%
X116650000Y-113830000D03*
%TO.P,J1,B7,D-*%
%TO.N,D-*%
X115150000Y-113830000D03*
%TO.P,J1,B8,SBU2*%
%TO.N,unconnected-(J1-SBU2-PadB8)*%
X114150000Y-113830000D03*
%TO.P,J1,B9,VBUS*%
%TO.N,VBUS*%
X113650000Y-113830000D03*
%TO.P,J1,B12,GND*%
%TO.N,GND*%
X112850000Y-113830000D03*
D27*
%TO.P,J1,S1,SHIELD*%
X111580000Y-114395000D03*
D28*
X111580000Y-118575000D03*
D27*
X120220000Y-114395000D03*
D28*
X120220000Y-118575000D03*
%TD*%
D11*
%TO.P,C10,1*%
%TO.N,+9V*%
X123000000Y-75000000D03*
D29*
%TO.P,C10,2*%
%TO.N,GND*%
X125500000Y-75000000D03*
%TD*%
D11*
%TO.P,C9,1*%
%TO.N,+5V*%
X104205112Y-82205112D03*
D29*
%TO.P,C9,2*%
%TO.N,GND*%
X104205112Y-79705112D03*
%TD*%
D30*
%TO.P,C8,1*%
%TO.N,+3.3V*%
X126037500Y-90000000D03*
%TO.P,C8,2*%
%TO.N,GND*%
X123962500Y-90000000D03*
%TD*%
D10*
%TO.P,C7,1*%
%TO.N,+3.3V*%
X138500000Y-90037500D03*
%TO.P,C7,2*%
%TO.N,GND*%
X138500000Y-87962500D03*
%TD*%
D11*
%TO.P,C5,1*%
%TO.N,+3.3V*%
X144000000Y-90205112D03*
D29*
%TO.P,C5,2*%
%TO.N,GND*%
X144000000Y-87705112D03*
%TD*%
D10*
%TO.P,C4,1*%
%TO.N,+3.3V*%
X112500000Y-94537500D03*
%TO.P,C4,2*%
%TO.N,GND*%
X112500000Y-92462500D03*
%TD*%
D31*
%TO.P,C2,1*%
%TO.N,+3.3V*%
X103000000Y-108962500D03*
%TO.P,C2,2*%
%TO.N,GND*%
X103000000Y-111037500D03*
%TD*%
D11*
%TO.P,C1,1*%
%TO.N,VBUS*%
X109000000Y-110500000D03*
D29*
%TO.P,C1,2*%
%TO.N,GND*%
X106500000Y-110500000D03*
%TD*%
D32*
%TO.N,D+*%
X117000000Y-112500000D03*
X115525000Y-112500000D03*
%TO.N,+9V*%
X121920000Y-78500000D03*
%TO.N,+5V*%
X134500000Y-82205112D03*
%TO.N,4A*%
X150876000Y-80137000D03*
%TO.N,3A*%
X156718000Y-105664000D03*
X145542000Y-99187000D03*
%TO.N,2A*%
X147828000Y-99568000D03*
%TO.N,+3.3V*%
X106807000Y-95250000D03*
X123425000Y-94380000D03*
%TO.N,RX*%
X124079000Y-110744000D03*
X124079000Y-107569000D03*
%TD*%
D33*
%TO.N,D+*%
X116650000Y-112850000D02*
X116650000Y-113830000D01*
X117000000Y-112500000D02*
X116650000Y-112850000D01*
D34*
X115650000Y-112500000D02*
X115525000Y-112500000D01*
X115650000Y-112500000D02*
X115650000Y-106506000D01*
X115650000Y-113830000D02*
X115650000Y-112500000D01*
D33*
%TO.N,D-*%
X116100000Y-114705000D02*
X116150000Y-114655000D01*
X116150000Y-114655000D02*
X116150000Y-113830000D01*
X115200000Y-114705000D02*
X116100000Y-114705000D01*
X115150000Y-114655000D02*
X115200000Y-114705000D01*
X115150000Y-113830000D02*
X115150000Y-114655000D01*
D34*
%TO.N,VBUS*%
X113650000Y-114545051D02*
X113650000Y-113830000D01*
X115104949Y-116000000D02*
X113650000Y-114545051D01*
X116695051Y-116000000D02*
X115104949Y-116000000D01*
X118150000Y-114545051D02*
X116695051Y-116000000D01*
X118150000Y-113830000D02*
X118150000Y-114545051D01*
D35*
%TO.N,+9V*%
X121920000Y-78500000D02*
X121920000Y-82296000D01*
X121920000Y-76962000D02*
X121920000Y-78500000D01*
%TO.N,+3.3V*%
X141000000Y-107000000D02*
X141050000Y-106950000D01*
X140000000Y-106000000D02*
X141000000Y-107000000D01*
X140000000Y-98000000D02*
X140000000Y-106000000D01*
X141050000Y-96950000D02*
X140000000Y-98000000D01*
X142600000Y-96950000D02*
X141050000Y-96950000D01*
X141050000Y-106950000D02*
X142600000Y-106950000D01*
X126075000Y-86650000D02*
X126075000Y-80350000D01*
%TO.N,+5V*%
X130055112Y-86650000D02*
X134500000Y-82205112D01*
X128375000Y-86650000D02*
X130055112Y-86650000D01*
%TO.N,+3.3V*%
X106500000Y-104650000D02*
X106500000Y-98350000D01*
%TO.N,4A*%
X148082000Y-82931000D02*
X150876000Y-80137000D01*
X148082000Y-94218000D02*
X148082000Y-82931000D01*
X143350000Y-98950000D02*
X148082000Y-94218000D01*
X142600000Y-98950000D02*
X143350000Y-98950000D01*
%TO.N,3A*%
X163157000Y-99530000D02*
X161520000Y-99530000D01*
X164084000Y-100457000D02*
X163157000Y-99530000D01*
X164084000Y-103632000D02*
X164084000Y-100457000D01*
X162052000Y-105664000D02*
X164084000Y-103632000D01*
X156718000Y-105664000D02*
X162052000Y-105664000D01*
X143779000Y-100950000D02*
X145542000Y-99187000D01*
X142600000Y-100950000D02*
X143779000Y-100950000D01*
%TO.N,Net-(J3-Pin_2)*%
X157708000Y-109500000D02*
X166500000Y-109500000D01*
X157607000Y-109601000D02*
X157708000Y-109500000D01*
X151703000Y-103697000D02*
X157607000Y-109601000D01*
X151703000Y-103570000D02*
X151703000Y-103697000D01*
X151638000Y-103505000D02*
X151703000Y-103570000D01*
X152565000Y-96990000D02*
X151638000Y-97917000D01*
X151638000Y-97917000D02*
X151638000Y-103505000D01*
X153900000Y-96990000D02*
X152565000Y-96990000D01*
%TO.N,2A*%
X144446000Y-102950000D02*
X147828000Y-99568000D01*
X142600000Y-102950000D02*
X144446000Y-102950000D01*
%TO.N,1A*%
X152019000Y-86868000D02*
X152908000Y-86868000D01*
X149987000Y-88900000D02*
X152019000Y-86868000D01*
X149987000Y-102108000D02*
X149987000Y-88900000D01*
X147145000Y-104950000D02*
X149987000Y-102108000D01*
X142600000Y-104950000D02*
X147145000Y-104950000D01*
X152908000Y-86868000D02*
X152946000Y-86830000D01*
X152946000Y-86830000D02*
X153900000Y-86830000D01*
%TO.N,+9V*%
X135636000Y-76581000D02*
X132990000Y-73935000D01*
X158115000Y-84455000D02*
X150241000Y-76581000D01*
X158115000Y-100838000D02*
X158115000Y-84455000D01*
X156883000Y-102070000D02*
X158115000Y-100838000D01*
X132990000Y-73935000D02*
X132990000Y-72420000D01*
X153900000Y-102070000D02*
X156883000Y-102070000D01*
X150241000Y-76581000D02*
X135636000Y-76581000D01*
D36*
%TO.N,+3.3V*%
X107519500Y-94537500D02*
X106807000Y-95250000D01*
X106807000Y-95250000D02*
X106500000Y-95557000D01*
%TO.N,RX*%
X127194000Y-110744000D02*
X127400000Y-110950000D01*
X124079000Y-110744000D02*
X127194000Y-110744000D01*
X117748000Y-95650000D02*
X118999000Y-96901000D01*
X116050000Y-95650000D02*
X117748000Y-95650000D01*
X118999000Y-96901000D02*
X118999000Y-103759000D01*
X118999000Y-103759000D02*
X122809000Y-107569000D01*
X122809000Y-107569000D02*
X124079000Y-107569000D01*
%TO.N,TX*%
X117856000Y-104013000D02*
X122793000Y-108950000D01*
X117856000Y-97409000D02*
X117856000Y-104013000D01*
X122793000Y-108950000D02*
X127400000Y-108950000D01*
X116050000Y-96920000D02*
X117367000Y-96920000D01*
X117367000Y-96920000D02*
X117856000Y-97409000D01*
%TO.N,+3.3V*%
X106500000Y-95557000D02*
X106500000Y-98350000D01*
X109000000Y-94537500D02*
X107519500Y-94537500D01*
X109000000Y-94537500D02*
X112500000Y-94537500D01*
X114700000Y-98190000D02*
X116050000Y-98190000D01*
X112500000Y-95990000D02*
X114700000Y-98190000D01*
X112500000Y-94537500D02*
X112500000Y-95990000D01*
X126037500Y-91767500D02*
X126037500Y-90000000D01*
X121000000Y-94380000D02*
X123425000Y-94380000D01*
X123425000Y-94380000D02*
X126037500Y-91767500D01*
D34*
%TO.N,Net-(J1-CC2)*%
X117650000Y-110522000D02*
X117618000Y-110490000D01*
X117650000Y-113830000D02*
X117650000Y-110522000D01*
%TO.N,Net-(J1-CC1)*%
X114650000Y-112745000D02*
X112395000Y-110490000D01*
X114650000Y-113830000D02*
X114650000Y-112745000D01*
X112395000Y-110490000D02*
X112284000Y-110490000D01*
%TO.N,VBUS*%
X109000000Y-110905000D02*
X109000000Y-110500000D01*
X110236000Y-112141000D02*
X109000000Y-110905000D01*
X112903000Y-112141000D02*
X110236000Y-112141000D01*
X113650000Y-113830000D02*
X113650000Y-112888000D01*
X113650000Y-112888000D02*
X112903000Y-112141000D01*
%TO.N,D+*%
X114916000Y-99460000D02*
X116050000Y-99460000D01*
X113538000Y-100838000D02*
X114916000Y-99460000D01*
X113538000Y-104394000D02*
X113538000Y-100838000D01*
X115650000Y-106506000D02*
X113538000Y-104394000D01*
%TO.N,D-*%
X116150000Y-106244000D02*
X116150000Y-113830000D01*
X114046000Y-104140000D02*
X116150000Y-106244000D01*
X114046000Y-101384000D02*
X114046000Y-104140000D01*
X114700000Y-100730000D02*
X114046000Y-101384000D01*
X116050000Y-100730000D02*
X114700000Y-100730000D01*
D35*
%TO.N,VBUS*%
X108800000Y-110300000D02*
X109000000Y-110500000D01*
X108800000Y-104650000D02*
X108800000Y-110300000D01*
%TO.N,+3.3V*%
X106500000Y-106352000D02*
X106500000Y-104650000D01*
X103889500Y-108962500D02*
X106500000Y-106352000D01*
X103000000Y-108962500D02*
X103889500Y-108962500D01*
%TO.N,Net-(U3-~{RST})*%
X154750000Y-116750000D02*
X148250000Y-116750000D01*
X148250000Y-116750000D02*
X144608000Y-113108000D01*
X144608000Y-113108000D02*
X144608000Y-110950000D01*
%TO.N,+3.3V*%
X142650000Y-107000000D02*
X142600000Y-106950000D01*
X146558000Y-107000000D02*
X142650000Y-107000000D01*
%TO.N,Net-(U3-~{RST})*%
X144608000Y-110950000D02*
X146558000Y-109000000D01*
X142600000Y-110950000D02*
X144608000Y-110950000D01*
%TO.N,+3.3V*%
X144000000Y-90205112D02*
X144000000Y-95550000D01*
X144000000Y-95550000D02*
X142600000Y-96950000D01*
X143832388Y-90037500D02*
X144000000Y-90205112D01*
X138500000Y-90037500D02*
X143832388Y-90037500D01*
X138667612Y-90205112D02*
X138500000Y-90037500D01*
X138500000Y-90037500D02*
X135000000Y-90037500D01*
X126037500Y-90000000D02*
X134962500Y-90000000D01*
X134962500Y-90000000D02*
X135000000Y-90037500D01*
X126037500Y-86687500D02*
X126075000Y-86650000D01*
X126037500Y-90000000D02*
X126037500Y-86687500D01*
%TO.N,+9V*%
X121920000Y-82296000D02*
X118716000Y-85500000D01*
X123000000Y-75882000D02*
X121920000Y-76962000D01*
X118716000Y-85500000D02*
X117000000Y-85500000D01*
X123000000Y-75000000D02*
X123000000Y-75882000D01*
%TO.N,+5V*%
X105312000Y-83312000D02*
X104205112Y-82205112D01*
X109732000Y-83312000D02*
X105312000Y-83312000D01*
X111920000Y-85500000D02*
X109732000Y-83312000D01*
%TD*%
%TA.AperFunction,Conductor*%
%TO.N,GND*%
G36*
X169458691Y-70519407D02*
G01*
X169494655Y-70568907D01*
X169499500Y-70599500D01*
X169499500Y-119400500D01*
X169480593Y-119458691D01*
X169431093Y-119494655D01*
X169400500Y-119499500D01*
X143219000Y-119499500D01*
X143160809Y-119480593D01*
X143124845Y-119431093D01*
X143120000Y-119400500D01*
X143120000Y-112250001D01*
X143120000Y-112250000D01*
X126880000Y-112250000D01*
X126880000Y-112250001D01*
X126880000Y-119400500D01*
X126861093Y-119458691D01*
X126811593Y-119494655D01*
X126781000Y-119499500D01*
X100599500Y-119499500D01*
X100541309Y-119480593D01*
X100505345Y-119431093D01*
X100500500Y-119400500D01*
X100500500Y-116621289D01*
X101649500Y-116621289D01*
X101681161Y-116861781D01*
X101681161Y-116861786D01*
X101743944Y-117096092D01*
X101743948Y-117096105D01*
X101836772Y-117320204D01*
X101836774Y-117320208D01*
X101836776Y-117320212D01*
X101958064Y-117530289D01*
X101958066Y-117530292D01*
X102105729Y-117722731D01*
X102105731Y-117722733D01*
X102105735Y-117722738D01*
X102277262Y-117894265D01*
X102277266Y-117894268D01*
X102277268Y-117894270D01*
X102297270Y-117909618D01*
X102469711Y-118041936D01*
X102679788Y-118163224D01*
X102903900Y-118256054D01*
X103138211Y-118318838D01*
X103378712Y-118350500D01*
X103378713Y-118350500D01*
X103621287Y-118350500D01*
X103621288Y-118350500D01*
X103861789Y-118318838D01*
X104096100Y-118256054D01*
X104320212Y-118163224D01*
X104530289Y-118041936D01*
X104722738Y-117894265D01*
X104894265Y-117722738D01*
X105041936Y-117530289D01*
X105163224Y-117320212D01*
X105256054Y-117096100D01*
X105318838Y-116861789D01*
X105350500Y-116621288D01*
X105350500Y-116378712D01*
X105318838Y-116138211D01*
X105256054Y-115903900D01*
X105163224Y-115679788D01*
X105041936Y-115469711D01*
X104894265Y-115277262D01*
X104722738Y-115105735D01*
X104722733Y-115105731D01*
X104722731Y-115105729D01*
X104530292Y-114958066D01*
X104500520Y-114940877D01*
X104320212Y-114836776D01*
X104320208Y-114836774D01*
X104320204Y-114836772D01*
X104096105Y-114743948D01*
X104096104Y-114743947D01*
X104096100Y-114743946D01*
X103861789Y-114681162D01*
X103861786Y-114681161D01*
X103861784Y-114681161D01*
X103621289Y-114649500D01*
X103621288Y-114649500D01*
X103378712Y-114649500D01*
X103378710Y-114649500D01*
X103138218Y-114681161D01*
X103138213Y-114681161D01*
X102903907Y-114743944D01*
X102903894Y-114743948D01*
X102679795Y-114836772D01*
X102469707Y-114958066D01*
X102277268Y-115105729D01*
X102105729Y-115277268D01*
X101958066Y-115469707D01*
X101836772Y-115679795D01*
X101743948Y-115903894D01*
X101743944Y-115903907D01*
X101681161Y-116138213D01*
X101681161Y-116138218D01*
X101649500Y-116378710D01*
X101649500Y-116621289D01*
X100500500Y-116621289D01*
X100500500Y-109354274D01*
X102074500Y-109354274D01*
X102077353Y-109384694D01*
X102077355Y-109384703D01*
X102122207Y-109512883D01*
X102202845Y-109622144D01*
X102202847Y-109622146D01*
X102202850Y-109622150D01*
X102202853Y-109622152D01*
X102202855Y-109622154D01*
X102312116Y-109702792D01*
X102312117Y-109702792D01*
X102312118Y-109702793D01*
X102440301Y-109747646D01*
X102470725Y-109750499D01*
X102470727Y-109750500D01*
X102470734Y-109750500D01*
X103529273Y-109750500D01*
X103529273Y-109750499D01*
X103559699Y-109747646D01*
X103687882Y-109702793D01*
X103696877Y-109696154D01*
X103715589Y-109682345D01*
X103773637Y-109663003D01*
X103774377Y-109663000D01*
X103958493Y-109663000D01*
X103958494Y-109663000D01*
X104093828Y-109636080D01*
X104221311Y-109583275D01*
X104336043Y-109506614D01*
X107044114Y-106798543D01*
X107120775Y-106683811D01*
X107173580Y-106556328D01*
X107200500Y-106420993D01*
X107200500Y-106283006D01*
X107200500Y-105799457D01*
X107219407Y-105741266D01*
X107239233Y-105720915D01*
X107285451Y-105685451D01*
X107377698Y-105565233D01*
X107435687Y-105425236D01*
X107450500Y-105312720D01*
X107450500Y-103987280D01*
X107435687Y-103874764D01*
X107377698Y-103734767D01*
X107285451Y-103614549D01*
X107285450Y-103614548D01*
X107285447Y-103614544D01*
X107239232Y-103579082D01*
X107204577Y-103528658D01*
X107200500Y-103500541D01*
X107200500Y-99649500D01*
X107219407Y-99591309D01*
X107268907Y-99555345D01*
X107299500Y-99550500D01*
X107956611Y-99550500D01*
X107956616Y-99550500D01*
X108027196Y-99544086D01*
X108189606Y-99493478D01*
X108335185Y-99405472D01*
X108455472Y-99285185D01*
X108543478Y-99139606D01*
X108594086Y-98977196D01*
X108600500Y-98906616D01*
X108600500Y-97793384D01*
X108594086Y-97722804D01*
X108543478Y-97560394D01*
X108539287Y-97553462D01*
X108520864Y-97522986D01*
X108455472Y-97414815D01*
X108335185Y-97294528D01*
X108236898Y-97235111D01*
X108189607Y-97206522D01*
X108189605Y-97206521D01*
X108027194Y-97155913D01*
X107956620Y-97149500D01*
X107956616Y-97149500D01*
X107049500Y-97149500D01*
X106991309Y-97130593D01*
X106955345Y-97081093D01*
X106950500Y-97050500D01*
X106950500Y-95803605D01*
X106969407Y-95745414D01*
X107011496Y-95714834D01*
X107010611Y-95712895D01*
X107017050Y-95709953D01*
X107017053Y-95709953D01*
X107138128Y-95632143D01*
X107232377Y-95523373D01*
X107276777Y-95426149D01*
X107296823Y-95397278D01*
X107677107Y-95016996D01*
X107731623Y-94989219D01*
X107747110Y-94988000D01*
X108017013Y-94988000D01*
X108075204Y-95006907D01*
X108110456Y-95054301D01*
X108121453Y-95085729D01*
X108122208Y-95087885D01*
X108202845Y-95197144D01*
X108202847Y-95197146D01*
X108202850Y-95197150D01*
X108202853Y-95197152D01*
X108202855Y-95197154D01*
X108312116Y-95277792D01*
X108312117Y-95277792D01*
X108312118Y-95277793D01*
X108440301Y-95322646D01*
X108470725Y-95325499D01*
X108470727Y-95325500D01*
X108470734Y-95325500D01*
X109529273Y-95325500D01*
X109529273Y-95325499D01*
X109559699Y-95322646D01*
X109687882Y-95277793D01*
X109797150Y-95197150D01*
X109877793Y-95087882D01*
X109889543Y-95054301D01*
X109926608Y-95005622D01*
X109982987Y-94988000D01*
X111517013Y-94988000D01*
X111575204Y-95006907D01*
X111610456Y-95054301D01*
X111621453Y-95085729D01*
X111622208Y-95087885D01*
X111702845Y-95197144D01*
X111702847Y-95197146D01*
X111702850Y-95197150D01*
X111702853Y-95197152D01*
X111702855Y-95197154D01*
X111812116Y-95277792D01*
X111812117Y-95277792D01*
X111812118Y-95277793D01*
X111940301Y-95322646D01*
X111948221Y-95323388D01*
X111959745Y-95324470D01*
X112015915Y-95348728D01*
X112047100Y-95401370D01*
X112049500Y-95423037D01*
X112049500Y-96049309D01*
X112049499Y-96049309D01*
X112061505Y-96094110D01*
X112061505Y-96094113D01*
X112061506Y-96094113D01*
X112061506Y-96094114D01*
X112080201Y-96163887D01*
X112080202Y-96163889D01*
X112080203Y-96163892D01*
X112139507Y-96266609D01*
X112139508Y-96266610D01*
X112139509Y-96266611D01*
X112139511Y-96266614D01*
X114423386Y-98550490D01*
X114526113Y-98609799D01*
X114550320Y-98616284D01*
X114550325Y-98616287D01*
X114550326Y-98616286D01*
X114640688Y-98640499D01*
X114640690Y-98640500D01*
X114640691Y-98640500D01*
X115018732Y-98640500D01*
X115062212Y-98650559D01*
X115123607Y-98680573D01*
X115191740Y-98690500D01*
X115191743Y-98690500D01*
X116908257Y-98690500D01*
X116908260Y-98690500D01*
X116976393Y-98680573D01*
X117081483Y-98629198D01*
X117164198Y-98546483D01*
X117215573Y-98441393D01*
X117215572Y-98441393D01*
X117217559Y-98437331D01*
X117260103Y-98393357D01*
X117320368Y-98382787D01*
X117375337Y-98409659D01*
X117404012Y-98463709D01*
X117405500Y-98480811D01*
X117405500Y-99169188D01*
X117386593Y-99227379D01*
X117337093Y-99263343D01*
X117275907Y-99263343D01*
X117226407Y-99227379D01*
X117217559Y-99212669D01*
X117196302Y-99169188D01*
X117164198Y-99103517D01*
X117081483Y-99020802D01*
X117081481Y-99020801D01*
X116976395Y-98969427D01*
X116949139Y-98965456D01*
X116908260Y-98959500D01*
X115191740Y-98959500D01*
X115157673Y-98964463D01*
X115123604Y-98969427D01*
X115018518Y-99020801D01*
X115018515Y-99020803D01*
X114933383Y-99105935D01*
X114878866Y-99133712D01*
X114876309Y-99134083D01*
X114873154Y-99134498D01*
X114790360Y-99156682D01*
X114718477Y-99198183D01*
X114718478Y-99198184D01*
X114716139Y-99199534D01*
X113277531Y-100638142D01*
X113234682Y-100712360D01*
X113234681Y-100712360D01*
X113234682Y-100712361D01*
X113214371Y-100788165D01*
X113212500Y-100795147D01*
X113212500Y-104351147D01*
X113212500Y-104436853D01*
X113232062Y-104509863D01*
X113234683Y-104519643D01*
X113277531Y-104593857D01*
X113277533Y-104593859D01*
X113277535Y-104593862D01*
X115295505Y-106611832D01*
X115323281Y-106666347D01*
X115324500Y-106681834D01*
X115324500Y-111979849D01*
X115305593Y-112038040D01*
X115279024Y-112063133D01*
X115193872Y-112117857D01*
X115099622Y-112226628D01*
X115039834Y-112357543D01*
X115028137Y-112438900D01*
X115001141Y-112493808D01*
X114947027Y-112522361D01*
X114886464Y-112513653D01*
X114860144Y-112494817D01*
X114849862Y-112484535D01*
X114849859Y-112484533D01*
X113113496Y-110748169D01*
X113085719Y-110693652D01*
X113084500Y-110678165D01*
X113084500Y-109985727D01*
X113084499Y-109985725D01*
X113081646Y-109955305D01*
X113081646Y-109955301D01*
X113036793Y-109827118D01*
X113017148Y-109800500D01*
X112956154Y-109717855D01*
X112956152Y-109717853D01*
X112956150Y-109717850D01*
X112956146Y-109717847D01*
X112956144Y-109717845D01*
X112846883Y-109637207D01*
X112718703Y-109592355D01*
X112718694Y-109592353D01*
X112688274Y-109589500D01*
X112688266Y-109589500D01*
X111879734Y-109589500D01*
X111879725Y-109589500D01*
X111849305Y-109592353D01*
X111849296Y-109592355D01*
X111721116Y-109637207D01*
X111611855Y-109717845D01*
X111611845Y-109717855D01*
X111531207Y-109827116D01*
X111486355Y-109955296D01*
X111486353Y-109955305D01*
X111483500Y-109985725D01*
X111483500Y-110994274D01*
X111486353Y-111024694D01*
X111486355Y-111024703D01*
X111531207Y-111152883D01*
X111611845Y-111262144D01*
X111611847Y-111262146D01*
X111611850Y-111262150D01*
X111611853Y-111262152D01*
X111611855Y-111262154D01*
X111721116Y-111342792D01*
X111721117Y-111342792D01*
X111721118Y-111342793D01*
X111849301Y-111387646D01*
X111879725Y-111390499D01*
X111879727Y-111390500D01*
X111879734Y-111390500D01*
X112688273Y-111390500D01*
X112688273Y-111390499D01*
X112718699Y-111387646D01*
X112744150Y-111378739D01*
X112805320Y-111377366D01*
X112846853Y-111402180D01*
X113113964Y-111669291D01*
X113141741Y-111723808D01*
X113132170Y-111784240D01*
X113088905Y-111827505D01*
X113028473Y-111837076D01*
X113018338Y-111834922D01*
X112990657Y-111827505D01*
X112945853Y-111815500D01*
X112945852Y-111815500D01*
X110411835Y-111815500D01*
X110353644Y-111796593D01*
X110341831Y-111786504D01*
X110017107Y-111461780D01*
X109989330Y-111407263D01*
X109990013Y-111372465D01*
X110000500Y-111319748D01*
X110000500Y-109680252D01*
X109988867Y-109621769D01*
X109944552Y-109555448D01*
X109900499Y-109526012D01*
X109878233Y-109511134D01*
X109878231Y-109511133D01*
X109878228Y-109511132D01*
X109878227Y-109511132D01*
X109819758Y-109499501D01*
X109819748Y-109499500D01*
X109819747Y-109499500D01*
X109599500Y-109499500D01*
X109541309Y-109480593D01*
X109505345Y-109431093D01*
X109500500Y-109400500D01*
X109500500Y-105799457D01*
X109519407Y-105741266D01*
X109539233Y-105720915D01*
X109585451Y-105685451D01*
X109677698Y-105565233D01*
X109735687Y-105425236D01*
X109750500Y-105312720D01*
X109750500Y-103987280D01*
X109735687Y-103874764D01*
X109677698Y-103734767D01*
X109585451Y-103614549D01*
X109465233Y-103522302D01*
X109463043Y-103521395D01*
X109325238Y-103464314D01*
X109325240Y-103464314D01*
X109325236Y-103464313D01*
X109325234Y-103464312D01*
X109325232Y-103464312D01*
X109212720Y-103449500D01*
X108387280Y-103449500D01*
X108387279Y-103449500D01*
X108274767Y-103464312D01*
X108274761Y-103464314D01*
X108134768Y-103522301D01*
X108014551Y-103614547D01*
X108014547Y-103614551D01*
X107922301Y-103734768D01*
X107864314Y-103874761D01*
X107864312Y-103874767D01*
X107849500Y-103987279D01*
X107849500Y-105312720D01*
X107864312Y-105425232D01*
X107864314Y-105425238D01*
X107906973Y-105528227D01*
X107922302Y-105565233D01*
X108014549Y-105685451D01*
X108046337Y-105709843D01*
X108060767Y-105720915D01*
X108095423Y-105771339D01*
X108099500Y-105799457D01*
X108099500Y-109473097D01*
X108080593Y-109531288D01*
X108055505Y-109555409D01*
X108055473Y-109555431D01*
X108055449Y-109555447D01*
X108055445Y-109555451D01*
X108011134Y-109621766D01*
X108011132Y-109621772D01*
X107999501Y-109680241D01*
X107999500Y-109680253D01*
X107999500Y-111319746D01*
X107999501Y-111319758D01*
X108011132Y-111378227D01*
X108011134Y-111378233D01*
X108055445Y-111444548D01*
X108055448Y-111444552D01*
X108121769Y-111488867D01*
X108166231Y-111497711D01*
X108180241Y-111500498D01*
X108180246Y-111500498D01*
X108180252Y-111500500D01*
X109094165Y-111500500D01*
X109152356Y-111519407D01*
X109164169Y-111529496D01*
X110036138Y-112401465D01*
X110036140Y-112401466D01*
X110036141Y-112401467D01*
X110036142Y-112401468D01*
X110110357Y-112444316D01*
X110110355Y-112444316D01*
X110110359Y-112444317D01*
X110110361Y-112444318D01*
X110193147Y-112466500D01*
X112727165Y-112466500D01*
X112785356Y-112485407D01*
X112797169Y-112495496D01*
X113196018Y-112894345D01*
X113223795Y-112948862D01*
X113214224Y-113009294D01*
X113170959Y-113052559D01*
X113145330Y-113061446D01*
X113121772Y-113066132D01*
X113121766Y-113066134D01*
X113055451Y-113110445D01*
X113055445Y-113110451D01*
X113011134Y-113176766D01*
X113011132Y-113176772D01*
X112999501Y-113235241D01*
X112999500Y-113235253D01*
X112999500Y-114226046D01*
X112980593Y-114284237D01*
X112931093Y-114320201D01*
X112926123Y-114321673D01*
X112787860Y-114358720D01*
X112656639Y-114434481D01*
X112549481Y-114541639D01*
X112473720Y-114672860D01*
X112464662Y-114706666D01*
X112434500Y-114819234D01*
X112434500Y-114970766D01*
X112455794Y-115050237D01*
X112473720Y-115117139D01*
X112549481Y-115248360D01*
X112549483Y-115248362D01*
X112549485Y-115248365D01*
X112656635Y-115355515D01*
X112656637Y-115355516D01*
X112656639Y-115355518D01*
X112787861Y-115431279D01*
X112787859Y-115431279D01*
X112787863Y-115431280D01*
X112787865Y-115431281D01*
X112934234Y-115470500D01*
X112934236Y-115470500D01*
X113085764Y-115470500D01*
X113085766Y-115470500D01*
X113232135Y-115431281D01*
X113232137Y-115431279D01*
X113232139Y-115431279D01*
X113363360Y-115355518D01*
X113363360Y-115355517D01*
X113363365Y-115355515D01*
X113470515Y-115248365D01*
X113546281Y-115117135D01*
X113547435Y-115112826D01*
X113580755Y-115061513D01*
X113637875Y-115039583D01*
X113696977Y-115055416D01*
X113713066Y-115068443D01*
X114844482Y-116199859D01*
X114844484Y-116199862D01*
X114905087Y-116260465D01*
X114905089Y-116260466D01*
X114979307Y-116303316D01*
X114979311Y-116303318D01*
X115062093Y-116325500D01*
X115062095Y-116325501D01*
X115062096Y-116325501D01*
X115153865Y-116325501D01*
X115153881Y-116325500D01*
X116737902Y-116325500D01*
X116737904Y-116325500D01*
X116820690Y-116303318D01*
X116820692Y-116303316D01*
X116820694Y-116303316D01*
X116894908Y-116260468D01*
X116894908Y-116260467D01*
X116894913Y-116260465D01*
X118086935Y-115068441D01*
X118141450Y-115040666D01*
X118201882Y-115050237D01*
X118245147Y-115093502D01*
X118252563Y-115112821D01*
X118253719Y-115117137D01*
X118253720Y-115117138D01*
X118329481Y-115248360D01*
X118329483Y-115248362D01*
X118329485Y-115248365D01*
X118436635Y-115355515D01*
X118436637Y-115355516D01*
X118436639Y-115355518D01*
X118567861Y-115431279D01*
X118567859Y-115431279D01*
X118567863Y-115431280D01*
X118567865Y-115431281D01*
X118714234Y-115470500D01*
X118714236Y-115470500D01*
X118865764Y-115470500D01*
X118865766Y-115470500D01*
X119012135Y-115431281D01*
X119012137Y-115431279D01*
X119012139Y-115431279D01*
X119143360Y-115355518D01*
X119143360Y-115355517D01*
X119143365Y-115355515D01*
X119250515Y-115248365D01*
X119326281Y-115117135D01*
X119365500Y-114970766D01*
X119365500Y-114819234D01*
X119326281Y-114672865D01*
X119326279Y-114672862D01*
X119326279Y-114672860D01*
X119250518Y-114541639D01*
X119250516Y-114541637D01*
X119250515Y-114541635D01*
X119143365Y-114434485D01*
X119143362Y-114434483D01*
X119143360Y-114434481D01*
X119012138Y-114358720D01*
X119012139Y-114358720D01*
X118873877Y-114321673D01*
X118822562Y-114288349D01*
X118800636Y-114231227D01*
X118800500Y-114226046D01*
X118800500Y-113235253D01*
X118800498Y-113235241D01*
X118788912Y-113176996D01*
X118788867Y-113176769D01*
X118744552Y-113110448D01*
X118744548Y-113110445D01*
X118678233Y-113066134D01*
X118678231Y-113066133D01*
X118678228Y-113066132D01*
X118678227Y-113066132D01*
X118619758Y-113054501D01*
X118619748Y-113054500D01*
X118319748Y-113054500D01*
X118074500Y-113054500D01*
X118016309Y-113035593D01*
X117980345Y-112986093D01*
X117975500Y-112955500D01*
X117975500Y-111484218D01*
X117994407Y-111426027D01*
X118043907Y-111390063D01*
X118052249Y-111387803D01*
X118052697Y-111387646D01*
X118052699Y-111387646D01*
X118180882Y-111342793D01*
X118290150Y-111262150D01*
X118370793Y-111152882D01*
X118415646Y-111024699D01*
X118418499Y-110994273D01*
X118418500Y-110994273D01*
X118418500Y-110744002D01*
X123573353Y-110744002D01*
X123593834Y-110886456D01*
X123643070Y-110994266D01*
X123653623Y-111017373D01*
X123747872Y-111126143D01*
X123747873Y-111126144D01*
X123868942Y-111203950D01*
X123868947Y-111203953D01*
X123975403Y-111235211D01*
X124007035Y-111244499D01*
X124007036Y-111244499D01*
X124007039Y-111244500D01*
X124007041Y-111244500D01*
X124150959Y-111244500D01*
X124150961Y-111244500D01*
X124289053Y-111203953D01*
X124289056Y-111203950D01*
X124290162Y-111203447D01*
X124292531Y-111202931D01*
X124295847Y-111201958D01*
X124295916Y-111202195D01*
X124331288Y-111194500D01*
X125850500Y-111194500D01*
X125908691Y-111213407D01*
X125944655Y-111262907D01*
X125949500Y-111293500D01*
X125949500Y-111469746D01*
X125949501Y-111469758D01*
X125961132Y-111528227D01*
X125961133Y-111528231D01*
X126005448Y-111594552D01*
X126071769Y-111638867D01*
X126116231Y-111647711D01*
X126130241Y-111650498D01*
X126130246Y-111650498D01*
X126130252Y-111650500D01*
X126130253Y-111650500D01*
X128669747Y-111650500D01*
X128669748Y-111650500D01*
X128728231Y-111638867D01*
X128794552Y-111594552D01*
X128838867Y-111528231D01*
X128850500Y-111469748D01*
X128850500Y-111469746D01*
X141149500Y-111469746D01*
X141149501Y-111469758D01*
X141161132Y-111528227D01*
X141161133Y-111528231D01*
X141205448Y-111594552D01*
X141271769Y-111638867D01*
X141316231Y-111647711D01*
X141330241Y-111650498D01*
X141330246Y-111650498D01*
X141330252Y-111650500D01*
X142531007Y-111650500D01*
X143808500Y-111650500D01*
X143866691Y-111669407D01*
X143902655Y-111718907D01*
X143907500Y-111749500D01*
X143907500Y-113176996D01*
X143934420Y-113312327D01*
X143934420Y-113312329D01*
X143987223Y-113439808D01*
X143987224Y-113439810D01*
X143987225Y-113439811D01*
X144063886Y-113554543D01*
X145548926Y-115039583D01*
X147029726Y-116520383D01*
X147057503Y-116574900D01*
X147058300Y-116599521D01*
X147044357Y-116750000D01*
X147064885Y-116971536D01*
X147125771Y-117185528D01*
X147224942Y-117384689D01*
X147359019Y-117562236D01*
X147523438Y-117712124D01*
X147712599Y-117829247D01*
X147920060Y-117909618D01*
X148138757Y-117950500D01*
X148361243Y-117950500D01*
X148579940Y-117909618D01*
X148787401Y-117829247D01*
X148976562Y-117712124D01*
X149140981Y-117562236D01*
X149195653Y-117489839D01*
X149245809Y-117454796D01*
X149274656Y-117450500D01*
X153725344Y-117450500D01*
X153783535Y-117469407D01*
X153804347Y-117489839D01*
X153859019Y-117562236D01*
X154023438Y-117712124D01*
X154212599Y-117829247D01*
X154420060Y-117909618D01*
X154638757Y-117950500D01*
X154861243Y-117950500D01*
X155079940Y-117909618D01*
X155287401Y-117829247D01*
X155476562Y-117712124D01*
X155640981Y-117562236D01*
X155775058Y-117384689D01*
X155874229Y-117185528D01*
X155935115Y-116971536D01*
X155955643Y-116750000D01*
X155943716Y-116621289D01*
X164649500Y-116621289D01*
X164681161Y-116861781D01*
X164681161Y-116861786D01*
X164743944Y-117096092D01*
X164743948Y-117096105D01*
X164836772Y-117320204D01*
X164836774Y-117320208D01*
X164836776Y-117320212D01*
X164958064Y-117530289D01*
X164958066Y-117530292D01*
X165105729Y-117722731D01*
X165105731Y-117722733D01*
X165105735Y-117722738D01*
X165277262Y-117894265D01*
X165277266Y-117894268D01*
X165277268Y-117894270D01*
X165297270Y-117909618D01*
X165469711Y-118041936D01*
X165679788Y-118163224D01*
X165903900Y-118256054D01*
X166138211Y-118318838D01*
X166378712Y-118350500D01*
X166378713Y-118350500D01*
X166621287Y-118350500D01*
X166621288Y-118350500D01*
X166861789Y-118318838D01*
X167096100Y-118256054D01*
X167320212Y-118163224D01*
X167530289Y-118041936D01*
X167722738Y-117894265D01*
X167894265Y-117722738D01*
X168041936Y-117530289D01*
X168163224Y-117320212D01*
X168256054Y-117096100D01*
X168318838Y-116861789D01*
X168350500Y-116621288D01*
X168350500Y-116378712D01*
X168318838Y-116138211D01*
X168256054Y-115903900D01*
X168163224Y-115679788D01*
X168041936Y-115469711D01*
X167894265Y-115277262D01*
X167722738Y-115105735D01*
X167722733Y-115105731D01*
X167722731Y-115105729D01*
X167530292Y-114958066D01*
X167500520Y-114940877D01*
X167320212Y-114836776D01*
X167320208Y-114836774D01*
X167320204Y-114836772D01*
X167096105Y-114743948D01*
X167096104Y-114743947D01*
X167096100Y-114743946D01*
X166861789Y-114681162D01*
X166861786Y-114681161D01*
X166861784Y-114681161D01*
X166621289Y-114649500D01*
X166621288Y-114649500D01*
X166378712Y-114649500D01*
X166378710Y-114649500D01*
X166138218Y-114681161D01*
X166138213Y-114681161D01*
X165903907Y-114743944D01*
X165903894Y-114743948D01*
X165679795Y-114836772D01*
X165469707Y-114958066D01*
X165277268Y-115105729D01*
X165105729Y-115277268D01*
X164958066Y-115469707D01*
X164836772Y-115679795D01*
X164743948Y-115903894D01*
X164743944Y-115903907D01*
X164681161Y-116138213D01*
X164681161Y-116138218D01*
X164649500Y-116378710D01*
X164649500Y-116621289D01*
X155943716Y-116621289D01*
X155935115Y-116528464D01*
X155874229Y-116314472D01*
X155775058Y-116115311D01*
X155640981Y-115937764D01*
X155476562Y-115787876D01*
X155287401Y-115670753D01*
X155079940Y-115590382D01*
X155079939Y-115590381D01*
X155079937Y-115590381D01*
X154861243Y-115549500D01*
X154638757Y-115549500D01*
X154420062Y-115590381D01*
X154343797Y-115619926D01*
X154212599Y-115670753D01*
X154023438Y-115787876D01*
X153859017Y-115937766D01*
X153804347Y-116010161D01*
X153754191Y-116045204D01*
X153725344Y-116049500D01*
X149274656Y-116049500D01*
X149216465Y-116030593D01*
X149195653Y-116010161D01*
X149171801Y-115978577D01*
X149140981Y-115937764D01*
X148976562Y-115787876D01*
X148787401Y-115670753D01*
X148579940Y-115590382D01*
X148579939Y-115590381D01*
X148579937Y-115590381D01*
X148361243Y-115549500D01*
X148138757Y-115549500D01*
X148115339Y-115553877D01*
X148106978Y-115555440D01*
X148046304Y-115547545D01*
X148018786Y-115528129D01*
X145337496Y-112846839D01*
X145309719Y-112792322D01*
X145308500Y-112776835D01*
X145308500Y-111281164D01*
X145327407Y-111222973D01*
X145337496Y-111211160D01*
X146719160Y-109829496D01*
X146773677Y-109801719D01*
X146789164Y-109800500D01*
X147062273Y-109800500D01*
X147062273Y-109800499D01*
X147092699Y-109797646D01*
X147220882Y-109752793D01*
X147330150Y-109672150D01*
X147410793Y-109562882D01*
X147455646Y-109434699D01*
X147458499Y-109404273D01*
X147458500Y-109404273D01*
X147458500Y-108595727D01*
X147458499Y-108595725D01*
X147455646Y-108565301D01*
X147410793Y-108437118D01*
X147405726Y-108430253D01*
X147330154Y-108327855D01*
X147330152Y-108327853D01*
X147330150Y-108327850D01*
X147330146Y-108327847D01*
X147330144Y-108327845D01*
X147220883Y-108247207D01*
X147092703Y-108202355D01*
X147092694Y-108202353D01*
X147062274Y-108199500D01*
X147062266Y-108199500D01*
X146053734Y-108199500D01*
X146053725Y-108199500D01*
X146023305Y-108202353D01*
X146023296Y-108202355D01*
X145895116Y-108247207D01*
X145785855Y-108327845D01*
X145785845Y-108327855D01*
X145705207Y-108437116D01*
X145660355Y-108565296D01*
X145660353Y-108565305D01*
X145657500Y-108595725D01*
X145657500Y-108868835D01*
X145638593Y-108927026D01*
X145628504Y-108938839D01*
X144346839Y-110220504D01*
X144292322Y-110248281D01*
X144276835Y-110249500D01*
X143869748Y-110249500D01*
X141330252Y-110249500D01*
X141330251Y-110249500D01*
X141330241Y-110249501D01*
X141271772Y-110261132D01*
X141271766Y-110261134D01*
X141205451Y-110305445D01*
X141205445Y-110305451D01*
X141161134Y-110371766D01*
X141161132Y-110371772D01*
X141149501Y-110430241D01*
X141149500Y-110430253D01*
X141149500Y-111469746D01*
X128850500Y-111469746D01*
X128850500Y-110430252D01*
X128838867Y-110371769D01*
X128794552Y-110305448D01*
X128794548Y-110305445D01*
X128728233Y-110261134D01*
X128728231Y-110261133D01*
X128728228Y-110261132D01*
X128728227Y-110261132D01*
X128669758Y-110249501D01*
X128669748Y-110249500D01*
X126130252Y-110249500D01*
X126130251Y-110249500D01*
X126130241Y-110249501D01*
X126071772Y-110261132D01*
X126071769Y-110261133D01*
X126048297Y-110276816D01*
X125993298Y-110293500D01*
X124331288Y-110293500D01*
X124295916Y-110285804D01*
X124295847Y-110286042D01*
X124292531Y-110285068D01*
X124290162Y-110284553D01*
X124289056Y-110284048D01*
X124289049Y-110284046D01*
X124256808Y-110274579D01*
X124150964Y-110243500D01*
X124150961Y-110243500D01*
X124007039Y-110243500D01*
X124007035Y-110243500D01*
X123868949Y-110284046D01*
X123868942Y-110284049D01*
X123747873Y-110361855D01*
X123653622Y-110470628D01*
X123593834Y-110601543D01*
X123573353Y-110743997D01*
X123573353Y-110744002D01*
X118418500Y-110744002D01*
X118418500Y-109985727D01*
X118418499Y-109985725D01*
X118415646Y-109955305D01*
X118415646Y-109955301D01*
X118370793Y-109827118D01*
X118351148Y-109800500D01*
X118290154Y-109717855D01*
X118290152Y-109717853D01*
X118290150Y-109717850D01*
X118290146Y-109717847D01*
X118290144Y-109717845D01*
X118180883Y-109637207D01*
X118052703Y-109592355D01*
X118052694Y-109592353D01*
X118022274Y-109589500D01*
X118022266Y-109589500D01*
X117213734Y-109589500D01*
X117213725Y-109589500D01*
X117183305Y-109592353D01*
X117183296Y-109592355D01*
X117055116Y-109637207D01*
X116945855Y-109717845D01*
X116945845Y-109717855D01*
X116865207Y-109827116D01*
X116820355Y-109955296D01*
X116820353Y-109955305D01*
X116817500Y-109985725D01*
X116817500Y-110994274D01*
X116820353Y-111024694D01*
X116820355Y-111024703D01*
X116865207Y-111152883D01*
X116945845Y-111262144D01*
X116945847Y-111262146D01*
X116945850Y-111262150D01*
X116945853Y-111262152D01*
X116945855Y-111262154D01*
X117055116Y-111342792D01*
X117055117Y-111342792D01*
X117055118Y-111342793D01*
X117183301Y-111387646D01*
X117213725Y-111390499D01*
X117213727Y-111390500D01*
X117213734Y-111390500D01*
X117225500Y-111390500D01*
X117283691Y-111409407D01*
X117319655Y-111458907D01*
X117324500Y-111489500D01*
X117324500Y-111941403D01*
X117305593Y-111999594D01*
X117256093Y-112035558D01*
X117197609Y-112036393D01*
X117071964Y-111999500D01*
X117071961Y-111999500D01*
X116928039Y-111999500D01*
X116928035Y-111999500D01*
X116789949Y-112040046D01*
X116789942Y-112040049D01*
X116668872Y-112117856D01*
X116649319Y-112140422D01*
X116596922Y-112172017D01*
X116535961Y-112166781D01*
X116489721Y-112126712D01*
X116475500Y-112075590D01*
X116475500Y-106201148D01*
X116475500Y-106201147D01*
X116453318Y-106118362D01*
X116410465Y-106044138D01*
X116387161Y-106020834D01*
X116349862Y-105983534D01*
X116349862Y-105983535D01*
X114400496Y-104034169D01*
X114372719Y-103979652D01*
X114371500Y-103964165D01*
X114371500Y-101559834D01*
X114390407Y-101501643D01*
X114400496Y-101489830D01*
X114799819Y-101090507D01*
X114854336Y-101062730D01*
X114914768Y-101072301D01*
X114939823Y-101090504D01*
X115018517Y-101169198D01*
X115072285Y-101195483D01*
X115123604Y-101220572D01*
X115123605Y-101220572D01*
X115123607Y-101220573D01*
X115191740Y-101230500D01*
X115191743Y-101230500D01*
X116908257Y-101230500D01*
X116908260Y-101230500D01*
X116976393Y-101220573D01*
X117081483Y-101169198D01*
X117164198Y-101086483D01*
X117211138Y-100990465D01*
X117217559Y-100977331D01*
X117260103Y-100933357D01*
X117320368Y-100922787D01*
X117375337Y-100949659D01*
X117404012Y-101003709D01*
X117405500Y-101020811D01*
X117405500Y-101709188D01*
X117386593Y-101767379D01*
X117337093Y-101803343D01*
X117275907Y-101803343D01*
X117226407Y-101767379D01*
X117217559Y-101752669D01*
X117184608Y-101685267D01*
X117164198Y-101643517D01*
X117081483Y-101560802D01*
X117079503Y-101559834D01*
X116976395Y-101509427D01*
X116949139Y-101505456D01*
X116908260Y-101499500D01*
X115191740Y-101499500D01*
X115157673Y-101504463D01*
X115123604Y-101509427D01*
X115018518Y-101560801D01*
X114935801Y-101643518D01*
X114884427Y-101748604D01*
X114884427Y-101748607D01*
X114874500Y-101816740D01*
X114874500Y-102183260D01*
X114881118Y-102228682D01*
X114884427Y-102251395D01*
X114935801Y-102356481D01*
X114935802Y-102356483D01*
X115018517Y-102439198D01*
X115050293Y-102454732D01*
X115123604Y-102490572D01*
X115123605Y-102490572D01*
X115123607Y-102490573D01*
X115191740Y-102500500D01*
X115191743Y-102500500D01*
X116908257Y-102500500D01*
X116908260Y-102500500D01*
X116976393Y-102490573D01*
X117081483Y-102439198D01*
X117164198Y-102356483D01*
X117210811Y-102261134D01*
X117217559Y-102247331D01*
X117260103Y-102203357D01*
X117320368Y-102192787D01*
X117375337Y-102219659D01*
X117404012Y-102273709D01*
X117405500Y-102290811D01*
X117405500Y-102979188D01*
X117386593Y-103037379D01*
X117337093Y-103073343D01*
X117275907Y-103073343D01*
X117226407Y-103037379D01*
X117217559Y-103022669D01*
X117196302Y-102979188D01*
X117164198Y-102913517D01*
X117081483Y-102830802D01*
X117081481Y-102830801D01*
X116976395Y-102779427D01*
X116949139Y-102775456D01*
X116908260Y-102769500D01*
X115191740Y-102769500D01*
X115157673Y-102774463D01*
X115123604Y-102779427D01*
X115018518Y-102830801D01*
X114935801Y-102913518D01*
X114884427Y-103018604D01*
X114884427Y-103018607D01*
X114874500Y-103086740D01*
X114874500Y-103453260D01*
X114876904Y-103469758D01*
X114884427Y-103521395D01*
X114912629Y-103579082D01*
X114935802Y-103626483D01*
X115018517Y-103709198D01*
X115070820Y-103734767D01*
X115123604Y-103760572D01*
X115123605Y-103760572D01*
X115123607Y-103760573D01*
X115191740Y-103770500D01*
X115191743Y-103770500D01*
X116908257Y-103770500D01*
X116908260Y-103770500D01*
X116976393Y-103760573D01*
X117081483Y-103709198D01*
X117164198Y-103626483D01*
X117215573Y-103521393D01*
X117215572Y-103521393D01*
X117217559Y-103517331D01*
X117260103Y-103473357D01*
X117320368Y-103462787D01*
X117375337Y-103489659D01*
X117404012Y-103543709D01*
X117405500Y-103560811D01*
X117405500Y-104072311D01*
X117421905Y-104133532D01*
X117421905Y-104133534D01*
X117421906Y-104133534D01*
X117421906Y-104133535D01*
X117436201Y-104186887D01*
X117436202Y-104186889D01*
X117436203Y-104186892D01*
X117495507Y-104289609D01*
X117495509Y-104289611D01*
X117495511Y-104289614D01*
X122516386Y-109310489D01*
X122553319Y-109331812D01*
X122619114Y-109369799D01*
X122733691Y-109400500D01*
X125854478Y-109400500D01*
X125912669Y-109419407D01*
X125948633Y-109468907D01*
X125951575Y-109480184D01*
X125961132Y-109528227D01*
X125961134Y-109528233D01*
X126003979Y-109592354D01*
X126005448Y-109594552D01*
X126071769Y-109638867D01*
X126116231Y-109647711D01*
X126130241Y-109650498D01*
X126130246Y-109650498D01*
X126130252Y-109650500D01*
X126130253Y-109650500D01*
X128669747Y-109650500D01*
X128669748Y-109650500D01*
X128728231Y-109638867D01*
X128794552Y-109594552D01*
X128838867Y-109528231D01*
X128850500Y-109469748D01*
X128850500Y-109469746D01*
X141149500Y-109469746D01*
X141149501Y-109469758D01*
X141161132Y-109528227D01*
X141161134Y-109528233D01*
X141203979Y-109592354D01*
X141205448Y-109594552D01*
X141271769Y-109638867D01*
X141316231Y-109647711D01*
X141330241Y-109650498D01*
X141330246Y-109650498D01*
X141330252Y-109650500D01*
X141330253Y-109650500D01*
X143869747Y-109650500D01*
X143869748Y-109650500D01*
X143928231Y-109638867D01*
X143994552Y-109594552D01*
X144038867Y-109528231D01*
X144050500Y-109469748D01*
X144050500Y-108430252D01*
X144038867Y-108371769D01*
X143994552Y-108305448D01*
X143994548Y-108305445D01*
X143928233Y-108261134D01*
X143928231Y-108261133D01*
X143928228Y-108261132D01*
X143928227Y-108261132D01*
X143869758Y-108249501D01*
X143869748Y-108249500D01*
X141330252Y-108249500D01*
X141330251Y-108249500D01*
X141330241Y-108249501D01*
X141271772Y-108261132D01*
X141271766Y-108261134D01*
X141205451Y-108305445D01*
X141205445Y-108305451D01*
X141161134Y-108371766D01*
X141161132Y-108371772D01*
X141149501Y-108430241D01*
X141149500Y-108430253D01*
X141149500Y-109469746D01*
X128850500Y-109469746D01*
X128850500Y-108430252D01*
X128838867Y-108371769D01*
X128794552Y-108305448D01*
X128794548Y-108305445D01*
X128728233Y-108261134D01*
X128728231Y-108261133D01*
X128728228Y-108261132D01*
X128728227Y-108261132D01*
X128669758Y-108249501D01*
X128669748Y-108249500D01*
X126130252Y-108249500D01*
X126130251Y-108249500D01*
X126130241Y-108249501D01*
X126071772Y-108261132D01*
X126071766Y-108261134D01*
X126005451Y-108305445D01*
X126005445Y-108305451D01*
X125961134Y-108371766D01*
X125961132Y-108371772D01*
X125951575Y-108419816D01*
X125921678Y-108473199D01*
X125866112Y-108498814D01*
X125854478Y-108499500D01*
X123020611Y-108499500D01*
X122962420Y-108480593D01*
X122950607Y-108470504D01*
X122667910Y-108187807D01*
X122640133Y-108133290D01*
X122649704Y-108072858D01*
X122692969Y-108029593D01*
X122743202Y-108020965D01*
X122743202Y-108019500D01*
X122749691Y-108019500D01*
X123826712Y-108019500D01*
X123862083Y-108027195D01*
X123862153Y-108026958D01*
X123865468Y-108027931D01*
X123867838Y-108028447D01*
X123868943Y-108028951D01*
X123868944Y-108028951D01*
X123868947Y-108028953D01*
X123982939Y-108062423D01*
X124007035Y-108069499D01*
X124007036Y-108069499D01*
X124007039Y-108069500D01*
X124007041Y-108069500D01*
X124150959Y-108069500D01*
X124150961Y-108069500D01*
X124289053Y-108028953D01*
X124410128Y-107951143D01*
X124504377Y-107842373D01*
X124564165Y-107711457D01*
X124572929Y-107650500D01*
X124584647Y-107569002D01*
X124584647Y-107568997D01*
X124570377Y-107469746D01*
X125949500Y-107469746D01*
X125949501Y-107469758D01*
X125961132Y-107528227D01*
X125961134Y-107528233D01*
X126005445Y-107594548D01*
X126005448Y-107594552D01*
X126071769Y-107638867D01*
X126116231Y-107647711D01*
X126130241Y-107650498D01*
X126130246Y-107650498D01*
X126130252Y-107650500D01*
X126130253Y-107650500D01*
X128669747Y-107650500D01*
X128669748Y-107650500D01*
X128728231Y-107638867D01*
X128794552Y-107594552D01*
X128838867Y-107528231D01*
X128850500Y-107469748D01*
X128850500Y-106430252D01*
X128838867Y-106371769D01*
X128794552Y-106305448D01*
X128794548Y-106305445D01*
X128728233Y-106261134D01*
X128728231Y-106261133D01*
X128728228Y-106261132D01*
X128728227Y-106261132D01*
X128669758Y-106249501D01*
X128669748Y-106249500D01*
X126130252Y-106249500D01*
X126130251Y-106249500D01*
X126130241Y-106249501D01*
X126071772Y-106261132D01*
X126071766Y-106261134D01*
X126005451Y-106305445D01*
X126005445Y-106305451D01*
X125961134Y-106371766D01*
X125961132Y-106371772D01*
X125949501Y-106430241D01*
X125949500Y-106430253D01*
X125949500Y-107469746D01*
X124570377Y-107469746D01*
X124564165Y-107426543D01*
X124553995Y-107404274D01*
X124504377Y-107295627D01*
X124410128Y-107186857D01*
X124410127Y-107186856D01*
X124410126Y-107186855D01*
X124289057Y-107109049D01*
X124289054Y-107109047D01*
X124289053Y-107109047D01*
X124289050Y-107109046D01*
X124150964Y-107068500D01*
X124150961Y-107068500D01*
X124007039Y-107068500D01*
X124007035Y-107068500D01*
X123868943Y-107109048D01*
X123867838Y-107109553D01*
X123865468Y-107110068D01*
X123862153Y-107111042D01*
X123862083Y-107110804D01*
X123826712Y-107118500D01*
X123036612Y-107118500D01*
X122978421Y-107099593D01*
X122966608Y-107089504D01*
X121346850Y-105469746D01*
X125949500Y-105469746D01*
X125949501Y-105469758D01*
X125961132Y-105528227D01*
X125961133Y-105528231D01*
X126005448Y-105594552D01*
X126071769Y-105638867D01*
X126116231Y-105647711D01*
X126130241Y-105650498D01*
X126130246Y-105650498D01*
X126130252Y-105650500D01*
X126130253Y-105650500D01*
X128669747Y-105650500D01*
X128669748Y-105650500D01*
X128728231Y-105638867D01*
X128794552Y-105594552D01*
X128838867Y-105528231D01*
X128850500Y-105469748D01*
X128850500Y-104430252D01*
X128838867Y-104371769D01*
X128794552Y-104305448D01*
X128794548Y-104305445D01*
X128728233Y-104261134D01*
X128728231Y-104261133D01*
X128728228Y-104261132D01*
X128728227Y-104261132D01*
X128669758Y-104249501D01*
X128669748Y-104249500D01*
X126130252Y-104249500D01*
X126130251Y-104249500D01*
X126130241Y-104249501D01*
X126071772Y-104261132D01*
X126071766Y-104261134D01*
X126005451Y-104305445D01*
X126005445Y-104305451D01*
X125961134Y-104371766D01*
X125961132Y-104371772D01*
X125949501Y-104430241D01*
X125949500Y-104430253D01*
X125949500Y-105469746D01*
X121346850Y-105469746D01*
X119478496Y-103601392D01*
X119450719Y-103546875D01*
X119449500Y-103531388D01*
X119449500Y-103453260D01*
X119824500Y-103453260D01*
X119826904Y-103469758D01*
X119834427Y-103521395D01*
X119862629Y-103579082D01*
X119885802Y-103626483D01*
X119968517Y-103709198D01*
X120020820Y-103734767D01*
X120073604Y-103760572D01*
X120073605Y-103760572D01*
X120073607Y-103760573D01*
X120141740Y-103770500D01*
X120141743Y-103770500D01*
X121858257Y-103770500D01*
X121858260Y-103770500D01*
X121926393Y-103760573D01*
X122031483Y-103709198D01*
X122114198Y-103626483D01*
X122165573Y-103521393D01*
X122173098Y-103469746D01*
X125949500Y-103469746D01*
X125949501Y-103469758D01*
X125961132Y-103528227D01*
X125961134Y-103528233D01*
X125995111Y-103579082D01*
X126005448Y-103594552D01*
X126071769Y-103638867D01*
X126116231Y-103647711D01*
X126130241Y-103650498D01*
X126130246Y-103650498D01*
X126130252Y-103650500D01*
X126130253Y-103650500D01*
X128669747Y-103650500D01*
X128669748Y-103650500D01*
X128728231Y-103638867D01*
X128794552Y-103594552D01*
X128838867Y-103528231D01*
X128850500Y-103469748D01*
X128850500Y-102430252D01*
X128838867Y-102371769D01*
X128794552Y-102305448D01*
X128772647Y-102290811D01*
X128728233Y-102261134D01*
X128728231Y-102261133D01*
X128728228Y-102261132D01*
X128728227Y-102261132D01*
X128669758Y-102249501D01*
X128669748Y-102249500D01*
X126130252Y-102249500D01*
X126130251Y-102249500D01*
X126130241Y-102249501D01*
X126071772Y-102261132D01*
X126071766Y-102261134D01*
X126005451Y-102305445D01*
X126005445Y-102305451D01*
X125961134Y-102371766D01*
X125961132Y-102371772D01*
X125949501Y-102430241D01*
X125949500Y-102430253D01*
X125949500Y-103469746D01*
X122173098Y-103469746D01*
X122175500Y-103453260D01*
X122175500Y-103086740D01*
X122165573Y-103018607D01*
X122155895Y-102998811D01*
X122114198Y-102913518D01*
X122114198Y-102913517D01*
X122031483Y-102830802D01*
X122031481Y-102830801D01*
X121926395Y-102779427D01*
X121899139Y-102775456D01*
X121858260Y-102769500D01*
X120141740Y-102769500D01*
X120107673Y-102774463D01*
X120073604Y-102779427D01*
X119968518Y-102830801D01*
X119885801Y-102913518D01*
X119834427Y-103018604D01*
X119834427Y-103018607D01*
X119824500Y-103086740D01*
X119824500Y-103453260D01*
X119449500Y-103453260D01*
X119449500Y-102183260D01*
X119824500Y-102183260D01*
X119831118Y-102228682D01*
X119834427Y-102251395D01*
X119885801Y-102356481D01*
X119885802Y-102356483D01*
X119968517Y-102439198D01*
X120000293Y-102454732D01*
X120073604Y-102490572D01*
X120073605Y-102490572D01*
X120073607Y-102490573D01*
X120141740Y-102500500D01*
X120141743Y-102500500D01*
X121858257Y-102500500D01*
X121858260Y-102500500D01*
X121926393Y-102490573D01*
X122031483Y-102439198D01*
X122114198Y-102356483D01*
X122165573Y-102251393D01*
X122175500Y-102183260D01*
X122175500Y-101816740D01*
X122165573Y-101748607D01*
X122114198Y-101643517D01*
X122031483Y-101560802D01*
X122029503Y-101559834D01*
X121926395Y-101509427D01*
X121899139Y-101505456D01*
X121858260Y-101499500D01*
X120141740Y-101499500D01*
X120107673Y-101504463D01*
X120073604Y-101509427D01*
X119968518Y-101560801D01*
X119885801Y-101643518D01*
X119834427Y-101748604D01*
X119834427Y-101748607D01*
X119824500Y-101816740D01*
X119824500Y-102183260D01*
X119449500Y-102183260D01*
X119449500Y-101469746D01*
X125949500Y-101469746D01*
X125949501Y-101469758D01*
X125961132Y-101528227D01*
X125961134Y-101528233D01*
X125989560Y-101570775D01*
X126005448Y-101594552D01*
X126071769Y-101638867D01*
X126116231Y-101647711D01*
X126130241Y-101650498D01*
X126130246Y-101650498D01*
X126130252Y-101650500D01*
X126130253Y-101650500D01*
X128669747Y-101650500D01*
X128669748Y-101650500D01*
X128728231Y-101638867D01*
X128794552Y-101594552D01*
X128838867Y-101528231D01*
X128850500Y-101469748D01*
X128850500Y-100430252D01*
X128838867Y-100371769D01*
X128794552Y-100305448D01*
X128794548Y-100305445D01*
X128728233Y-100261134D01*
X128728231Y-100261133D01*
X128728228Y-100261132D01*
X128728227Y-100261132D01*
X128669758Y-100249501D01*
X128669748Y-100249500D01*
X126130252Y-100249500D01*
X126130251Y-100249500D01*
X126130241Y-100249501D01*
X126071772Y-100261132D01*
X126071766Y-100261134D01*
X126005451Y-100305445D01*
X126005445Y-100305451D01*
X125961134Y-100371766D01*
X125961132Y-100371772D01*
X125949501Y-100430241D01*
X125949500Y-100430253D01*
X125949500Y-101469746D01*
X119449500Y-101469746D01*
X119449500Y-100913260D01*
X119824500Y-100913260D01*
X119827428Y-100933357D01*
X119834427Y-100981395D01*
X119870655Y-101055500D01*
X119885802Y-101086483D01*
X119968517Y-101169198D01*
X120022285Y-101195483D01*
X120073604Y-101220572D01*
X120073605Y-101220572D01*
X120073607Y-101220573D01*
X120141740Y-101230500D01*
X120141743Y-101230500D01*
X121858257Y-101230500D01*
X121858260Y-101230500D01*
X121926393Y-101220573D01*
X122031483Y-101169198D01*
X122114198Y-101086483D01*
X122165573Y-100981393D01*
X122175500Y-100913260D01*
X122175500Y-100546740D01*
X122165573Y-100478607D01*
X122155895Y-100458811D01*
X122140189Y-100426682D01*
X122114198Y-100373517D01*
X122031483Y-100290802D01*
X122031481Y-100290801D01*
X121926395Y-100239427D01*
X121899139Y-100235456D01*
X121858260Y-100229500D01*
X120141740Y-100229500D01*
X120107673Y-100234463D01*
X120073604Y-100239427D01*
X119968518Y-100290801D01*
X119885801Y-100373518D01*
X119834427Y-100478604D01*
X119834427Y-100478607D01*
X119824500Y-100546740D01*
X119824500Y-100913260D01*
X119449500Y-100913260D01*
X119449500Y-99643260D01*
X119824500Y-99643260D01*
X119827428Y-99663357D01*
X119834427Y-99711395D01*
X119864217Y-99772330D01*
X119885802Y-99816483D01*
X119968517Y-99899198D01*
X120000293Y-99914732D01*
X120073604Y-99950572D01*
X120073605Y-99950572D01*
X120073607Y-99950573D01*
X120141740Y-99960500D01*
X120141743Y-99960500D01*
X121858257Y-99960500D01*
X121858260Y-99960500D01*
X121926393Y-99950573D01*
X122031483Y-99899198D01*
X122114198Y-99816483D01*
X122165573Y-99711393D01*
X122175500Y-99643260D01*
X122175500Y-99469746D01*
X125949500Y-99469746D01*
X125949501Y-99469758D01*
X125961132Y-99528227D01*
X125961134Y-99528233D01*
X125976012Y-99550499D01*
X126005448Y-99594552D01*
X126071769Y-99638867D01*
X126116231Y-99647711D01*
X126130241Y-99650498D01*
X126130246Y-99650498D01*
X126130252Y-99650500D01*
X126130253Y-99650500D01*
X128669747Y-99650500D01*
X128669748Y-99650500D01*
X128728231Y-99638867D01*
X128794552Y-99594552D01*
X128838867Y-99528231D01*
X128850500Y-99469748D01*
X128850500Y-98430252D01*
X128838867Y-98371769D01*
X128794552Y-98305448D01*
X128771668Y-98290157D01*
X128728233Y-98261134D01*
X128728231Y-98261133D01*
X128728228Y-98261132D01*
X128728227Y-98261132D01*
X128669758Y-98249501D01*
X128669748Y-98249500D01*
X126130252Y-98249500D01*
X126130251Y-98249500D01*
X126130241Y-98249501D01*
X126071772Y-98261132D01*
X126071766Y-98261134D01*
X126005451Y-98305445D01*
X126005445Y-98305451D01*
X125961134Y-98371766D01*
X125961132Y-98371772D01*
X125949501Y-98430241D01*
X125949500Y-98430253D01*
X125949500Y-99469746D01*
X122175500Y-99469746D01*
X122175500Y-99276740D01*
X122165573Y-99208607D01*
X122114198Y-99103517D01*
X122031483Y-99020802D01*
X122031481Y-99020801D01*
X121926395Y-98969427D01*
X121899139Y-98965456D01*
X121858260Y-98959500D01*
X120141740Y-98959500D01*
X120107673Y-98964463D01*
X120073604Y-98969427D01*
X119968518Y-99020801D01*
X119885801Y-99103518D01*
X119834427Y-99208604D01*
X119834427Y-99208607D01*
X119824500Y-99276740D01*
X119824500Y-99643260D01*
X119449500Y-99643260D01*
X119449500Y-98373260D01*
X119824500Y-98373260D01*
X119827428Y-98393357D01*
X119834427Y-98441395D01*
X119875133Y-98524659D01*
X119885802Y-98546483D01*
X119968517Y-98629198D01*
X120012212Y-98650559D01*
X120073604Y-98680572D01*
X120073605Y-98680572D01*
X120073607Y-98680573D01*
X120141740Y-98690500D01*
X120141743Y-98690500D01*
X121858257Y-98690500D01*
X121858260Y-98690500D01*
X121926393Y-98680573D01*
X122031483Y-98629198D01*
X122114198Y-98546483D01*
X122165573Y-98441393D01*
X122175500Y-98373260D01*
X122175500Y-98006740D01*
X122165573Y-97938607D01*
X122155895Y-97918811D01*
X122140483Y-97887285D01*
X122114198Y-97833517D01*
X122031483Y-97750802D01*
X122031481Y-97750801D01*
X121926395Y-97699427D01*
X121899139Y-97695456D01*
X121858260Y-97689500D01*
X120141740Y-97689500D01*
X120107673Y-97694463D01*
X120073604Y-97699427D01*
X119968518Y-97750801D01*
X119885801Y-97833518D01*
X119834427Y-97938604D01*
X119834427Y-97938607D01*
X119824500Y-98006740D01*
X119824500Y-98373260D01*
X119449500Y-98373260D01*
X119449500Y-97103260D01*
X119824500Y-97103260D01*
X119828744Y-97132386D01*
X119834427Y-97171395D01*
X119865578Y-97235114D01*
X119885802Y-97276483D01*
X119968517Y-97359198D01*
X120000293Y-97374732D01*
X120073604Y-97410572D01*
X120073605Y-97410572D01*
X120073607Y-97410573D01*
X120141740Y-97420500D01*
X120141743Y-97420500D01*
X121858257Y-97420500D01*
X121858260Y-97420500D01*
X121926393Y-97410573D01*
X122031483Y-97359198D01*
X122114198Y-97276483D01*
X122165573Y-97171393D01*
X122175500Y-97103260D01*
X122175500Y-96736740D01*
X122165573Y-96668607D01*
X122114198Y-96563517D01*
X122031483Y-96480802D01*
X122031481Y-96480801D01*
X121926395Y-96429427D01*
X121899139Y-96425456D01*
X121858260Y-96419500D01*
X120141740Y-96419500D01*
X120107673Y-96424463D01*
X120073604Y-96429427D01*
X119968518Y-96480801D01*
X119885801Y-96563518D01*
X119834427Y-96668604D01*
X119834427Y-96668607D01*
X119824500Y-96736740D01*
X119824500Y-97103260D01*
X119449500Y-97103260D01*
X119449500Y-96841692D01*
X119418799Y-96727114D01*
X119418799Y-96727112D01*
X119359492Y-96624390D01*
X119359490Y-96624388D01*
X119359489Y-96624386D01*
X119104849Y-96369746D01*
X129299500Y-96369746D01*
X129299501Y-96369758D01*
X129311132Y-96428227D01*
X129311134Y-96428233D01*
X129354887Y-96493713D01*
X129355448Y-96494552D01*
X129421769Y-96538867D01*
X129466231Y-96547711D01*
X129480241Y-96550498D01*
X129480246Y-96550498D01*
X129480252Y-96550500D01*
X129480253Y-96550500D01*
X130519747Y-96550500D01*
X130519748Y-96550500D01*
X130578231Y-96538867D01*
X130644552Y-96494552D01*
X130688867Y-96428231D01*
X130700500Y-96369748D01*
X130700500Y-96369746D01*
X131299500Y-96369746D01*
X131299501Y-96369758D01*
X131311132Y-96428227D01*
X131311134Y-96428233D01*
X131354887Y-96493713D01*
X131355448Y-96494552D01*
X131421769Y-96538867D01*
X131466231Y-96547711D01*
X131480241Y-96550498D01*
X131480246Y-96550498D01*
X131480252Y-96550500D01*
X131480253Y-96550500D01*
X132519747Y-96550500D01*
X132519748Y-96550500D01*
X132578231Y-96538867D01*
X132644552Y-96494552D01*
X132688867Y-96428231D01*
X132700500Y-96369748D01*
X132700500Y-96369746D01*
X133299500Y-96369746D01*
X133299501Y-96369758D01*
X133311132Y-96428227D01*
X133311134Y-96428233D01*
X133354887Y-96493713D01*
X133355448Y-96494552D01*
X133421769Y-96538867D01*
X133466231Y-96547711D01*
X133480241Y-96550498D01*
X133480246Y-96550498D01*
X133480252Y-96550500D01*
X133480253Y-96550500D01*
X134519747Y-96550500D01*
X134519748Y-96550500D01*
X134578231Y-96538867D01*
X134644552Y-96494552D01*
X134688867Y-96428231D01*
X134700500Y-96369748D01*
X134700500Y-96369746D01*
X135299500Y-96369746D01*
X135299501Y-96369758D01*
X135311132Y-96428227D01*
X135311134Y-96428233D01*
X135354887Y-96493713D01*
X135355448Y-96494552D01*
X135421769Y-96538867D01*
X135466231Y-96547711D01*
X135480241Y-96550498D01*
X135480246Y-96550498D01*
X135480252Y-96550500D01*
X135480253Y-96550500D01*
X136519747Y-96550500D01*
X136519748Y-96550500D01*
X136578231Y-96538867D01*
X136644552Y-96494552D01*
X136688867Y-96428231D01*
X136700500Y-96369748D01*
X136700500Y-96369746D01*
X137299500Y-96369746D01*
X137299501Y-96369758D01*
X137311132Y-96428227D01*
X137311134Y-96428233D01*
X137354887Y-96493713D01*
X137355448Y-96494552D01*
X137421769Y-96538867D01*
X137466231Y-96547711D01*
X137480241Y-96550498D01*
X137480246Y-96550498D01*
X137480252Y-96550500D01*
X137480253Y-96550500D01*
X138519747Y-96550500D01*
X138519748Y-96550500D01*
X138578231Y-96538867D01*
X138644552Y-96494552D01*
X138688867Y-96428231D01*
X138700500Y-96369748D01*
X138700500Y-94530252D01*
X138688867Y-94471769D01*
X138644552Y-94405448D01*
X138644548Y-94405445D01*
X138578233Y-94361134D01*
X138578231Y-94361133D01*
X138578228Y-94361132D01*
X138578227Y-94361132D01*
X138519758Y-94349501D01*
X138519748Y-94349500D01*
X137480252Y-94349500D01*
X137480251Y-94349500D01*
X137480241Y-94349501D01*
X137421772Y-94361132D01*
X137421766Y-94361134D01*
X137355451Y-94405445D01*
X137355445Y-94405451D01*
X137311134Y-94471766D01*
X137311132Y-94471772D01*
X137299501Y-94530241D01*
X137299500Y-94530253D01*
X137299500Y-96369746D01*
X136700500Y-96369746D01*
X136700500Y-94530252D01*
X136688867Y-94471769D01*
X136644552Y-94405448D01*
X136644548Y-94405445D01*
X136578233Y-94361134D01*
X136578231Y-94361133D01*
X136578228Y-94361132D01*
X136578227Y-94361132D01*
X136519758Y-94349501D01*
X136519748Y-94349500D01*
X135480252Y-94349500D01*
X135480251Y-94349500D01*
X135480241Y-94349501D01*
X135421772Y-94361132D01*
X135421766Y-94361134D01*
X135355451Y-94405445D01*
X135355445Y-94405451D01*
X135311134Y-94471766D01*
X135311132Y-94471772D01*
X135299501Y-94530241D01*
X135299500Y-94530253D01*
X135299500Y-96369746D01*
X134700500Y-96369746D01*
X134700500Y-94530252D01*
X134688867Y-94471769D01*
X134644552Y-94405448D01*
X134644548Y-94405445D01*
X134578233Y-94361134D01*
X134578231Y-94361133D01*
X134578228Y-94361132D01*
X134578227Y-94361132D01*
X134519758Y-94349501D01*
X134519748Y-94349500D01*
X133480252Y-94349500D01*
X133480251Y-94349500D01*
X133480241Y-94349501D01*
X133421772Y-94361132D01*
X133421766Y-94361134D01*
X133355451Y-94405445D01*
X133355445Y-94405451D01*
X133311134Y-94471766D01*
X133311132Y-94471772D01*
X133299501Y-94530241D01*
X133299500Y-94530253D01*
X133299500Y-96369746D01*
X132700500Y-96369746D01*
X132700500Y-94530252D01*
X132688867Y-94471769D01*
X132644552Y-94405448D01*
X132644548Y-94405445D01*
X132578233Y-94361134D01*
X132578231Y-94361133D01*
X132578228Y-94361132D01*
X132578227Y-94361132D01*
X132519758Y-94349501D01*
X132519748Y-94349500D01*
X131480252Y-94349500D01*
X131480251Y-94349500D01*
X131480241Y-94349501D01*
X131421772Y-94361132D01*
X131421766Y-94361134D01*
X131355451Y-94405445D01*
X131355445Y-94405451D01*
X131311134Y-94471766D01*
X131311132Y-94471772D01*
X131299501Y-94530241D01*
X131299500Y-94530253D01*
X131299500Y-96369746D01*
X130700500Y-96369746D01*
X130700500Y-94530252D01*
X130688867Y-94471769D01*
X130644552Y-94405448D01*
X130644548Y-94405445D01*
X130578233Y-94361134D01*
X130578231Y-94361133D01*
X130578228Y-94361132D01*
X130578227Y-94361132D01*
X130519758Y-94349501D01*
X130519748Y-94349500D01*
X129480252Y-94349500D01*
X129480251Y-94349500D01*
X129480241Y-94349501D01*
X129421772Y-94361132D01*
X129421766Y-94361134D01*
X129355451Y-94405445D01*
X129355445Y-94405451D01*
X129311134Y-94471766D01*
X129311132Y-94471772D01*
X129299501Y-94530241D01*
X129299500Y-94530253D01*
X129299500Y-96369746D01*
X119104849Y-96369746D01*
X118568363Y-95833260D01*
X119824500Y-95833260D01*
X119831118Y-95878682D01*
X119834427Y-95901395D01*
X119875133Y-95984659D01*
X119885802Y-96006483D01*
X119968517Y-96089198D01*
X119991636Y-96100500D01*
X120073604Y-96140572D01*
X120073605Y-96140572D01*
X120073607Y-96140573D01*
X120141740Y-96150500D01*
X120141743Y-96150500D01*
X121858257Y-96150500D01*
X121858260Y-96150500D01*
X121926393Y-96140573D01*
X122031483Y-96089198D01*
X122114198Y-96006483D01*
X122165573Y-95901393D01*
X122175500Y-95833260D01*
X122175500Y-95466740D01*
X122165573Y-95398607D01*
X122157998Y-95383113D01*
X122114198Y-95293518D01*
X122114198Y-95293517D01*
X122031483Y-95210802D01*
X122031481Y-95210801D01*
X121926395Y-95159427D01*
X121899139Y-95155456D01*
X121858260Y-95149500D01*
X120141740Y-95149500D01*
X120107673Y-95154463D01*
X120073604Y-95159427D01*
X119968518Y-95210801D01*
X119885801Y-95293518D01*
X119834427Y-95398604D01*
X119829463Y-95432673D01*
X119824500Y-95466740D01*
X119824500Y-95833260D01*
X118568363Y-95833260D01*
X118024614Y-95289511D01*
X118024611Y-95289509D01*
X118024609Y-95289507D01*
X117921890Y-95230202D01*
X117921886Y-95230200D01*
X117897673Y-95223712D01*
X117897673Y-95223713D01*
X117807309Y-95199500D01*
X117807307Y-95199500D01*
X117081268Y-95199500D01*
X117037788Y-95189441D01*
X117031912Y-95186568D01*
X116976393Y-95159427D01*
X116908260Y-95149500D01*
X115191740Y-95149500D01*
X115157673Y-95154463D01*
X115123604Y-95159427D01*
X115018518Y-95210801D01*
X114935801Y-95293518D01*
X114884427Y-95398604D01*
X114879463Y-95432673D01*
X114874500Y-95466740D01*
X114874500Y-95833260D01*
X114881118Y-95878682D01*
X114884427Y-95901395D01*
X114925133Y-95984659D01*
X114935802Y-96006483D01*
X115018517Y-96089198D01*
X115041636Y-96100500D01*
X115123604Y-96140572D01*
X115123605Y-96140572D01*
X115123607Y-96140573D01*
X115191740Y-96150500D01*
X115191743Y-96150500D01*
X116908257Y-96150500D01*
X116908260Y-96150500D01*
X116976393Y-96140573D01*
X117037788Y-96110559D01*
X117081268Y-96100500D01*
X117520389Y-96100500D01*
X117578580Y-96119407D01*
X117590393Y-96129496D01*
X118519504Y-97058607D01*
X118547281Y-97113124D01*
X118548500Y-97128611D01*
X118548500Y-103824798D01*
X118546934Y-103824798D01*
X118537198Y-103877324D01*
X118492816Y-103919441D01*
X118432154Y-103927427D01*
X118380192Y-103900089D01*
X118335496Y-103855393D01*
X118307719Y-103800876D01*
X118306500Y-103785389D01*
X118306500Y-97349692D01*
X118306500Y-97349691D01*
X118275799Y-97235114D01*
X118242601Y-97177614D01*
X118216489Y-97132386D01*
X117643614Y-96559511D01*
X117643611Y-96559509D01*
X117643609Y-96559507D01*
X117540890Y-96500202D01*
X117540886Y-96500200D01*
X117516673Y-96493712D01*
X117516673Y-96493713D01*
X117426309Y-96469500D01*
X117426307Y-96469500D01*
X117081268Y-96469500D01*
X117037788Y-96459441D01*
X117031912Y-96456568D01*
X116976393Y-96429427D01*
X116908260Y-96419500D01*
X115191740Y-96419500D01*
X115157673Y-96424463D01*
X115123604Y-96429427D01*
X115018518Y-96480801D01*
X114935801Y-96563518D01*
X114884427Y-96668604D01*
X114884427Y-96668607D01*
X114874500Y-96736740D01*
X114874500Y-97103260D01*
X114878744Y-97132386D01*
X114884427Y-97171395D01*
X114915578Y-97235114D01*
X114935802Y-97276483D01*
X115018517Y-97359198D01*
X115050293Y-97374732D01*
X115123604Y-97410572D01*
X115123605Y-97410572D01*
X115123607Y-97410573D01*
X115191740Y-97420500D01*
X115191743Y-97420500D01*
X116908257Y-97420500D01*
X116908260Y-97420500D01*
X116976393Y-97410573D01*
X117037788Y-97380559D01*
X117081268Y-97370500D01*
X117139389Y-97370500D01*
X117197580Y-97389407D01*
X117209393Y-97399496D01*
X117376504Y-97566607D01*
X117404281Y-97621124D01*
X117405500Y-97636611D01*
X117405500Y-97899188D01*
X117386593Y-97957379D01*
X117337093Y-97993343D01*
X117275907Y-97993343D01*
X117226407Y-97957379D01*
X117217559Y-97942669D01*
X117196302Y-97899188D01*
X117164198Y-97833517D01*
X117081483Y-97750802D01*
X117081481Y-97750801D01*
X116976395Y-97699427D01*
X116949139Y-97695456D01*
X116908260Y-97689500D01*
X115191740Y-97689500D01*
X115123607Y-97699427D01*
X115062212Y-97729441D01*
X115018732Y-97739500D01*
X114927612Y-97739500D01*
X114869421Y-97720593D01*
X114857608Y-97710504D01*
X112979496Y-95832392D01*
X112951719Y-95777875D01*
X112950500Y-95762388D01*
X112950500Y-95423037D01*
X112969407Y-95364846D01*
X113018907Y-95328882D01*
X113040255Y-95324470D01*
X113050712Y-95323488D01*
X113059699Y-95322646D01*
X113187882Y-95277793D01*
X113297150Y-95197150D01*
X113377793Y-95087882D01*
X113422646Y-94959699D01*
X113425499Y-94929273D01*
X113425500Y-94929273D01*
X113425500Y-94563260D01*
X119824500Y-94563260D01*
X119831118Y-94608682D01*
X119834427Y-94631395D01*
X119885801Y-94736481D01*
X119885802Y-94736483D01*
X119968517Y-94819198D01*
X120012212Y-94840559D01*
X120073604Y-94870572D01*
X120073605Y-94870572D01*
X120073607Y-94870573D01*
X120141740Y-94880500D01*
X120141743Y-94880500D01*
X121858257Y-94880500D01*
X121858260Y-94880500D01*
X121926393Y-94870573D01*
X121987788Y-94840559D01*
X122031268Y-94830500D01*
X123172712Y-94830500D01*
X123208083Y-94838195D01*
X123208153Y-94837958D01*
X123211468Y-94838931D01*
X123213838Y-94839447D01*
X123214943Y-94839951D01*
X123214944Y-94839951D01*
X123214947Y-94839953D01*
X123328939Y-94873423D01*
X123353035Y-94880499D01*
X123353036Y-94880499D01*
X123353039Y-94880500D01*
X123353041Y-94880500D01*
X123496959Y-94880500D01*
X123496961Y-94880500D01*
X123635053Y-94839953D01*
X123756128Y-94762143D01*
X123850377Y-94653373D01*
X123894776Y-94556151D01*
X123914821Y-94527280D01*
X126397989Y-92044114D01*
X126457299Y-91941387D01*
X126460241Y-91930403D01*
X126463787Y-91917172D01*
X126463787Y-91917169D01*
X126488000Y-91826809D01*
X126488000Y-90982987D01*
X126506907Y-90924796D01*
X126554301Y-90889543D01*
X126587882Y-90877793D01*
X126697150Y-90797150D01*
X126711437Y-90777792D01*
X126738804Y-90740712D01*
X126788571Y-90705119D01*
X126818459Y-90700500D01*
X134174812Y-90700500D01*
X134233003Y-90719407D01*
X134233600Y-90719845D01*
X134312116Y-90777792D01*
X134312117Y-90777792D01*
X134312118Y-90777793D01*
X134440301Y-90822646D01*
X134470725Y-90825499D01*
X134470727Y-90825500D01*
X134470734Y-90825500D01*
X135529273Y-90825500D01*
X135529273Y-90825499D01*
X135559699Y-90822646D01*
X135687882Y-90777793D01*
X135696877Y-90771154D01*
X135715589Y-90757345D01*
X135773637Y-90738003D01*
X135774377Y-90738000D01*
X137725623Y-90738000D01*
X137783814Y-90756907D01*
X137784411Y-90757345D01*
X137812116Y-90777792D01*
X137812117Y-90777792D01*
X137812118Y-90777793D01*
X137940301Y-90822646D01*
X137970725Y-90825499D01*
X137970727Y-90825500D01*
X137970734Y-90825500D01*
X138315175Y-90825500D01*
X138353059Y-90833035D01*
X138463283Y-90878692D01*
X138598618Y-90905611D01*
X138598620Y-90905611D01*
X138736605Y-90905611D01*
X138736606Y-90905611D01*
X138871940Y-90878692D01*
X138982165Y-90833035D01*
X139020048Y-90825500D01*
X139029273Y-90825500D01*
X139029273Y-90825499D01*
X139059699Y-90822646D01*
X139187882Y-90777793D01*
X139196877Y-90771154D01*
X139215589Y-90757345D01*
X139273637Y-90738003D01*
X139274377Y-90738000D01*
X142900500Y-90738000D01*
X142958691Y-90756907D01*
X142994655Y-90806407D01*
X142999500Y-90837000D01*
X142999500Y-91024858D01*
X142999501Y-91024870D01*
X143011132Y-91083339D01*
X143011133Y-91083343D01*
X143055448Y-91149664D01*
X143121769Y-91193979D01*
X143166231Y-91202823D01*
X143180241Y-91205610D01*
X143180246Y-91205610D01*
X143180252Y-91205612D01*
X143200500Y-91205612D01*
X143258691Y-91224519D01*
X143294655Y-91274019D01*
X143299500Y-91304612D01*
X143299500Y-95218835D01*
X143280593Y-95277026D01*
X143270504Y-95288839D01*
X142338839Y-96220504D01*
X142284322Y-96248281D01*
X142268835Y-96249500D01*
X140981004Y-96249500D01*
X140872591Y-96271064D01*
X140872591Y-96271065D01*
X140865861Y-96272403D01*
X140845668Y-96276420D01*
X140837381Y-96279853D01*
X140776384Y-96284650D01*
X140724216Y-96252678D01*
X140700805Y-96196149D01*
X140700500Y-96188387D01*
X140700500Y-94530253D01*
X140700498Y-94530241D01*
X140697711Y-94516231D01*
X140688867Y-94471769D01*
X140644552Y-94405448D01*
X140644548Y-94405445D01*
X140578233Y-94361134D01*
X140578231Y-94361133D01*
X140578228Y-94361132D01*
X140578227Y-94361132D01*
X140519758Y-94349501D01*
X140519748Y-94349500D01*
X139480252Y-94349500D01*
X139480251Y-94349500D01*
X139480241Y-94349501D01*
X139421772Y-94361132D01*
X139421766Y-94361134D01*
X139355451Y-94405445D01*
X139355445Y-94405451D01*
X139311134Y-94471766D01*
X139311132Y-94471772D01*
X139299501Y-94530241D01*
X139299500Y-94530253D01*
X139299500Y-96369746D01*
X139299501Y-96369758D01*
X139311132Y-96428227D01*
X139311134Y-96428233D01*
X139354887Y-96493713D01*
X139355448Y-96494552D01*
X139421769Y-96538867D01*
X139466231Y-96547711D01*
X139480241Y-96550498D01*
X139480246Y-96550498D01*
X139480252Y-96550500D01*
X140219835Y-96550500D01*
X140278026Y-96569407D01*
X140313990Y-96618907D01*
X140313990Y-96680093D01*
X140289839Y-96719504D01*
X139455881Y-97553462D01*
X139417589Y-97610773D01*
X139417588Y-97610775D01*
X139379223Y-97668190D01*
X139379223Y-97668191D01*
X139326420Y-97795670D01*
X139326420Y-97795672D01*
X139299501Y-97930999D01*
X139299500Y-97931008D01*
X139299500Y-106068996D01*
X139309320Y-106118362D01*
X139326027Y-106202354D01*
X139326420Y-106204327D01*
X139326420Y-106204329D01*
X139379223Y-106331808D01*
X139445000Y-106430252D01*
X139455886Y-106446543D01*
X140553457Y-107544114D01*
X140668189Y-107620775D01*
X140795672Y-107673580D01*
X140931006Y-107700500D01*
X140931007Y-107700500D01*
X141068993Y-107700500D01*
X141068994Y-107700500D01*
X141204329Y-107673580D01*
X141241856Y-107658036D01*
X141279741Y-107650500D01*
X141330252Y-107650500D01*
X142370260Y-107650500D01*
X142408145Y-107658036D01*
X142445672Y-107673580D01*
X142581006Y-107700500D01*
X142581007Y-107700500D01*
X145791686Y-107700500D01*
X145849877Y-107719407D01*
X145850474Y-107719845D01*
X145895116Y-107752792D01*
X145895117Y-107752792D01*
X145895118Y-107752793D01*
X146023301Y-107797646D01*
X146053725Y-107800499D01*
X146053727Y-107800500D01*
X146053734Y-107800500D01*
X147062273Y-107800500D01*
X147062273Y-107800499D01*
X147092699Y-107797646D01*
X147220882Y-107752793D01*
X147330150Y-107672150D01*
X147410793Y-107562882D01*
X147455646Y-107434699D01*
X147458499Y-107404273D01*
X147458500Y-107404273D01*
X147458500Y-106595727D01*
X147458499Y-106595725D01*
X147455646Y-106565305D01*
X147455646Y-106565301D01*
X147410793Y-106437118D01*
X147405726Y-106430253D01*
X147330154Y-106327855D01*
X147330152Y-106327853D01*
X147330150Y-106327850D01*
X147330146Y-106327847D01*
X147330144Y-106327845D01*
X147220883Y-106247207D01*
X147092703Y-106202355D01*
X147092694Y-106202353D01*
X147062274Y-106199500D01*
X147062266Y-106199500D01*
X146053734Y-106199500D01*
X146053725Y-106199500D01*
X146023305Y-106202353D01*
X146023296Y-106202355D01*
X145895116Y-106247207D01*
X145850474Y-106280155D01*
X145792426Y-106299497D01*
X145791686Y-106299500D01*
X144015682Y-106299500D01*
X143960680Y-106282815D01*
X143928233Y-106261134D01*
X143928231Y-106261133D01*
X143928228Y-106261132D01*
X143928227Y-106261132D01*
X143869758Y-106249501D01*
X143869748Y-106249500D01*
X143869747Y-106249500D01*
X141281165Y-106249500D01*
X141222974Y-106230593D01*
X141211161Y-106220504D01*
X140729496Y-105738839D01*
X140701719Y-105684322D01*
X140700500Y-105668835D01*
X140700500Y-105469746D01*
X141149500Y-105469746D01*
X141149501Y-105469758D01*
X141161132Y-105528227D01*
X141161133Y-105528231D01*
X141205448Y-105594552D01*
X141271769Y-105638867D01*
X141316231Y-105647711D01*
X141330241Y-105650498D01*
X141330246Y-105650498D01*
X141330252Y-105650500D01*
X141330253Y-105650500D01*
X147213993Y-105650500D01*
X147213994Y-105650500D01*
X147349328Y-105623580D01*
X147476811Y-105570775D01*
X147591543Y-105494114D01*
X149511661Y-103573996D01*
X150937500Y-103573996D01*
X150964420Y-103709327D01*
X150964420Y-103709329D01*
X151012263Y-103824833D01*
X151017896Y-103843402D01*
X151029418Y-103901321D01*
X151029419Y-103901327D01*
X151082223Y-104028808D01*
X151111290Y-104072311D01*
X151158886Y-104143543D01*
X157160457Y-110145114D01*
X157275189Y-110221775D01*
X157402672Y-110274580D01*
X157538006Y-110301500D01*
X157538007Y-110301500D01*
X157675993Y-110301500D01*
X157675994Y-110301500D01*
X157811328Y-110274580D01*
X157938811Y-110221775D01*
X157945680Y-110217184D01*
X158000682Y-110200500D01*
X165669089Y-110200500D01*
X165727280Y-110219407D01*
X165745614Y-110236691D01*
X165753590Y-110246410D01*
X165771529Y-110261132D01*
X165913547Y-110377683D01*
X165913548Y-110377683D01*
X165913550Y-110377685D01*
X166096046Y-110475232D01*
X166233997Y-110517078D01*
X166294065Y-110535300D01*
X166294070Y-110535301D01*
X166499997Y-110555583D01*
X166500000Y-110555583D01*
X166500003Y-110555583D01*
X166705929Y-110535301D01*
X166705934Y-110535300D01*
X166903954Y-110475232D01*
X167086450Y-110377685D01*
X167246410Y-110246410D01*
X167377685Y-110086450D01*
X167475232Y-109903954D01*
X167535300Y-109705934D01*
X167535301Y-109705929D01*
X167555583Y-109500003D01*
X167555583Y-109499996D01*
X167535301Y-109294070D01*
X167535300Y-109294065D01*
X167517078Y-109233997D01*
X167475232Y-109096046D01*
X167377685Y-108913550D01*
X167246410Y-108753590D01*
X167246404Y-108753585D01*
X167086452Y-108622316D01*
X166903954Y-108524768D01*
X166705934Y-108464699D01*
X166705929Y-108464698D01*
X166500003Y-108444417D01*
X166499997Y-108444417D01*
X166294070Y-108464698D01*
X166294065Y-108464699D01*
X166096045Y-108524768D01*
X165913547Y-108622316D01*
X165753595Y-108753585D01*
X165753590Y-108753590D01*
X165745615Y-108763306D01*
X165694085Y-108796293D01*
X165669089Y-108799500D01*
X157837165Y-108799500D01*
X157778974Y-108780593D01*
X157767161Y-108770504D01*
X156826403Y-107829746D01*
X165449500Y-107829746D01*
X165449501Y-107829758D01*
X165461132Y-107888227D01*
X165461134Y-107888233D01*
X165505445Y-107954548D01*
X165505448Y-107954552D01*
X165571769Y-107998867D01*
X165616231Y-108007711D01*
X165630241Y-108010498D01*
X165630246Y-108010498D01*
X165630252Y-108010500D01*
X165630253Y-108010500D01*
X167369747Y-108010500D01*
X167369748Y-108010500D01*
X167428231Y-107998867D01*
X167494552Y-107954552D01*
X167538867Y-107888231D01*
X167550500Y-107829748D01*
X167550500Y-106090252D01*
X167538867Y-106031769D01*
X167494552Y-105965448D01*
X167443007Y-105931006D01*
X167428233Y-105921134D01*
X167428231Y-105921133D01*
X167428228Y-105921132D01*
X167428227Y-105921132D01*
X167369758Y-105909501D01*
X167369748Y-105909500D01*
X165630252Y-105909500D01*
X165630251Y-105909500D01*
X165630241Y-105909501D01*
X165571772Y-105921132D01*
X165571766Y-105921134D01*
X165505451Y-105965445D01*
X165505445Y-105965451D01*
X165461134Y-106031766D01*
X165461132Y-106031772D01*
X165449501Y-106090241D01*
X165449500Y-106090253D01*
X165449500Y-107829746D01*
X156826403Y-107829746D01*
X154729652Y-105732995D01*
X156017500Y-105732995D01*
X156044420Y-105868327D01*
X156044420Y-105868329D01*
X156097222Y-105995806D01*
X156097228Y-105995817D01*
X156173885Y-106110541D01*
X156271458Y-106208114D01*
X156386182Y-106284771D01*
X156386193Y-106284777D01*
X156421731Y-106299497D01*
X156513672Y-106337580D01*
X156649007Y-106364500D01*
X156649008Y-106364500D01*
X162120993Y-106364500D01*
X162120994Y-106364500D01*
X162256328Y-106337580D01*
X162383811Y-106284775D01*
X162498543Y-106208114D01*
X164628114Y-104078543D01*
X164704775Y-103963811D01*
X164757580Y-103836328D01*
X164784500Y-103700994D01*
X164784500Y-103563006D01*
X164784500Y-100388007D01*
X164772807Y-100329225D01*
X164757580Y-100252672D01*
X164704775Y-100125189D01*
X164628114Y-100010457D01*
X163603543Y-98985886D01*
X163598731Y-98982671D01*
X163488808Y-98909223D01*
X163361328Y-98856420D01*
X163225996Y-98829500D01*
X163225994Y-98829500D01*
X163225993Y-98829500D01*
X162278957Y-98829500D01*
X162220766Y-98810593D01*
X162216162Y-98807035D01*
X162078538Y-98694090D01*
X162037618Y-98672218D01*
X161904732Y-98601188D01*
X161904730Y-98601187D01*
X161716129Y-98543975D01*
X161716126Y-98543974D01*
X161520003Y-98524659D01*
X161519997Y-98524659D01*
X161323873Y-98543974D01*
X161323870Y-98543975D01*
X161135269Y-98601187D01*
X161135267Y-98601188D01*
X160961467Y-98694087D01*
X160961457Y-98694093D01*
X160809121Y-98819112D01*
X160809112Y-98819121D01*
X160684093Y-98971457D01*
X160684087Y-98971467D01*
X160591188Y-99145267D01*
X160591187Y-99145269D01*
X160533975Y-99333870D01*
X160533974Y-99333873D01*
X160514659Y-99529996D01*
X160514659Y-99530003D01*
X160533974Y-99726126D01*
X160533975Y-99726129D01*
X160591187Y-99914730D01*
X160591188Y-99914732D01*
X160610346Y-99950573D01*
X160684090Y-100088538D01*
X160684092Y-100088540D01*
X160684093Y-100088542D01*
X160809112Y-100240878D01*
X160809121Y-100240887D01*
X160916760Y-100329224D01*
X160961462Y-100365910D01*
X161135273Y-100458814D01*
X161323868Y-100516024D01*
X161323870Y-100516024D01*
X161323873Y-100516025D01*
X161519997Y-100535341D01*
X161520000Y-100535341D01*
X161520003Y-100535341D01*
X161716126Y-100516025D01*
X161716127Y-100516024D01*
X161716132Y-100516024D01*
X161904727Y-100458814D01*
X162078538Y-100365910D01*
X162216153Y-100252971D01*
X162273128Y-100230672D01*
X162278957Y-100230500D01*
X162825835Y-100230500D01*
X162884026Y-100249407D01*
X162895839Y-100259496D01*
X163354504Y-100718161D01*
X163382281Y-100772678D01*
X163383500Y-100788165D01*
X163383500Y-103300835D01*
X163364593Y-103359026D01*
X163354504Y-103370839D01*
X161790839Y-104934504D01*
X161736322Y-104962281D01*
X161720835Y-104963500D01*
X156649004Y-104963500D01*
X156513672Y-104990420D01*
X156513670Y-104990420D01*
X156386193Y-105043222D01*
X156386182Y-105043228D01*
X156271458Y-105119885D01*
X156173885Y-105217458D01*
X156097228Y-105332182D01*
X156097222Y-105332193D01*
X156044420Y-105459670D01*
X156044420Y-105459672D01*
X156017500Y-105595004D01*
X156017500Y-105732995D01*
X154729652Y-105732995D01*
X152400320Y-103403663D01*
X152379889Y-103369566D01*
X152378442Y-103370166D01*
X152346036Y-103291932D01*
X152338500Y-103254046D01*
X152338500Y-99530003D01*
X152894659Y-99530003D01*
X152913974Y-99726126D01*
X152913975Y-99726129D01*
X152971187Y-99914730D01*
X152971188Y-99914732D01*
X152990346Y-99950573D01*
X153064090Y-100088538D01*
X153064092Y-100088540D01*
X153064093Y-100088542D01*
X153189112Y-100240878D01*
X153189121Y-100240887D01*
X153296760Y-100329224D01*
X153341462Y-100365910D01*
X153515273Y-100458814D01*
X153703868Y-100516024D01*
X153703870Y-100516024D01*
X153703873Y-100516025D01*
X153899997Y-100535341D01*
X153900000Y-100535341D01*
X153900003Y-100535341D01*
X154096126Y-100516025D01*
X154096127Y-100516024D01*
X154096132Y-100516024D01*
X154284727Y-100458814D01*
X154458538Y-100365910D01*
X154610883Y-100240883D01*
X154735910Y-100088538D01*
X154828814Y-99914727D01*
X154886024Y-99726132D01*
X154887476Y-99711395D01*
X154905341Y-99530003D01*
X154905341Y-99529996D01*
X154886025Y-99333873D01*
X154886024Y-99333870D01*
X154886024Y-99333868D01*
X154828814Y-99145273D01*
X154825785Y-99139607D01*
X154763931Y-99023886D01*
X154735910Y-98971462D01*
X154716019Y-98947225D01*
X154610887Y-98819121D01*
X154610878Y-98819112D01*
X154458542Y-98694093D01*
X154458540Y-98694092D01*
X154458538Y-98694090D01*
X154417618Y-98672218D01*
X154284732Y-98601188D01*
X154284730Y-98601187D01*
X154096129Y-98543975D01*
X154096126Y-98543974D01*
X153900003Y-98524659D01*
X153899997Y-98524659D01*
X153703873Y-98543974D01*
X153703870Y-98543975D01*
X153515269Y-98601187D01*
X153515267Y-98601188D01*
X153341467Y-98694087D01*
X153341457Y-98694093D01*
X153189121Y-98819112D01*
X153189112Y-98819121D01*
X153064093Y-98971457D01*
X153064087Y-98971467D01*
X152971188Y-99145267D01*
X152971187Y-99145269D01*
X152913975Y-99333870D01*
X152913974Y-99333873D01*
X152894659Y-99529996D01*
X152894659Y-99530003D01*
X152338500Y-99530003D01*
X152338500Y-98248165D01*
X152357407Y-98189974D01*
X152367496Y-98178161D01*
X152826161Y-97719496D01*
X152880678Y-97691719D01*
X152896165Y-97690500D01*
X153141043Y-97690500D01*
X153199234Y-97709407D01*
X153203837Y-97712964D01*
X153341462Y-97825910D01*
X153515273Y-97918814D01*
X153703868Y-97976024D01*
X153703870Y-97976024D01*
X153703873Y-97976025D01*
X153899997Y-97995341D01*
X153900000Y-97995341D01*
X153900003Y-97995341D01*
X154096126Y-97976025D01*
X154096127Y-97976024D01*
X154096132Y-97976024D01*
X154284727Y-97918814D01*
X154458538Y-97825910D01*
X154610883Y-97700883D01*
X154735910Y-97548538D01*
X154828814Y-97374727D01*
X154886024Y-97186132D01*
X154887476Y-97171395D01*
X154905341Y-96990003D01*
X154905341Y-96989996D01*
X154886025Y-96793873D01*
X154886024Y-96793870D01*
X154886024Y-96793868D01*
X154828814Y-96605273D01*
X154735910Y-96431462D01*
X154685271Y-96369758D01*
X154610887Y-96279121D01*
X154610878Y-96279112D01*
X154458542Y-96154093D01*
X154458540Y-96154092D01*
X154458538Y-96154090D01*
X154393651Y-96119407D01*
X154284732Y-96061188D01*
X154284730Y-96061187D01*
X154096129Y-96003975D01*
X154096126Y-96003974D01*
X153900003Y-95984659D01*
X153899997Y-95984659D01*
X153703873Y-96003974D01*
X153703870Y-96003975D01*
X153515269Y-96061187D01*
X153515267Y-96061188D01*
X153341467Y-96154087D01*
X153341457Y-96154093D01*
X153290213Y-96196149D01*
X153203846Y-96267028D01*
X153146872Y-96289328D01*
X153141043Y-96289500D01*
X152496003Y-96289500D01*
X152360672Y-96316420D01*
X152360670Y-96316420D01*
X152233191Y-96369223D01*
X152118460Y-96445883D01*
X151093883Y-97470460D01*
X151045773Y-97542463D01*
X151033793Y-97560394D01*
X151029737Y-97566464D01*
X151029735Y-97566467D01*
X151017227Y-97585185D01*
X151017222Y-97585193D01*
X150964420Y-97712670D01*
X150964420Y-97712672D01*
X150937500Y-97848004D01*
X150937500Y-103573996D01*
X149511661Y-103573996D01*
X150531114Y-102554543D01*
X150607775Y-102439811D01*
X150660580Y-102312328D01*
X150687500Y-102176994D01*
X150687500Y-102039006D01*
X150687500Y-89370003D01*
X152894659Y-89370003D01*
X152913974Y-89566126D01*
X152913975Y-89566129D01*
X152971187Y-89754730D01*
X152971188Y-89754732D01*
X153042218Y-89887618D01*
X153064090Y-89928538D01*
X153064092Y-89928540D01*
X153064093Y-89928542D01*
X153189112Y-90080878D01*
X153189121Y-90080887D01*
X153341457Y-90205906D01*
X153341462Y-90205910D01*
X153515273Y-90298814D01*
X153703868Y-90356024D01*
X153703870Y-90356024D01*
X153703873Y-90356025D01*
X153899997Y-90375341D01*
X153900000Y-90375341D01*
X153900003Y-90375341D01*
X154096126Y-90356025D01*
X154096127Y-90356024D01*
X154096132Y-90356024D01*
X154284727Y-90298814D01*
X154458538Y-90205910D01*
X154610883Y-90080883D01*
X154735910Y-89928538D01*
X154828814Y-89754727D01*
X154886024Y-89566132D01*
X154905341Y-89370000D01*
X154902091Y-89336997D01*
X154886025Y-89173873D01*
X154886024Y-89173870D01*
X154886024Y-89173868D01*
X154828814Y-88985273D01*
X154735910Y-88811462D01*
X154735906Y-88811457D01*
X154610887Y-88659121D01*
X154610878Y-88659112D01*
X154458542Y-88534093D01*
X154458540Y-88534092D01*
X154458538Y-88534090D01*
X154417618Y-88512218D01*
X154284732Y-88441188D01*
X154284730Y-88441187D01*
X154096129Y-88383975D01*
X154096126Y-88383974D01*
X153900003Y-88364659D01*
X153899997Y-88364659D01*
X153703873Y-88383974D01*
X153703870Y-88383975D01*
X153515269Y-88441187D01*
X153515267Y-88441188D01*
X153341467Y-88534087D01*
X153341457Y-88534093D01*
X153189121Y-88659112D01*
X153189112Y-88659121D01*
X153064093Y-88811457D01*
X153064087Y-88811467D01*
X152971188Y-88985267D01*
X152971187Y-88985269D01*
X152913975Y-89173870D01*
X152913974Y-89173873D01*
X152894659Y-89369996D01*
X152894659Y-89370003D01*
X150687500Y-89370003D01*
X150687500Y-89231165D01*
X150706407Y-89172974D01*
X150716496Y-89161161D01*
X152280161Y-87597496D01*
X152334678Y-87569719D01*
X152350165Y-87568500D01*
X152976993Y-87568500D01*
X152976994Y-87568500D01*
X153112328Y-87541580D01*
X153112339Y-87541575D01*
X153116978Y-87540169D01*
X153117611Y-87542257D01*
X153170049Y-87538102D01*
X153209791Y-87557850D01*
X153341462Y-87665910D01*
X153515273Y-87758814D01*
X153703868Y-87816024D01*
X153703870Y-87816024D01*
X153703873Y-87816025D01*
X153899997Y-87835341D01*
X153900000Y-87835341D01*
X153900003Y-87835341D01*
X154096126Y-87816025D01*
X154096127Y-87816024D01*
X154096132Y-87816024D01*
X154284727Y-87758814D01*
X154458538Y-87665910D01*
X154610883Y-87540883D01*
X154735910Y-87388538D01*
X154828814Y-87214727D01*
X154886024Y-87026132D01*
X154905341Y-86830000D01*
X154905341Y-86829996D01*
X154886025Y-86633873D01*
X154886024Y-86633870D01*
X154886024Y-86633868D01*
X154828814Y-86445273D01*
X154735910Y-86271462D01*
X154716019Y-86247225D01*
X154610887Y-86119121D01*
X154610878Y-86119112D01*
X154458542Y-85994093D01*
X154458540Y-85994092D01*
X154458538Y-85994090D01*
X154375116Y-85949500D01*
X154284732Y-85901188D01*
X154284730Y-85901187D01*
X154096129Y-85843975D01*
X154096126Y-85843974D01*
X153900003Y-85824659D01*
X153899997Y-85824659D01*
X153703873Y-85843974D01*
X153703870Y-85843975D01*
X153515269Y-85901187D01*
X153515267Y-85901188D01*
X153341467Y-85994087D01*
X153341457Y-85994093D01*
X153280505Y-86044116D01*
X153203846Y-86107028D01*
X153146872Y-86129328D01*
X153141043Y-86129500D01*
X152877004Y-86129500D01*
X152741672Y-86156420D01*
X152741670Y-86156420D01*
X152733116Y-86159964D01*
X152695231Y-86167500D01*
X151950003Y-86167500D01*
X151814672Y-86194420D01*
X151814670Y-86194420D01*
X151687191Y-86247223D01*
X151572460Y-86323883D01*
X149442883Y-88453460D01*
X149389009Y-88534090D01*
X149366223Y-88568191D01*
X149313420Y-88695670D01*
X149313420Y-88695672D01*
X149286500Y-88831004D01*
X149286500Y-101776835D01*
X149267593Y-101835026D01*
X149257504Y-101846839D01*
X146883839Y-104220504D01*
X146829322Y-104248281D01*
X146813835Y-104249500D01*
X143869748Y-104249500D01*
X141330252Y-104249500D01*
X141330251Y-104249500D01*
X141330241Y-104249501D01*
X141271772Y-104261132D01*
X141271766Y-104261134D01*
X141205451Y-104305445D01*
X141205445Y-104305451D01*
X141161134Y-104371766D01*
X141161132Y-104371772D01*
X141149501Y-104430241D01*
X141149500Y-104430253D01*
X141149500Y-105469746D01*
X140700500Y-105469746D01*
X140700500Y-103469746D01*
X141149500Y-103469746D01*
X141149501Y-103469758D01*
X141161132Y-103528227D01*
X141161134Y-103528233D01*
X141195111Y-103579082D01*
X141205448Y-103594552D01*
X141271769Y-103638867D01*
X141316231Y-103647711D01*
X141330241Y-103650498D01*
X141330246Y-103650498D01*
X141330252Y-103650500D01*
X141330253Y-103650500D01*
X144514993Y-103650500D01*
X144514994Y-103650500D01*
X144650328Y-103623580D01*
X144777811Y-103570775D01*
X144892543Y-103494114D01*
X148372114Y-100014543D01*
X148448775Y-99899811D01*
X148501580Y-99772329D01*
X148528499Y-99636994D01*
X148528499Y-99499006D01*
X148501580Y-99363672D01*
X148448775Y-99236189D01*
X148372114Y-99121457D01*
X148274543Y-99023886D01*
X148269927Y-99020802D01*
X148159808Y-98947223D01*
X148032328Y-98894420D01*
X147896996Y-98867501D01*
X147896994Y-98867501D01*
X147759006Y-98867501D01*
X147759003Y-98867501D01*
X147623671Y-98894420D01*
X147623669Y-98894420D01*
X147496191Y-98947223D01*
X147381460Y-99023883D01*
X144184839Y-102220504D01*
X144130322Y-102248281D01*
X144114835Y-102249500D01*
X143869748Y-102249500D01*
X141330252Y-102249500D01*
X141330251Y-102249500D01*
X141330241Y-102249501D01*
X141271772Y-102261132D01*
X141271766Y-102261134D01*
X141205451Y-102305445D01*
X141205445Y-102305451D01*
X141161134Y-102371766D01*
X141161132Y-102371772D01*
X141149501Y-102430241D01*
X141149500Y-102430253D01*
X141149500Y-103469746D01*
X140700500Y-103469746D01*
X140700500Y-98331165D01*
X140719407Y-98272974D01*
X140729496Y-98261161D01*
X141311161Y-97679496D01*
X141365678Y-97651719D01*
X141381165Y-97650500D01*
X142531006Y-97650500D01*
X142668994Y-97650500D01*
X143419835Y-97650500D01*
X143478026Y-97669407D01*
X143513990Y-97718907D01*
X143513990Y-97780093D01*
X143489839Y-97819504D01*
X143088839Y-98220504D01*
X143034322Y-98248281D01*
X143018835Y-98249500D01*
X141330252Y-98249500D01*
X141330251Y-98249500D01*
X141330241Y-98249501D01*
X141271772Y-98261132D01*
X141271766Y-98261134D01*
X141205451Y-98305445D01*
X141205445Y-98305451D01*
X141161134Y-98371766D01*
X141161132Y-98371772D01*
X141149501Y-98430241D01*
X141149500Y-98430253D01*
X141149500Y-99469746D01*
X141149501Y-99469758D01*
X141161132Y-99528227D01*
X141161134Y-99528233D01*
X141176012Y-99550499D01*
X141205448Y-99594552D01*
X141271769Y-99638867D01*
X141316231Y-99647711D01*
X141330241Y-99650498D01*
X141330246Y-99650498D01*
X141330252Y-99650500D01*
X141330253Y-99650500D01*
X143848835Y-99650500D01*
X143907026Y-99669407D01*
X143942990Y-99718907D01*
X143942990Y-99780093D01*
X143918839Y-99819504D01*
X143517839Y-100220504D01*
X143463322Y-100248281D01*
X143447835Y-100249500D01*
X141330252Y-100249500D01*
X141330251Y-100249500D01*
X141330241Y-100249501D01*
X141271772Y-100261132D01*
X141271766Y-100261134D01*
X141205451Y-100305445D01*
X141205445Y-100305451D01*
X141161134Y-100371766D01*
X141161132Y-100371772D01*
X141149501Y-100430241D01*
X141149500Y-100430253D01*
X141149500Y-101469746D01*
X141149501Y-101469758D01*
X141161132Y-101528227D01*
X141161134Y-101528233D01*
X141189560Y-101570775D01*
X141205448Y-101594552D01*
X141271769Y-101638867D01*
X141316231Y-101647711D01*
X141330241Y-101650498D01*
X141330246Y-101650498D01*
X141330252Y-101650500D01*
X141330253Y-101650500D01*
X143869747Y-101650500D01*
X143869748Y-101650500D01*
X143928231Y-101638867D01*
X143928234Y-101638864D01*
X143937242Y-101635134D01*
X143937887Y-101636692D01*
X143956769Y-101628862D01*
X143983328Y-101623580D01*
X144110811Y-101570775D01*
X144225543Y-101494114D01*
X146086114Y-99633543D01*
X146162775Y-99518811D01*
X146215580Y-99391328D01*
X146242500Y-99255993D01*
X146242500Y-99118006D01*
X146215580Y-98982671D01*
X146184075Y-98906611D01*
X146162777Y-98855192D01*
X146162771Y-98855181D01*
X146086114Y-98740457D01*
X145988542Y-98642885D01*
X145873818Y-98566228D01*
X145873807Y-98566222D01*
X145746329Y-98513420D01*
X145610996Y-98486500D01*
X145610994Y-98486500D01*
X145473007Y-98486500D01*
X145473004Y-98486500D01*
X145337672Y-98513420D01*
X145337670Y-98513420D01*
X145210191Y-98566223D01*
X145095460Y-98642883D01*
X144219504Y-99518839D01*
X144164987Y-99546616D01*
X144104555Y-99537045D01*
X144061290Y-99493780D01*
X144050500Y-99448835D01*
X144050500Y-99281164D01*
X144069407Y-99222973D01*
X144079490Y-99211166D01*
X148626114Y-94664543D01*
X148702775Y-94549811D01*
X148755580Y-94422328D01*
X148782500Y-94286994D01*
X148782500Y-94149006D01*
X148782500Y-85109746D01*
X152899500Y-85109746D01*
X152899501Y-85109758D01*
X152911132Y-85168227D01*
X152911134Y-85168233D01*
X152944932Y-85218814D01*
X152955448Y-85234552D01*
X153021769Y-85278867D01*
X153066231Y-85287711D01*
X153080241Y-85290498D01*
X153080246Y-85290498D01*
X153080252Y-85290500D01*
X153080253Y-85290500D01*
X154719747Y-85290500D01*
X154719748Y-85290500D01*
X154778231Y-85278867D01*
X154844552Y-85234552D01*
X154888867Y-85168231D01*
X154900500Y-85109748D01*
X154900500Y-83470252D01*
X154888867Y-83411769D01*
X154844552Y-83345448D01*
X154782486Y-83303976D01*
X154778233Y-83301134D01*
X154778231Y-83301133D01*
X154778228Y-83301132D01*
X154778227Y-83301132D01*
X154719758Y-83289501D01*
X154719748Y-83289500D01*
X153080252Y-83289500D01*
X153080251Y-83289500D01*
X153080241Y-83289501D01*
X153021772Y-83301132D01*
X153021766Y-83301134D01*
X152955451Y-83345445D01*
X152955445Y-83345451D01*
X152911134Y-83411766D01*
X152911132Y-83411772D01*
X152899501Y-83470241D01*
X152899500Y-83470253D01*
X152899500Y-85109746D01*
X148782500Y-85109746D01*
X148782500Y-83262164D01*
X148801407Y-83203973D01*
X148811490Y-83192166D01*
X151420114Y-80583543D01*
X151496775Y-80468811D01*
X151549580Y-80341328D01*
X151576500Y-80205994D01*
X151576500Y-80068006D01*
X151549580Y-79932671D01*
X151496775Y-79805189D01*
X151420114Y-79690457D01*
X151322543Y-79592886D01*
X151318602Y-79590253D01*
X151207808Y-79516223D01*
X151080329Y-79463420D01*
X150944996Y-79436500D01*
X150944994Y-79436500D01*
X150807006Y-79436500D01*
X150807003Y-79436500D01*
X150671672Y-79463420D01*
X150671670Y-79463420D01*
X150544191Y-79516223D01*
X150429460Y-79592883D01*
X147537881Y-82484462D01*
X147527281Y-82500328D01*
X147527281Y-82500329D01*
X147461223Y-82599191D01*
X147408420Y-82726670D01*
X147408420Y-82726672D01*
X147381500Y-82862004D01*
X147381500Y-93886835D01*
X147362593Y-93945026D01*
X147352504Y-93956839D01*
X144219504Y-97089839D01*
X144164987Y-97117616D01*
X144104555Y-97108045D01*
X144061290Y-97064780D01*
X144050500Y-97019835D01*
X144050500Y-96531164D01*
X144069407Y-96472973D01*
X144079490Y-96461166D01*
X144544114Y-95996543D01*
X144620775Y-95881811D01*
X144673580Y-95754328D01*
X144700500Y-95618994D01*
X144700500Y-95481006D01*
X144700500Y-91304612D01*
X144719407Y-91246421D01*
X144768907Y-91210457D01*
X144799500Y-91205612D01*
X144819747Y-91205612D01*
X144819748Y-91205612D01*
X144878231Y-91193979D01*
X144944552Y-91149664D01*
X144988867Y-91083343D01*
X145000500Y-91024860D01*
X145000500Y-89385364D01*
X144988867Y-89326881D01*
X144944552Y-89260560D01*
X144944548Y-89260557D01*
X144878233Y-89216246D01*
X144878231Y-89216245D01*
X144878228Y-89216244D01*
X144878227Y-89216244D01*
X144819758Y-89204613D01*
X144819748Y-89204612D01*
X143180252Y-89204612D01*
X143180251Y-89204612D01*
X143180241Y-89204613D01*
X143121772Y-89216244D01*
X143121766Y-89216246D01*
X143055451Y-89260557D01*
X143055444Y-89260564D01*
X143033771Y-89293001D01*
X142985722Y-89330881D01*
X142951456Y-89337000D01*
X139274377Y-89337000D01*
X139216186Y-89318093D01*
X139215589Y-89317655D01*
X139187883Y-89297207D01*
X139059703Y-89252355D01*
X139059694Y-89252353D01*
X139029274Y-89249500D01*
X139029266Y-89249500D01*
X137970734Y-89249500D01*
X137970725Y-89249500D01*
X137940305Y-89252353D01*
X137940296Y-89252355D01*
X137812116Y-89297207D01*
X137784411Y-89317655D01*
X137726363Y-89336997D01*
X137725623Y-89337000D01*
X135774377Y-89337000D01*
X135716186Y-89318093D01*
X135715589Y-89317655D01*
X135687883Y-89297207D01*
X135559703Y-89252355D01*
X135559694Y-89252353D01*
X135529274Y-89249500D01*
X135529266Y-89249500D01*
X134470734Y-89249500D01*
X134470725Y-89249500D01*
X134440305Y-89252353D01*
X134440296Y-89252355D01*
X134321443Y-89293944D01*
X134288745Y-89299500D01*
X126837000Y-89299500D01*
X126778809Y-89280593D01*
X126742845Y-89231093D01*
X126738000Y-89200500D01*
X126738000Y-87828232D01*
X126756907Y-87770041D01*
X126776731Y-87749691D01*
X126860451Y-87685451D01*
X126952698Y-87565233D01*
X127010687Y-87425236D01*
X127025500Y-87312720D01*
X127424500Y-87312720D01*
X127439312Y-87425232D01*
X127439314Y-87425238D01*
X127487504Y-87541580D01*
X127497302Y-87565233D01*
X127589549Y-87685451D01*
X127709767Y-87777698D01*
X127849764Y-87835687D01*
X127962280Y-87850500D01*
X127962281Y-87850500D01*
X128787719Y-87850500D01*
X128787720Y-87850500D01*
X128900236Y-87835687D01*
X129040233Y-87777698D01*
X129160451Y-87685451D01*
X129252698Y-87565233D01*
X129310687Y-87425236D01*
X129310687Y-87425228D01*
X129311052Y-87423873D01*
X129311602Y-87423025D01*
X129313170Y-87419241D01*
X129313871Y-87419531D01*
X129344379Y-87372560D01*
X129401501Y-87350635D01*
X129406678Y-87350500D01*
X130124105Y-87350500D01*
X130124106Y-87350500D01*
X130259440Y-87323580D01*
X130386923Y-87270775D01*
X130501655Y-87194114D01*
X135044114Y-82651655D01*
X135120775Y-82536923D01*
X135173580Y-82409440D01*
X135200500Y-82274106D01*
X135200500Y-82136118D01*
X135173580Y-82000784D01*
X135120775Y-81873301D01*
X135044114Y-81758569D01*
X134946543Y-81660998D01*
X134831811Y-81584337D01*
X134831810Y-81584336D01*
X134831808Y-81584335D01*
X134704328Y-81531532D01*
X134568996Y-81504612D01*
X134568994Y-81504612D01*
X134431006Y-81504612D01*
X134431003Y-81504612D01*
X134295672Y-81531532D01*
X134295670Y-81531532D01*
X134168191Y-81584335D01*
X134053460Y-81660995D01*
X129793951Y-85920504D01*
X129739434Y-85948281D01*
X129723947Y-85949500D01*
X129406678Y-85949500D01*
X129348487Y-85930593D01*
X129312523Y-85881093D01*
X129311052Y-85876127D01*
X129310687Y-85874767D01*
X129310687Y-85874764D01*
X129252698Y-85734767D01*
X129160451Y-85614549D01*
X129040233Y-85522302D01*
X128900236Y-85464313D01*
X128900234Y-85464312D01*
X128900232Y-85464312D01*
X128787720Y-85449500D01*
X127962280Y-85449500D01*
X127962279Y-85449500D01*
X127849767Y-85464312D01*
X127849761Y-85464314D01*
X127709768Y-85522301D01*
X127589551Y-85614547D01*
X127589547Y-85614551D01*
X127497301Y-85734768D01*
X127439314Y-85874761D01*
X127439312Y-85874767D01*
X127424500Y-85987279D01*
X127424500Y-87312720D01*
X127025500Y-87312720D01*
X127025500Y-85987280D01*
X127010687Y-85874764D01*
X126952698Y-85734767D01*
X126860451Y-85614549D01*
X126860450Y-85614548D01*
X126860447Y-85614544D01*
X126814232Y-85579082D01*
X126779577Y-85528658D01*
X126775500Y-85500541D01*
X126775500Y-81649500D01*
X126794407Y-81591309D01*
X126843907Y-81555345D01*
X126874500Y-81550500D01*
X127531611Y-81550500D01*
X127531616Y-81550500D01*
X127602196Y-81544086D01*
X127764606Y-81493478D01*
X127910185Y-81405472D01*
X128030472Y-81285185D01*
X128118478Y-81139606D01*
X128169086Y-80977196D01*
X128175500Y-80906616D01*
X128175500Y-79793384D01*
X128169086Y-79722804D01*
X128118478Y-79560394D01*
X128030472Y-79414815D01*
X127910185Y-79294528D01*
X127872777Y-79271914D01*
X127764607Y-79206522D01*
X127764605Y-79206521D01*
X127602194Y-79155913D01*
X127531620Y-79149500D01*
X127531616Y-79149500D01*
X124618384Y-79149500D01*
X124618379Y-79149500D01*
X124547805Y-79155913D01*
X124385394Y-79206521D01*
X124385392Y-79206522D01*
X124239816Y-79294527D01*
X124119527Y-79414816D01*
X124031522Y-79560392D01*
X124031521Y-79560394D01*
X123980913Y-79722805D01*
X123974500Y-79793379D01*
X123974500Y-80906620D01*
X123980913Y-80977194D01*
X124031521Y-81139605D01*
X124031522Y-81139607D01*
X124077852Y-81216245D01*
X124119528Y-81285185D01*
X124239815Y-81405472D01*
X124385394Y-81493478D01*
X124547804Y-81544086D01*
X124618384Y-81550500D01*
X125275500Y-81550500D01*
X125333691Y-81569407D01*
X125369655Y-81618907D01*
X125374500Y-81649500D01*
X125374500Y-85500541D01*
X125355593Y-85558732D01*
X125335768Y-85579082D01*
X125289552Y-85614544D01*
X125197301Y-85734768D01*
X125139314Y-85874761D01*
X125139312Y-85874767D01*
X125124500Y-85987279D01*
X125124500Y-87312720D01*
X125139312Y-87425232D01*
X125139314Y-87425238D01*
X125197301Y-87565233D01*
X125197302Y-87565234D01*
X125289545Y-87685447D01*
X125289547Y-87685448D01*
X125289549Y-87685451D01*
X125298266Y-87692139D01*
X125332922Y-87742561D01*
X125337000Y-87770682D01*
X125337000Y-89225623D01*
X125318093Y-89283814D01*
X125317655Y-89284411D01*
X125297207Y-89312116D01*
X125252355Y-89440296D01*
X125252353Y-89440305D01*
X125249500Y-89470725D01*
X125249500Y-90529274D01*
X125252353Y-90559694D01*
X125252355Y-90559703D01*
X125297207Y-90687883D01*
X125377845Y-90797144D01*
X125377847Y-90797146D01*
X125377850Y-90797150D01*
X125377853Y-90797152D01*
X125377855Y-90797154D01*
X125487114Y-90877791D01*
X125487116Y-90877791D01*
X125487118Y-90877793D01*
X125520698Y-90889543D01*
X125569378Y-90926608D01*
X125587000Y-90982987D01*
X125587000Y-91539888D01*
X125568093Y-91598079D01*
X125558004Y-91609892D01*
X123279392Y-93888503D01*
X123237281Y-93913488D01*
X123214949Y-93920045D01*
X123213843Y-93920551D01*
X123211469Y-93921067D01*
X123208154Y-93922041D01*
X123208084Y-93921803D01*
X123172712Y-93929500D01*
X122031268Y-93929500D01*
X121987788Y-93919441D01*
X121975611Y-93913488D01*
X121926393Y-93889427D01*
X121858260Y-93879500D01*
X120141740Y-93879500D01*
X120107673Y-93884463D01*
X120073604Y-93889427D01*
X119968518Y-93940801D01*
X119885801Y-94023518D01*
X119834427Y-94128604D01*
X119831455Y-94149006D01*
X119824500Y-94196740D01*
X119824500Y-94563260D01*
X113425500Y-94563260D01*
X113425500Y-94145727D01*
X113425499Y-94145725D01*
X113423894Y-94128607D01*
X113422646Y-94115301D01*
X113377793Y-93987118D01*
X113377790Y-93987114D01*
X113297154Y-93877855D01*
X113297152Y-93877853D01*
X113297150Y-93877850D01*
X113297146Y-93877847D01*
X113297144Y-93877845D01*
X113187883Y-93797207D01*
X113059703Y-93752355D01*
X113059694Y-93752353D01*
X113029274Y-93749500D01*
X113029266Y-93749500D01*
X111970734Y-93749500D01*
X111970725Y-93749500D01*
X111940305Y-93752353D01*
X111940296Y-93752355D01*
X111812116Y-93797207D01*
X111702855Y-93877845D01*
X111702845Y-93877855D01*
X111622208Y-93987114D01*
X111622207Y-93987118D01*
X111610456Y-94020698D01*
X111573392Y-94069378D01*
X111517013Y-94087000D01*
X109982987Y-94087000D01*
X109924796Y-94068093D01*
X109889543Y-94020698D01*
X109877793Y-93987118D01*
X109877791Y-93987116D01*
X109877791Y-93987114D01*
X109797154Y-93877855D01*
X109797152Y-93877853D01*
X109797150Y-93877850D01*
X109797146Y-93877847D01*
X109797144Y-93877845D01*
X109687883Y-93797207D01*
X109559703Y-93752355D01*
X109559694Y-93752353D01*
X109529274Y-93749500D01*
X109529266Y-93749500D01*
X108470734Y-93749500D01*
X108470725Y-93749500D01*
X108440305Y-93752353D01*
X108440296Y-93752355D01*
X108312116Y-93797207D01*
X108202855Y-93877845D01*
X108202845Y-93877855D01*
X108122208Y-93987114D01*
X108122207Y-93987118D01*
X108110456Y-94020698D01*
X108073392Y-94069378D01*
X108017013Y-94087000D01*
X107460191Y-94087000D01*
X107415008Y-94099106D01*
X107369825Y-94111213D01*
X107369824Y-94111212D01*
X107345612Y-94117701D01*
X107345609Y-94117702D01*
X107242890Y-94177007D01*
X107242885Y-94177011D01*
X106661391Y-94758503D01*
X106619281Y-94783488D01*
X106596949Y-94790045D01*
X106596947Y-94790046D01*
X106475873Y-94867855D01*
X106381621Y-94976628D01*
X106337223Y-95073845D01*
X106317174Y-95102720D01*
X106139511Y-95280385D01*
X106139507Y-95280390D01*
X106080203Y-95383108D01*
X106080200Y-95383114D01*
X106076050Y-95398606D01*
X106049500Y-95497691D01*
X106049500Y-97050500D01*
X106030593Y-97108691D01*
X105981093Y-97144655D01*
X105950500Y-97149500D01*
X105043379Y-97149500D01*
X104972805Y-97155913D01*
X104810394Y-97206521D01*
X104810392Y-97206522D01*
X104664816Y-97294527D01*
X104544527Y-97414816D01*
X104456522Y-97560392D01*
X104456521Y-97560394D01*
X104405913Y-97722805D01*
X104399500Y-97793379D01*
X104399500Y-98906620D01*
X104405913Y-98977194D01*
X104456521Y-99139605D01*
X104456522Y-99139607D01*
X104498233Y-99208604D01*
X104544528Y-99285185D01*
X104664815Y-99405472D01*
X104810394Y-99493478D01*
X104972804Y-99544086D01*
X105043384Y-99550500D01*
X105700500Y-99550500D01*
X105758691Y-99569407D01*
X105794655Y-99618907D01*
X105799500Y-99649500D01*
X105799500Y-103500541D01*
X105780593Y-103558732D01*
X105760768Y-103579082D01*
X105714552Y-103614544D01*
X105622301Y-103734768D01*
X105564314Y-103874761D01*
X105564312Y-103874767D01*
X105549500Y-103987279D01*
X105549500Y-105312720D01*
X105564312Y-105425232D01*
X105564314Y-105425238D01*
X105606973Y-105528227D01*
X105622302Y-105565233D01*
X105714549Y-105685451D01*
X105746337Y-105709843D01*
X105760767Y-105720915D01*
X105795423Y-105771339D01*
X105799500Y-105799457D01*
X105799500Y-106020834D01*
X105780593Y-106079025D01*
X105770504Y-106090838D01*
X103695756Y-108165585D01*
X103641239Y-108193362D01*
X103593056Y-108189026D01*
X103559699Y-108177354D01*
X103559697Y-108177353D01*
X103559695Y-108177353D01*
X103529274Y-108174500D01*
X103529266Y-108174500D01*
X102470734Y-108174500D01*
X102470725Y-108174500D01*
X102440305Y-108177353D01*
X102440296Y-108177355D01*
X102312116Y-108222207D01*
X102202855Y-108302845D01*
X102202845Y-108302855D01*
X102122207Y-108412116D01*
X102077355Y-108540296D01*
X102077353Y-108540305D01*
X102074500Y-108570725D01*
X102074500Y-109354274D01*
X100500500Y-109354274D01*
X100500500Y-83024858D01*
X103204612Y-83024858D01*
X103204613Y-83024870D01*
X103216244Y-83083339D01*
X103216246Y-83083345D01*
X103245984Y-83127850D01*
X103260560Y-83149664D01*
X103326881Y-83193979D01*
X103371343Y-83202823D01*
X103385353Y-83205610D01*
X103385358Y-83205610D01*
X103385364Y-83205612D01*
X104173947Y-83205612D01*
X104232138Y-83224519D01*
X104243951Y-83234608D01*
X104865457Y-83856114D01*
X104980189Y-83932775D01*
X105107672Y-83985580D01*
X105243006Y-84012500D01*
X105243007Y-84012500D01*
X109400835Y-84012500D01*
X109459026Y-84031407D01*
X109470839Y-84041496D01*
X111140504Y-85711161D01*
X111168281Y-85765678D01*
X111169500Y-85781165D01*
X111169500Y-87604274D01*
X111172353Y-87634694D01*
X111172355Y-87634703D01*
X111217207Y-87762883D01*
X111297845Y-87872144D01*
X111297847Y-87872146D01*
X111297850Y-87872150D01*
X111297853Y-87872152D01*
X111297855Y-87872154D01*
X111407116Y-87952792D01*
X111407117Y-87952792D01*
X111407118Y-87952793D01*
X111535301Y-87997646D01*
X111565725Y-88000499D01*
X111565727Y-88000500D01*
X111565734Y-88000500D01*
X112274273Y-88000500D01*
X112274273Y-88000499D01*
X112304699Y-87997646D01*
X112432882Y-87952793D01*
X112542150Y-87872150D01*
X112622793Y-87762882D01*
X112667646Y-87634699D01*
X112670499Y-87604274D01*
X116249500Y-87604274D01*
X116252353Y-87634694D01*
X116252355Y-87634703D01*
X116297207Y-87762883D01*
X116377845Y-87872144D01*
X116377847Y-87872146D01*
X116377850Y-87872150D01*
X116377853Y-87872152D01*
X116377855Y-87872154D01*
X116487116Y-87952792D01*
X116487117Y-87952792D01*
X116487118Y-87952793D01*
X116615301Y-87997646D01*
X116645725Y-88000499D01*
X116645727Y-88000500D01*
X116645734Y-88000500D01*
X117354273Y-88000500D01*
X117354273Y-88000499D01*
X117384699Y-87997646D01*
X117512882Y-87952793D01*
X117622150Y-87872150D01*
X117702793Y-87762882D01*
X117747646Y-87634699D01*
X117750499Y-87604273D01*
X117750500Y-87604273D01*
X117750500Y-86299500D01*
X117769407Y-86241309D01*
X117818907Y-86205345D01*
X117849500Y-86200500D01*
X118784993Y-86200500D01*
X118784994Y-86200500D01*
X118920328Y-86173580D01*
X119047811Y-86120775D01*
X119162543Y-86044114D01*
X122464114Y-82742543D01*
X122540775Y-82627811D01*
X122593580Y-82500329D01*
X122610841Y-82413550D01*
X122620500Y-82364993D01*
X122620500Y-78431007D01*
X122620500Y-77293164D01*
X122639407Y-77234973D01*
X122649490Y-77223166D01*
X123544114Y-76328543D01*
X123620775Y-76213811D01*
X123673580Y-76086328D01*
X123673580Y-76086325D01*
X123673582Y-76086321D01*
X123674803Y-76080184D01*
X123704700Y-76026800D01*
X123760266Y-76001186D01*
X123771900Y-76000500D01*
X123819747Y-76000500D01*
X123819748Y-76000500D01*
X123878231Y-75988867D01*
X123944552Y-75944552D01*
X123988867Y-75878231D01*
X124000500Y-75819748D01*
X124000500Y-74180252D01*
X123988867Y-74121769D01*
X123944552Y-74055448D01*
X123944548Y-74055445D01*
X123878233Y-74011134D01*
X123878231Y-74011133D01*
X123878228Y-74011132D01*
X123878227Y-74011132D01*
X123819758Y-73999501D01*
X123819748Y-73999500D01*
X122180252Y-73999500D01*
X122180251Y-73999500D01*
X122180241Y-73999501D01*
X122121772Y-74011132D01*
X122121766Y-74011134D01*
X122055451Y-74055445D01*
X122055445Y-74055451D01*
X122011134Y-74121766D01*
X122011132Y-74121772D01*
X121999501Y-74180241D01*
X121999500Y-74180253D01*
X121999500Y-75819755D01*
X122001137Y-75827982D01*
X121993944Y-75888743D01*
X121974043Y-75917297D01*
X121375885Y-76515457D01*
X121349077Y-76555580D01*
X121299223Y-76630191D01*
X121246420Y-76757670D01*
X121246420Y-76757672D01*
X121219500Y-76893004D01*
X121219500Y-81964835D01*
X121200593Y-82023026D01*
X121190504Y-82034839D01*
X118454839Y-84770504D01*
X118400322Y-84798281D01*
X118384835Y-84799500D01*
X117849500Y-84799500D01*
X117791309Y-84780593D01*
X117755345Y-84731093D01*
X117750500Y-84700500D01*
X117750500Y-83395727D01*
X117750499Y-83395725D01*
X117747646Y-83365305D01*
X117747646Y-83365301D01*
X117702793Y-83237118D01*
X117691013Y-83221157D01*
X117622154Y-83127855D01*
X117622152Y-83127853D01*
X117622150Y-83127850D01*
X117622146Y-83127847D01*
X117622144Y-83127845D01*
X117512883Y-83047207D01*
X117384703Y-83002355D01*
X117384694Y-83002353D01*
X117354274Y-82999500D01*
X117354266Y-82999500D01*
X116645734Y-82999500D01*
X116645725Y-82999500D01*
X116615305Y-83002353D01*
X116615296Y-83002355D01*
X116487116Y-83047207D01*
X116377855Y-83127845D01*
X116377845Y-83127855D01*
X116297207Y-83237116D01*
X116252355Y-83365296D01*
X116252353Y-83365305D01*
X116249500Y-83395725D01*
X116249500Y-87604274D01*
X112670499Y-87604274D01*
X112670499Y-87604273D01*
X112670500Y-87604273D01*
X112670500Y-83395727D01*
X112670499Y-83395725D01*
X112667646Y-83365305D01*
X112667646Y-83365301D01*
X112622793Y-83237118D01*
X112611013Y-83221157D01*
X112542154Y-83127855D01*
X112542152Y-83127853D01*
X112542150Y-83127850D01*
X112542146Y-83127847D01*
X112542144Y-83127845D01*
X112432883Y-83047207D01*
X112304703Y-83002355D01*
X112304694Y-83002353D01*
X112274274Y-82999500D01*
X112274266Y-82999500D01*
X111565734Y-82999500D01*
X111565725Y-82999500D01*
X111535305Y-83002353D01*
X111535296Y-83002355D01*
X111407116Y-83047207D01*
X111297855Y-83127845D01*
X111297845Y-83127855D01*
X111217207Y-83237116D01*
X111172355Y-83365296D01*
X111172353Y-83365305D01*
X111169500Y-83395725D01*
X111169500Y-83519835D01*
X111150593Y-83578026D01*
X111101093Y-83613990D01*
X111039907Y-83613990D01*
X111000496Y-83589839D01*
X110602817Y-83192160D01*
X110178543Y-82767886D01*
X110140614Y-82742543D01*
X110063808Y-82691223D01*
X109936328Y-82638420D01*
X109800996Y-82611500D01*
X109800994Y-82611500D01*
X109800993Y-82611500D01*
X105643165Y-82611500D01*
X105584974Y-82592593D01*
X105573161Y-82582504D01*
X105234608Y-82243951D01*
X105206831Y-82189434D01*
X105205612Y-82173947D01*
X105205612Y-81385365D01*
X105205610Y-81385353D01*
X105194549Y-81329748D01*
X105193979Y-81326881D01*
X105149664Y-81260560D01*
X105149660Y-81260557D01*
X105083345Y-81216246D01*
X105083343Y-81216245D01*
X105083340Y-81216244D01*
X105083339Y-81216244D01*
X105024870Y-81204613D01*
X105024860Y-81204612D01*
X103385364Y-81204612D01*
X103385363Y-81204612D01*
X103385353Y-81204613D01*
X103326884Y-81216244D01*
X103326878Y-81216246D01*
X103260563Y-81260557D01*
X103260557Y-81260563D01*
X103216246Y-81326878D01*
X103216244Y-81326884D01*
X103204613Y-81385353D01*
X103204612Y-81385365D01*
X103204612Y-83024858D01*
X100500500Y-83024858D01*
X100500500Y-73621289D01*
X101649500Y-73621289D01*
X101681161Y-73861781D01*
X101681161Y-73861786D01*
X101681162Y-73861789D01*
X101733052Y-74055445D01*
X101743944Y-74096092D01*
X101743948Y-74096105D01*
X101836772Y-74320204D01*
X101836774Y-74320208D01*
X101836776Y-74320212D01*
X101958064Y-74530289D01*
X101958066Y-74530292D01*
X102105729Y-74722731D01*
X102105731Y-74722733D01*
X102105735Y-74722738D01*
X102277262Y-74894265D01*
X102277266Y-74894268D01*
X102277268Y-74894270D01*
X102469707Y-75041933D01*
X102469711Y-75041936D01*
X102679788Y-75163224D01*
X102903900Y-75256054D01*
X103138211Y-75318838D01*
X103378712Y-75350500D01*
X103378713Y-75350500D01*
X103621287Y-75350500D01*
X103621288Y-75350500D01*
X103861789Y-75318838D01*
X104096100Y-75256054D01*
X104320212Y-75163224D01*
X104530289Y-75041936D01*
X104722738Y-74894265D01*
X104894265Y-74722738D01*
X105041936Y-74530289D01*
X105163224Y-74320212D01*
X105256054Y-74096100D01*
X105318838Y-73861789D01*
X105350500Y-73621288D01*
X105350500Y-73378712D01*
X105338788Y-73289746D01*
X129399500Y-73289746D01*
X129399501Y-73289758D01*
X129411132Y-73348227D01*
X129411134Y-73348233D01*
X129455445Y-73414548D01*
X129455448Y-73414552D01*
X129521769Y-73458867D01*
X129566231Y-73467711D01*
X129580241Y-73470498D01*
X129580246Y-73470498D01*
X129580252Y-73470500D01*
X129580253Y-73470500D01*
X131319747Y-73470500D01*
X131319748Y-73470500D01*
X131378231Y-73458867D01*
X131444552Y-73414552D01*
X131488867Y-73348231D01*
X131500500Y-73289748D01*
X131500500Y-72420003D01*
X131934417Y-72420003D01*
X131954698Y-72625929D01*
X131954699Y-72625934D01*
X132014768Y-72823954D01*
X132112316Y-73006452D01*
X132243585Y-73166404D01*
X132243590Y-73166410D01*
X132243595Y-73166414D01*
X132243596Y-73166415D01*
X132253302Y-73174380D01*
X132286291Y-73225910D01*
X132289500Y-73250910D01*
X132289500Y-74003996D01*
X132316420Y-74139327D01*
X132316420Y-74139329D01*
X132369223Y-74266808D01*
X132369224Y-74266810D01*
X132369225Y-74266811D01*
X132445886Y-74381543D01*
X135189457Y-77125114D01*
X135304189Y-77201775D01*
X135431672Y-77254580D01*
X135567006Y-77281500D01*
X135567007Y-77281500D01*
X149909835Y-77281500D01*
X149968026Y-77300407D01*
X149979839Y-77310496D01*
X157385504Y-84716161D01*
X157413281Y-84770678D01*
X157414500Y-84786165D01*
X157414500Y-100506835D01*
X157395593Y-100565026D01*
X157385504Y-100576839D01*
X156621839Y-101340504D01*
X156567322Y-101368281D01*
X156551835Y-101369500D01*
X154658957Y-101369500D01*
X154600766Y-101350593D01*
X154596162Y-101347035D01*
X154458538Y-101234090D01*
X154338281Y-101169811D01*
X154284732Y-101141188D01*
X154284730Y-101141187D01*
X154096129Y-101083975D01*
X154096126Y-101083974D01*
X153900003Y-101064659D01*
X153899997Y-101064659D01*
X153703873Y-101083974D01*
X153703870Y-101083975D01*
X153515269Y-101141187D01*
X153515267Y-101141188D01*
X153341467Y-101234087D01*
X153341457Y-101234093D01*
X153189121Y-101359112D01*
X153189112Y-101359121D01*
X153064093Y-101511457D01*
X153064087Y-101511467D01*
X152971188Y-101685267D01*
X152971187Y-101685269D01*
X152913975Y-101873870D01*
X152913974Y-101873873D01*
X152894659Y-102069996D01*
X152894659Y-102070003D01*
X152913974Y-102266126D01*
X152913975Y-102266129D01*
X152971187Y-102454730D01*
X152971188Y-102454732D01*
X152990346Y-102490573D01*
X153064090Y-102628538D01*
X153064092Y-102628540D01*
X153064093Y-102628542D01*
X153189112Y-102780878D01*
X153189121Y-102780887D01*
X153249943Y-102830802D01*
X153341462Y-102905910D01*
X153515273Y-102998814D01*
X153703868Y-103056024D01*
X153703870Y-103056024D01*
X153703873Y-103056025D01*
X153899997Y-103075341D01*
X153900000Y-103075341D01*
X153900003Y-103075341D01*
X154096126Y-103056025D01*
X154096127Y-103056024D01*
X154096132Y-103056024D01*
X154284727Y-102998814D01*
X154458538Y-102905910D01*
X154596153Y-102792971D01*
X154653128Y-102770672D01*
X154658957Y-102770500D01*
X156951993Y-102770500D01*
X156951994Y-102770500D01*
X157087328Y-102743580D01*
X157214811Y-102690775D01*
X157329543Y-102614114D01*
X157873654Y-102070003D01*
X160514659Y-102070003D01*
X160533974Y-102266126D01*
X160533975Y-102266129D01*
X160591187Y-102454730D01*
X160591188Y-102454732D01*
X160610346Y-102490573D01*
X160684090Y-102628538D01*
X160684092Y-102628540D01*
X160684093Y-102628542D01*
X160809112Y-102780878D01*
X160809121Y-102780887D01*
X160869943Y-102830802D01*
X160961462Y-102905910D01*
X161135273Y-102998814D01*
X161323868Y-103056024D01*
X161323870Y-103056024D01*
X161323873Y-103056025D01*
X161519997Y-103075341D01*
X161520000Y-103075341D01*
X161520003Y-103075341D01*
X161716126Y-103056025D01*
X161716127Y-103056024D01*
X161716132Y-103056024D01*
X161904727Y-102998814D01*
X162078538Y-102905910D01*
X162230883Y-102780883D01*
X162355910Y-102628538D01*
X162448814Y-102454727D01*
X162506024Y-102266132D01*
X162506517Y-102261134D01*
X162525341Y-102070003D01*
X162525341Y-102069996D01*
X162506025Y-101873873D01*
X162506024Y-101873870D01*
X162506024Y-101873868D01*
X162448814Y-101685273D01*
X162355910Y-101511462D01*
X162346093Y-101499500D01*
X162230887Y-101359121D01*
X162230878Y-101359112D01*
X162078542Y-101234093D01*
X162078540Y-101234092D01*
X162078538Y-101234090D01*
X161958281Y-101169811D01*
X161904732Y-101141188D01*
X161904730Y-101141187D01*
X161716129Y-101083975D01*
X161716126Y-101083974D01*
X161520003Y-101064659D01*
X161519997Y-101064659D01*
X161323873Y-101083974D01*
X161323870Y-101083975D01*
X161135269Y-101141187D01*
X161135267Y-101141188D01*
X160961467Y-101234087D01*
X160961457Y-101234093D01*
X160809121Y-101359112D01*
X160809112Y-101359121D01*
X160684093Y-101511457D01*
X160684087Y-101511467D01*
X160591188Y-101685267D01*
X160591187Y-101685269D01*
X160533975Y-101873870D01*
X160533974Y-101873873D01*
X160514659Y-102069996D01*
X160514659Y-102070003D01*
X157873654Y-102070003D01*
X158659114Y-101284543D01*
X158735775Y-101169811D01*
X158788580Y-101042328D01*
X158798896Y-100990465D01*
X158815500Y-100906993D01*
X158815500Y-96990003D01*
X160514659Y-96990003D01*
X160533974Y-97186126D01*
X160533975Y-97186129D01*
X160591187Y-97374730D01*
X160591188Y-97374732D01*
X160612614Y-97414816D01*
X160684090Y-97548538D01*
X160684092Y-97548540D01*
X160684093Y-97548542D01*
X160809112Y-97700878D01*
X160809121Y-97700887D01*
X160924617Y-97795672D01*
X160961462Y-97825910D01*
X161135273Y-97918814D01*
X161323868Y-97976024D01*
X161323870Y-97976024D01*
X161323873Y-97976025D01*
X161519997Y-97995341D01*
X161520000Y-97995341D01*
X161520003Y-97995341D01*
X161716126Y-97976025D01*
X161716127Y-97976024D01*
X161716132Y-97976024D01*
X161904727Y-97918814D01*
X162078538Y-97825910D01*
X162230883Y-97700883D01*
X162355910Y-97548538D01*
X162448814Y-97374727D01*
X162506024Y-97186132D01*
X162507476Y-97171395D01*
X162525341Y-96990003D01*
X162525341Y-96989996D01*
X162506025Y-96793873D01*
X162506024Y-96793870D01*
X162506024Y-96793868D01*
X162448814Y-96605273D01*
X162355910Y-96431462D01*
X162305271Y-96369758D01*
X162230887Y-96279121D01*
X162230878Y-96279112D01*
X162078542Y-96154093D01*
X162078540Y-96154092D01*
X162078538Y-96154090D01*
X162013651Y-96119407D01*
X161904732Y-96061188D01*
X161904730Y-96061187D01*
X161716129Y-96003975D01*
X161716126Y-96003974D01*
X161520003Y-95984659D01*
X161519997Y-95984659D01*
X161323873Y-96003974D01*
X161323870Y-96003975D01*
X161135269Y-96061187D01*
X161135267Y-96061188D01*
X160961467Y-96154087D01*
X160961457Y-96154093D01*
X160809121Y-96279112D01*
X160809112Y-96279121D01*
X160684093Y-96431457D01*
X160684087Y-96431467D01*
X160591188Y-96605267D01*
X160591187Y-96605269D01*
X160533975Y-96793870D01*
X160533974Y-96793873D01*
X160514659Y-96989996D01*
X160514659Y-96990003D01*
X158815500Y-96990003D01*
X158815500Y-89370003D01*
X160514659Y-89370003D01*
X160533974Y-89566126D01*
X160533975Y-89566129D01*
X160591187Y-89754730D01*
X160591188Y-89754732D01*
X160662218Y-89887618D01*
X160684090Y-89928538D01*
X160684092Y-89928540D01*
X160684093Y-89928542D01*
X160809112Y-90080878D01*
X160809121Y-90080887D01*
X160961457Y-90205906D01*
X160961462Y-90205910D01*
X161135273Y-90298814D01*
X161323868Y-90356024D01*
X161323870Y-90356024D01*
X161323873Y-90356025D01*
X161519997Y-90375341D01*
X161520000Y-90375341D01*
X161520003Y-90375341D01*
X161716126Y-90356025D01*
X161716127Y-90356024D01*
X161716132Y-90356024D01*
X161904727Y-90298814D01*
X162078538Y-90205910D01*
X162230883Y-90080883D01*
X162355910Y-89928538D01*
X162448814Y-89754727D01*
X162506024Y-89566132D01*
X162525341Y-89370000D01*
X162522091Y-89336997D01*
X162506025Y-89173873D01*
X162506024Y-89173870D01*
X162506024Y-89173868D01*
X162448814Y-88985273D01*
X162355910Y-88811462D01*
X162355906Y-88811457D01*
X162230887Y-88659121D01*
X162230878Y-88659112D01*
X162078542Y-88534093D01*
X162078540Y-88534092D01*
X162078538Y-88534090D01*
X162037618Y-88512218D01*
X161904732Y-88441188D01*
X161904730Y-88441187D01*
X161716129Y-88383975D01*
X161716126Y-88383974D01*
X161520003Y-88364659D01*
X161519997Y-88364659D01*
X161323873Y-88383974D01*
X161323870Y-88383975D01*
X161135269Y-88441187D01*
X161135267Y-88441188D01*
X160961467Y-88534087D01*
X160961457Y-88534093D01*
X160809121Y-88659112D01*
X160809112Y-88659121D01*
X160684093Y-88811457D01*
X160684087Y-88811467D01*
X160591188Y-88985267D01*
X160591187Y-88985269D01*
X160533975Y-89173870D01*
X160533974Y-89173873D01*
X160514659Y-89369996D01*
X160514659Y-89370003D01*
X158815500Y-89370003D01*
X158815500Y-86830003D01*
X160514659Y-86830003D01*
X160533974Y-87026126D01*
X160533975Y-87026129D01*
X160591187Y-87214730D01*
X160591188Y-87214732D01*
X160643564Y-87312719D01*
X160684090Y-87388538D01*
X160684092Y-87388540D01*
X160684093Y-87388542D01*
X160809112Y-87540878D01*
X160809121Y-87540887D01*
X160923425Y-87634694D01*
X160961462Y-87665910D01*
X161135273Y-87758814D01*
X161323868Y-87816024D01*
X161323870Y-87816024D01*
X161323873Y-87816025D01*
X161519997Y-87835341D01*
X161520000Y-87835341D01*
X161520003Y-87835341D01*
X161716126Y-87816025D01*
X161716127Y-87816024D01*
X161716132Y-87816024D01*
X161904727Y-87758814D01*
X162078538Y-87665910D01*
X162230883Y-87540883D01*
X162355910Y-87388538D01*
X162448814Y-87214727D01*
X162506024Y-87026132D01*
X162525341Y-86830000D01*
X162525341Y-86829996D01*
X162506025Y-86633873D01*
X162506024Y-86633870D01*
X162506024Y-86633868D01*
X162448814Y-86445273D01*
X162355910Y-86271462D01*
X162336019Y-86247225D01*
X162230887Y-86119121D01*
X162230878Y-86119112D01*
X162078542Y-85994093D01*
X162078540Y-85994092D01*
X162078538Y-85994090D01*
X161995116Y-85949500D01*
X161904732Y-85901188D01*
X161904730Y-85901187D01*
X161716129Y-85843975D01*
X161716126Y-85843974D01*
X161520003Y-85824659D01*
X161519997Y-85824659D01*
X161323873Y-85843974D01*
X161323870Y-85843975D01*
X161135269Y-85901187D01*
X161135267Y-85901188D01*
X160961467Y-85994087D01*
X160961457Y-85994093D01*
X160809121Y-86119112D01*
X160809112Y-86119121D01*
X160684093Y-86271457D01*
X160684087Y-86271467D01*
X160591188Y-86445267D01*
X160591187Y-86445269D01*
X160533975Y-86633870D01*
X160533974Y-86633873D01*
X160514659Y-86829996D01*
X160514659Y-86830003D01*
X158815500Y-86830003D01*
X158815500Y-84386007D01*
X158796403Y-84290003D01*
X160514659Y-84290003D01*
X160533974Y-84486126D01*
X160533975Y-84486129D01*
X160591187Y-84674730D01*
X160591188Y-84674732D01*
X160650751Y-84786165D01*
X160684090Y-84848538D01*
X160684092Y-84848540D01*
X160684093Y-84848542D01*
X160809112Y-85000878D01*
X160809121Y-85000887D01*
X160941781Y-85109758D01*
X160961462Y-85125910D01*
X161135273Y-85218814D01*
X161323868Y-85276024D01*
X161323870Y-85276024D01*
X161323873Y-85276025D01*
X161519997Y-85295341D01*
X161520000Y-85295341D01*
X161520003Y-85295341D01*
X161716126Y-85276025D01*
X161716127Y-85276024D01*
X161716132Y-85276024D01*
X161904727Y-85218814D01*
X162078538Y-85125910D01*
X162230883Y-85000883D01*
X162355910Y-84848538D01*
X162448814Y-84674727D01*
X162506024Y-84486132D01*
X162515886Y-84386008D01*
X162525341Y-84290003D01*
X162525341Y-84289996D01*
X162506025Y-84093873D01*
X162506024Y-84093870D01*
X162506024Y-84093868D01*
X162448814Y-83905273D01*
X162355910Y-83731462D01*
X162259503Y-83613990D01*
X162230887Y-83579121D01*
X162230878Y-83579112D01*
X162078542Y-83454093D01*
X162078540Y-83454092D01*
X162078538Y-83454090D01*
X161999361Y-83411769D01*
X161904732Y-83361188D01*
X161904730Y-83361187D01*
X161716129Y-83303975D01*
X161716126Y-83303974D01*
X161520003Y-83284659D01*
X161519997Y-83284659D01*
X161323873Y-83303974D01*
X161323870Y-83303975D01*
X161135269Y-83361187D01*
X161135267Y-83361188D01*
X160961467Y-83454087D01*
X160961457Y-83454093D01*
X160809121Y-83579112D01*
X160809112Y-83579121D01*
X160684093Y-83731457D01*
X160684087Y-83731467D01*
X160591188Y-83905267D01*
X160591187Y-83905269D01*
X160533975Y-84093870D01*
X160533974Y-84093873D01*
X160514659Y-84289996D01*
X160514659Y-84290003D01*
X158796403Y-84290003D01*
X158788580Y-84250672D01*
X158735775Y-84123189D01*
X158735774Y-84123187D01*
X158735771Y-84123182D01*
X158690602Y-84055583D01*
X158690601Y-84055581D01*
X158659118Y-84008462D01*
X158659116Y-84008460D01*
X158659114Y-84008457D01*
X157650660Y-83000003D01*
X165444417Y-83000003D01*
X165464698Y-83205929D01*
X165464699Y-83205934D01*
X165524768Y-83403954D01*
X165622316Y-83586452D01*
X165741327Y-83731467D01*
X165753590Y-83746410D01*
X165753595Y-83746414D01*
X165913547Y-83877683D01*
X165913548Y-83877683D01*
X165913550Y-83877685D01*
X166096046Y-83975232D01*
X166218904Y-84012500D01*
X166294065Y-84035300D01*
X166294070Y-84035301D01*
X166499997Y-84055583D01*
X166500000Y-84055583D01*
X166500003Y-84055583D01*
X166705929Y-84035301D01*
X166705934Y-84035300D01*
X166903954Y-83975232D01*
X167086450Y-83877685D01*
X167246410Y-83746410D01*
X167377685Y-83586450D01*
X167475232Y-83403954D01*
X167535300Y-83205934D01*
X167535301Y-83205929D01*
X167555583Y-83000003D01*
X167555583Y-82999996D01*
X167535301Y-82794070D01*
X167535300Y-82794065D01*
X167504103Y-82691223D01*
X167475232Y-82596046D01*
X167377685Y-82413550D01*
X167374311Y-82409439D01*
X167246414Y-82253595D01*
X167246410Y-82253590D01*
X167199333Y-82214955D01*
X167086452Y-82122316D01*
X166903954Y-82024768D01*
X166705934Y-81964699D01*
X166705929Y-81964698D01*
X166500003Y-81944417D01*
X166499997Y-81944417D01*
X166294070Y-81964698D01*
X166294065Y-81964699D01*
X166096045Y-82024768D01*
X165913547Y-82122316D01*
X165753595Y-82253585D01*
X165753585Y-82253595D01*
X165622316Y-82413547D01*
X165524768Y-82596045D01*
X165464699Y-82794065D01*
X165464698Y-82794070D01*
X165444417Y-82999996D01*
X165444417Y-83000003D01*
X157650660Y-83000003D01*
X155980403Y-81329746D01*
X165449500Y-81329746D01*
X165449501Y-81329758D01*
X165460563Y-81385365D01*
X165461133Y-81388231D01*
X165505448Y-81454552D01*
X165571769Y-81498867D01*
X165616231Y-81507711D01*
X165630241Y-81510498D01*
X165630246Y-81510498D01*
X165630252Y-81510500D01*
X165630253Y-81510500D01*
X167369747Y-81510500D01*
X167369748Y-81510500D01*
X167428231Y-81498867D01*
X167494552Y-81454552D01*
X167538867Y-81388231D01*
X167550500Y-81329748D01*
X167550500Y-79590252D01*
X167538867Y-79531769D01*
X167494552Y-79465448D01*
X167451229Y-79436500D01*
X167428233Y-79421134D01*
X167428231Y-79421133D01*
X167428228Y-79421132D01*
X167428227Y-79421132D01*
X167369758Y-79409501D01*
X167369748Y-79409500D01*
X165630252Y-79409500D01*
X165630251Y-79409500D01*
X165630241Y-79409501D01*
X165571772Y-79421132D01*
X165571766Y-79421134D01*
X165505451Y-79465445D01*
X165505445Y-79465451D01*
X165461134Y-79531766D01*
X165461132Y-79531772D01*
X165449501Y-79590241D01*
X165449500Y-79590253D01*
X165449500Y-81329746D01*
X155980403Y-81329746D01*
X150687543Y-76036886D01*
X150672448Y-76026800D01*
X150572808Y-75960223D01*
X150445328Y-75907420D01*
X150309996Y-75880500D01*
X150309994Y-75880500D01*
X150309993Y-75880500D01*
X135967165Y-75880500D01*
X135908974Y-75861593D01*
X135897161Y-75851504D01*
X133719496Y-73673839D01*
X133692721Y-73621289D01*
X164649500Y-73621289D01*
X164681161Y-73861781D01*
X164681161Y-73861786D01*
X164681162Y-73861789D01*
X164733052Y-74055445D01*
X164743944Y-74096092D01*
X164743948Y-74096105D01*
X164836772Y-74320204D01*
X164836774Y-74320208D01*
X164836776Y-74320212D01*
X164958064Y-74530289D01*
X164958066Y-74530292D01*
X165105729Y-74722731D01*
X165105731Y-74722733D01*
X165105735Y-74722738D01*
X165277262Y-74894265D01*
X165277266Y-74894268D01*
X165277268Y-74894270D01*
X165469707Y-75041933D01*
X165469711Y-75041936D01*
X165679788Y-75163224D01*
X165903900Y-75256054D01*
X166138211Y-75318838D01*
X166378712Y-75350500D01*
X166378713Y-75350500D01*
X166621287Y-75350500D01*
X166621288Y-75350500D01*
X166861789Y-75318838D01*
X167096100Y-75256054D01*
X167320212Y-75163224D01*
X167530289Y-75041936D01*
X167722738Y-74894265D01*
X167894265Y-74722738D01*
X168041936Y-74530289D01*
X168163224Y-74320212D01*
X168256054Y-74096100D01*
X168318838Y-73861789D01*
X168350500Y-73621288D01*
X168350500Y-73378712D01*
X168318838Y-73138211D01*
X168256054Y-72903900D01*
X168163224Y-72679788D01*
X168041936Y-72469711D01*
X168003794Y-72420003D01*
X167894270Y-72277268D01*
X167894268Y-72277266D01*
X167894265Y-72277262D01*
X167722738Y-72105735D01*
X167722733Y-72105731D01*
X167722731Y-72105729D01*
X167530292Y-71958066D01*
X167530289Y-71958064D01*
X167320212Y-71836776D01*
X167320208Y-71836774D01*
X167320204Y-71836772D01*
X167096105Y-71743948D01*
X167096104Y-71743947D01*
X167096100Y-71743946D01*
X166861789Y-71681162D01*
X166861786Y-71681161D01*
X166861784Y-71681161D01*
X166621289Y-71649500D01*
X166621288Y-71649500D01*
X166378712Y-71649500D01*
X166378710Y-71649500D01*
X166138218Y-71681161D01*
X166138213Y-71681161D01*
X165903907Y-71743944D01*
X165903894Y-71743948D01*
X165679795Y-71836772D01*
X165469707Y-71958066D01*
X165277268Y-72105729D01*
X165105729Y-72277268D01*
X164958066Y-72469707D01*
X164836772Y-72679795D01*
X164743948Y-72903894D01*
X164743944Y-72903907D01*
X164681161Y-73138213D01*
X164681161Y-73138218D01*
X164649500Y-73378710D01*
X164649500Y-73621289D01*
X133692721Y-73621289D01*
X133691719Y-73619322D01*
X133690500Y-73603835D01*
X133690500Y-73250910D01*
X133709407Y-73192719D01*
X133726698Y-73174380D01*
X133736410Y-73166410D01*
X133867685Y-73006450D01*
X133965232Y-72823954D01*
X134025300Y-72625934D01*
X134025301Y-72625929D01*
X134045583Y-72420003D01*
X134474417Y-72420003D01*
X134494698Y-72625929D01*
X134494699Y-72625934D01*
X134554768Y-72823954D01*
X134652316Y-73006452D01*
X134783585Y-73166404D01*
X134783590Y-73166410D01*
X134783595Y-73166414D01*
X134943547Y-73297683D01*
X134943548Y-73297683D01*
X134943550Y-73297685D01*
X135126046Y-73395232D01*
X135234837Y-73428233D01*
X135324065Y-73455300D01*
X135324070Y-73455301D01*
X135529997Y-73475583D01*
X135530000Y-73475583D01*
X135530003Y-73475583D01*
X135735929Y-73455301D01*
X135735934Y-73455300D01*
X135933954Y-73395232D01*
X135981635Y-73369746D01*
X139674500Y-73369746D01*
X139674501Y-73369758D01*
X139686132Y-73428227D01*
X139686134Y-73428233D01*
X139717773Y-73475583D01*
X139730448Y-73494552D01*
X139796769Y-73538867D01*
X139841231Y-73547711D01*
X139855241Y-73550498D01*
X139855246Y-73550498D01*
X139855252Y-73550500D01*
X139855253Y-73550500D01*
X141594747Y-73550500D01*
X141594748Y-73550500D01*
X141653231Y-73538867D01*
X141719552Y-73494552D01*
X141763867Y-73428231D01*
X141775500Y-73369748D01*
X141775500Y-71630252D01*
X141763867Y-71571769D01*
X141719552Y-71505448D01*
X141699085Y-71491772D01*
X141653233Y-71461134D01*
X141653231Y-71461133D01*
X141653228Y-71461132D01*
X141653227Y-71461132D01*
X141594758Y-71449501D01*
X141594748Y-71449500D01*
X139855252Y-71449500D01*
X139855251Y-71449500D01*
X139855241Y-71449501D01*
X139796772Y-71461132D01*
X139796766Y-71461134D01*
X139730451Y-71505445D01*
X139730445Y-71505451D01*
X139686134Y-71571766D01*
X139686132Y-71571772D01*
X139674501Y-71630241D01*
X139674500Y-71630253D01*
X139674500Y-73369746D01*
X135981635Y-73369746D01*
X136116450Y-73297685D01*
X136276410Y-73166410D01*
X136407685Y-73006450D01*
X136505232Y-72823954D01*
X136565300Y-72625934D01*
X136565301Y-72625929D01*
X136585583Y-72420003D01*
X136585583Y-72419996D01*
X136565301Y-72214070D01*
X136565300Y-72214065D01*
X136547078Y-72153997D01*
X136505232Y-72016046D01*
X136407685Y-71833550D01*
X136276410Y-71673590D01*
X136247056Y-71649500D01*
X136116452Y-71542316D01*
X135933954Y-71444768D01*
X135735934Y-71384699D01*
X135735929Y-71384698D01*
X135530003Y-71364417D01*
X135529997Y-71364417D01*
X135324070Y-71384698D01*
X135324065Y-71384699D01*
X135126045Y-71444768D01*
X134943547Y-71542316D01*
X134783595Y-71673585D01*
X134783585Y-71673595D01*
X134652316Y-71833547D01*
X134554768Y-72016045D01*
X134494699Y-72214065D01*
X134494698Y-72214070D01*
X134474417Y-72419996D01*
X134474417Y-72420003D01*
X134045583Y-72420003D01*
X134045583Y-72419996D01*
X134025301Y-72214070D01*
X134025300Y-72214065D01*
X134007078Y-72153997D01*
X133965232Y-72016046D01*
X133867685Y-71833550D01*
X133736410Y-71673590D01*
X133707056Y-71649500D01*
X133576452Y-71542316D01*
X133393954Y-71444768D01*
X133195934Y-71384699D01*
X133195929Y-71384698D01*
X132990003Y-71364417D01*
X132989997Y-71364417D01*
X132784070Y-71384698D01*
X132784065Y-71384699D01*
X132586045Y-71444768D01*
X132403547Y-71542316D01*
X132243595Y-71673585D01*
X132243585Y-71673595D01*
X132112316Y-71833547D01*
X132014768Y-72016045D01*
X131954699Y-72214065D01*
X131954698Y-72214070D01*
X131934417Y-72419996D01*
X131934417Y-72420003D01*
X131500500Y-72420003D01*
X131500500Y-71550252D01*
X131498921Y-71542316D01*
X131497711Y-71536231D01*
X131488867Y-71491769D01*
X131444552Y-71425448D01*
X131444548Y-71425445D01*
X131378233Y-71381134D01*
X131378231Y-71381133D01*
X131378228Y-71381132D01*
X131378227Y-71381132D01*
X131319758Y-71369501D01*
X131319748Y-71369500D01*
X129580252Y-71369500D01*
X129580251Y-71369500D01*
X129580241Y-71369501D01*
X129521772Y-71381132D01*
X129521766Y-71381134D01*
X129455451Y-71425445D01*
X129455445Y-71425451D01*
X129411134Y-71491766D01*
X129411132Y-71491772D01*
X129399501Y-71550241D01*
X129399500Y-71550253D01*
X129399500Y-73289746D01*
X105338788Y-73289746D01*
X105318838Y-73138211D01*
X105256054Y-72903900D01*
X105163224Y-72679788D01*
X105041936Y-72469711D01*
X105003794Y-72420003D01*
X104894270Y-72277268D01*
X104894268Y-72277266D01*
X104894265Y-72277262D01*
X104722738Y-72105735D01*
X104722733Y-72105731D01*
X104722731Y-72105729D01*
X104530292Y-71958066D01*
X104530289Y-71958064D01*
X104320212Y-71836776D01*
X104320208Y-71836774D01*
X104320204Y-71836772D01*
X104096105Y-71743948D01*
X104096104Y-71743947D01*
X104096100Y-71743946D01*
X103861789Y-71681162D01*
X103861786Y-71681161D01*
X103861784Y-71681161D01*
X103621289Y-71649500D01*
X103621288Y-71649500D01*
X103378712Y-71649500D01*
X103378710Y-71649500D01*
X103138218Y-71681161D01*
X103138213Y-71681161D01*
X102903907Y-71743944D01*
X102903894Y-71743948D01*
X102679795Y-71836772D01*
X102469707Y-71958066D01*
X102277268Y-72105729D01*
X102105729Y-72277268D01*
X101958066Y-72469707D01*
X101836772Y-72679795D01*
X101743948Y-72903894D01*
X101743944Y-72903907D01*
X101681161Y-73138213D01*
X101681161Y-73138218D01*
X101649500Y-73378710D01*
X101649500Y-73621289D01*
X100500500Y-73621289D01*
X100500500Y-70599500D01*
X100519407Y-70541309D01*
X100568907Y-70505345D01*
X100599500Y-70500500D01*
X169400500Y-70500500D01*
X169458691Y-70519407D01*
G37*
%TD.AperFunction*%
%TD*%
M02*
